<?xml version="1.0" encoding="UTF-8" standalone="no" ?>
<!DOCTYPE svg PUBLIC "-//W3C//DTD SVG 1.1//EN" "http://www.w3.org/Graphics/SVG/1.1/DTD/svg11.dtd">
<svg xmlns="http://www.w3.org/2000/svg" xmlns:xlink="http://www.w3.org/1999/xlink" version="1.1" width="1080" height="1080" viewBox="0 0 1080 1080" xml:space="preserve">
<desc>Created with Fabric.js 5.2.4</desc>
<defs>
</defs>
<g transform="matrix(1 0 0 1 540 540)" id="1a4984e7-8890-43dc-8358-a713e5ba6cea"  >
<rect style="stroke: none; stroke-width: 1; stroke-dasharray: none; stroke-linecap: butt; stroke-dashoffset: 0; stroke-linejoin: miter; stroke-miterlimit: 4; fill: rgb(255,255,255); fill-rule: nonzero; opacity: 1; visibility: hidden;" vector-effect="non-scaling-stroke"  x="-540" y="-540" rx="0" ry="0" width="1080" height="1080" />
</g>
<g transform="matrix(1 0 0 1 540 540)" id="cf52e9df-5c2a-4e7b-b5e6-1d14a621efa6"  >
</g>
<g transform="matrix(1 0 0 1 306.81 526.9)"  >
<path style="stroke: none; stroke-width: 1; stroke-dasharray: none; stroke-linecap: butt; stroke-dashoffset: 0; stroke-linejoin: miter; stroke-miterlimit: 4; fill: rgb(250,108,26); fill-rule: nonzero; opacity: 1;" vector-effect="non-scaling-stroke"  transform=" translate(-67.83, -143.3)" d="M 43.58 199.91 L 35 198.45 L 52.73 94.81 L 54.41 93.81 C 70.14999999999999 84.18 88.13999999999999 84.32000000000001 96.24 94.14 C 101.39 100.38 100.69 108.41 100.56 109.55 C 98.85 124 81.35 136.63 56.74 140.44 L 56.43 132.82999999999998 C 76.43 128.55999999999997 90.87 119.23999999999998 91.95 108.57999999999998 C 92.03 107.78999999999998 92.47 103.13999999999999 89.56 99.57999999999998 C 85.12 94.19999999999999 73.26 93.09999999999998 60.56 100.14999999999998 Z" stroke-linecap="round" />
</g>
<g transform="matrix(1 0 0 1 345.37 524.74)"  >
<path style="stroke: none; stroke-width: 1; stroke-dasharray: none; stroke-linecap: butt; stroke-dashoffset: 0; stroke-linejoin: miter; stroke-miterlimit: 4; fill: rgb(250,108,26); fill-rule: nonzero; opacity: 1;" vector-effect="non-scaling-stroke"  transform=" translate(-106.39, -141.13)" d="M 77.62 179.87 L 70.29 175.25 L 116.21000000000001 102.39 L 119.76 108.77 C 126.31664058548161 120.53943036252599 131.63829202729468 132.95550000479136 135.64 145.81999999999988 C 138.73511273589347 155.7939713805857 141.02578113788616 165.99998592493884 142.48999999999995 176.34 L 133.92000000000002 177.56 C 132.5164358991766 167.67784835595674 130.3261441923583 157.92352635780554 127.37000000000003 148.38999999999993 C 124.27709328004183 138.45102974506165 120.36016848068853 128.78749793862974 115.66000000000001 119.49999999999989 Z" stroke-linecap="round" />
</g>
<g transform="matrix(1 0 0 1 352.69 524.89)"  >
<path style="stroke: none; stroke-width: 1; stroke-dasharray: none; stroke-linecap: butt; stroke-dashoffset: 0; stroke-linejoin: miter; stroke-miterlimit: 4; fill: rgb(250,108,26); fill-rule: nonzero; opacity: 1;" vector-effect="non-scaling-stroke"  transform=" translate(-113.71, -141.29)" d="M 97.23 148.49 L 95.45 140 C 102.67 138.49 110.01 137.15 117.29 136 C 121.80000000000001 135.29 126.37 134.64 130.89000000000001 134.08 L 131.96 142.67000000000002 C 127.54 143.23000000000002 123.05000000000001 143.86 118.63000000000001 144.55 C 111.5 145.69 104.3 147 97.23 148.49 Z" stroke-linecap="round" />
</g>
<g transform="matrix(1 0 0 1 448.74 526.18)"  >
<path style="stroke: none; stroke-width: 1; stroke-dasharray: none; stroke-linecap: butt; stroke-dashoffset: 0; stroke-linejoin: miter; stroke-miterlimit: 4; fill: rgb(250,108,26); fill-rule: nonzero; opacity: 1;" vector-effect="non-scaling-stroke"  transform=" translate(-209.76, -142.57)" d="M 181 181.31 L 173.67 176.69 L 219.57999999999998 103.83 L 223.14 110.2 C 229.6839164064318 121.97659259327557 234.998575646718 134.39533606395702 238.99999999999994 147.2599999999999 C 242.096151152158 157.23369417619816 244.38683841736307 167.43979276511183 245.85 177.78 L 237.29 179 C 235.89570145671337 169.11703092204527 233.70864797257656 159.36223732383885 230.74999999999994 149.8299999999999 C 227.64417905134934 139.88977498768648 223.71386127604865 130.22621068739386 219 120.93999999999994 Z" stroke-linecap="round" />
</g>
<g transform="matrix(1 0 0 1 456.07 526.34)"  >
<path style="stroke: none; stroke-width: 1; stroke-dasharray: none; stroke-linecap: butt; stroke-dashoffset: 0; stroke-linejoin: miter; stroke-miterlimit: 4; fill: rgb(250,108,26); fill-rule: nonzero; opacity: 1;" vector-effect="non-scaling-stroke"  transform=" translate(-217.08, -142.74)" d="M 200.6 149.93 L 198.82999999999998 141.45000000000002 C 206.04 139.94000000000003 213.39 138.60000000000002 220.65999999999997 137.45000000000002 C 225.16999999999996 136.75000000000003 229.74999999999997 136.10000000000002 234.25999999999996 135.54000000000002 L 235.33999999999997 144.13000000000002 C 230.90999999999997 144.68000000000004 226.42999999999998 145.32000000000002 222.00999999999996 146.01000000000002 C 214.88 147.13 207.68 148.45 200.6 149.93 Z" stroke-linecap="round" />
</g>
<g transform="matrix(1 0 0 1 702.67 526.18)"  >
<path style="stroke: none; stroke-width: 1; stroke-dasharray: none; stroke-linecap: butt; stroke-dashoffset: 0; stroke-linejoin: miter; stroke-miterlimit: 4; fill: rgb(250,108,26); fill-rule: nonzero; opacity: 1;" vector-effect="non-scaling-stroke"  transform=" translate(-463.69, -142.57)" d="M 434.92 181.31 L 427.59000000000003 176.69 L 473.51000000000005 103.83 L 477.06000000000006 110.21 C 488.7311888742684 131.14223918395365 496.43703211849476 154.04957873575177 499.7900000000001 177.77999999999997 L 491.22 179 C 488.37228164315735 158.77832552498327 482.2167297936103 139.162994000027 473 120.94000000000003 Z" stroke-linecap="round" />
</g>
<g transform="matrix(1 0 0 1 709.99 526.34)"  >
<path style="stroke: none; stroke-width: 1; stroke-dasharray: none; stroke-linecap: butt; stroke-dashoffset: 0; stroke-linejoin: miter; stroke-miterlimit: 4; fill: rgb(250,108,26); fill-rule: nonzero; opacity: 1;" vector-effect="non-scaling-stroke"  transform=" translate(-471, -142.74)" d="M 454.53 149.93 L 452.75 141.45000000000002 C 459.97 139.94000000000003 467.31 138.60000000000002 474.59 137.45000000000002 C 479.09 136.75000000000003 483.66999999999996 136.10000000000002 488.19 135.54000000000002 L 489.26 144.13000000000002 C 484.83 144.68000000000004 480.34999999999997 145.32000000000002 475.93 146.01000000000002 C 468.8 147.13 461.6 148.45 454.53 149.93 Z" stroke-linecap="round" />
</g>
<g transform="matrix(1 0 0 1 421.92 539.55)"  >
<path style="stroke: none; stroke-width: 1; stroke-dasharray: none; stroke-linecap: butt; stroke-dashoffset: 0; stroke-linejoin: miter; stroke-miterlimit: 4; fill: rgb(250,108,26); fill-rule: nonzero; opacity: 1;" vector-effect="non-scaling-stroke"  transform=" translate(-182.94, -155.94)" d="M 156.26 212.12 L 158.54 99.76 L 167.2 99.93 L 165.2 197.93 C 179.1862917286372 191.82850467147756 194.3728007238406 188.97376918948862 209.61999999999995 189.57999999999998 L 209.28 198.23000000000002 C 193.11911312915024 197.60220428339514 177.0750069138412 201.21161107484951 162.74 208.70000000000005 Z" stroke-linecap="round" />
</g>
<g transform="matrix(1 0 0 1 506.01 512.59)"  >
<path style="stroke: none; stroke-width: 1; stroke-dasharray: none; stroke-linecap: butt; stroke-dashoffset: 0; stroke-linejoin: miter; stroke-miterlimit: 4; fill: rgb(250,108,26); fill-rule: nonzero; opacity: 1;" vector-effect="non-scaling-stroke"  transform=" translate(-267.02, -128.98)" d="M 256 202.48 L 255.05 55.47999999999999 L 279 55.47999999999999 L 278 202.09 Z M 261.62 62 L 262.49 195.89 L 271.56 195.73 L 272.43 62 Z" stroke-linecap="round" />
</g>
<g transform="matrix(1 -0.01 0.01 1 506.18 459.72)"  >
<rect style="stroke: none; stroke-width: 1; stroke-dasharray: none; stroke-linecap: butt; stroke-dashoffset: 0; stroke-linejoin: miter; stroke-miterlimit: 4; fill: rgb(250,108,26); fill-rule: nonzero; opacity: 1;" vector-effect="non-scaling-stroke"  x="-5.61" y="-3.355" rx="0" ry="0" width="11.22" height="6.71" />
</g>
<g transform="matrix(1 -0.01 0.01 1 506.19 481.84)"  >
<rect style="stroke: none; stroke-width: 1; stroke-dasharray: none; stroke-linecap: butt; stroke-dashoffset: 0; stroke-linejoin: miter; stroke-miterlimit: 4; fill: rgb(250,108,26); fill-rule: nonzero; opacity: 1;" vector-effect="non-scaling-stroke"  x="-5.61" y="-3.355" rx="0" ry="0" width="11.22" height="6.71" />
</g>
<g transform="matrix(1 0 0 1 595.51 526.12)"  >
<path style="stroke: none; stroke-width: 1; stroke-dasharray: none; stroke-linecap: butt; stroke-dashoffset: 0; stroke-linejoin: miter; stroke-miterlimit: 4; fill: rgb(250,108,26); fill-rule: nonzero; opacity: 1;" vector-effect="non-scaling-stroke"  transform=" translate(-356.53, -142.52)" d="M 334.1 194.72 L 326 193.27 L 342.87 98.8 L 344.23 97.8 C 350.0340753697679 93.57283507940132 356.9004568536788 91.04512026182441 364.06 90.49999999999999 C 368.63 90.19 374.3 89.79 379.48 93.59 C 386.72 98.91 388.33000000000004 109.12 386.17 116.47 C 383.90000000000003 124.2 378.01 127.97 371.17 132.34 C 366.9646053974964 135.02056204102684 362.44356235120455 137.17024075545984 357.71000000000004 138.74 C 365.1409643248088 152.71035293041768 370.65718020051486 167.6175899798868 374.11 183.06000000000003 L 366.11 184.86 C 364.06 176.86 362.05 170.23000000000002 360.47 165.31 C 355.03000000000003 148.43 351.71000000000004 142.76 348.06 138.23000000000002 C 346.29211192098995 136.04878753813782 344.3597967736397 134.00614989967582 342.28000000000003 132.12 C 345.068138867402 132.4616089982342 347.88586062362884 132.48844444353162 350.68 132.20000000000002 C 360.91 131.13000000000002 375.68 125.20000000000002 378.29 114.20000000000002 C 379.29 109.66000000000001 378.64000000000004 103.20000000000002 374.62 100.26000000000002 C 371.87 98.26000000000002 368.34000000000003 98.48000000000002 364.62 98.73000000000002 C 359.53071430371847 99.12576993441725 354.6247012105546 100.804686056061 350.36 103.61000000000001 Z" stroke-linecap="round" />
</g>
<g transform="matrix(1 0 0 1 779.19 526.4)"  >
<path style="stroke: none; stroke-width: 1; stroke-dasharray: none; stroke-linecap: butt; stroke-dashoffset: 0; stroke-linejoin: miter; stroke-miterlimit: 4; fill: rgb(250,108,26); fill-rule: nonzero; opacity: 1;" vector-effect="non-scaling-stroke"  transform=" translate(-540.21, -142.79)" d="M 517.78 195 L 509.69 193.56 L 526.55 99.08 L 527.91 98.08 C 533.7106529622007 93.85194140539119 540.5731472823625 91.32092054361611 547.73 90.77000000000001 C 552.3000000000001 90.46 557.98 90.07 563.16 93.86999999999999 C 570.4 99.17999999999999 572 109.39999999999999 569.85 116.74 C 567.58 124.47 561.69 128.24 554.85 132.60999999999999 C 550.644335100252 135.2964834791549 546.1192268905252 137.44649777330866 541.38 139.01 C 548.8152038150527 152.97949068198554 554.3348303491665 167.88685497156058 557.79 183.33 L 549.79 185.13 C 547.79 177.13 545.79 170.5 544.15 165.57999999999998 C 538.72 148.70999999999998 535.4 143.04 531.75 138.5 C 529.9853248768593 136.31907542675214 528.0527643823567 134.27952196369574 525.97 132.4 C 528.758907430601 132.73214392443566 531.5759445430812 132.7556192337063 534.37 132.47 C 544.6 131.41 559.37 125.53 561.98 114.47 C 562.98 109.94 562.32 103.47 558.3100000000001 100.53 C 555.5600000000001 98.53 552.0300000000001 98.75 548.3100000000001 99.01 C 543.2078197451136 99.38158233704307 538.2837371248884 101.04358925917359 534 103.83999999999999 Z" stroke-linecap="round" />
</g>
<g transform="matrix(1 0 0 1 653.1 520.38)"  >
<path style="stroke: none; stroke-width: 1; stroke-dasharray: none; stroke-linecap: butt; stroke-dashoffset: 0; stroke-linejoin: miter; stroke-miterlimit: 4; fill: rgb(250,108,26); fill-rule: nonzero; opacity: 1;" vector-effect="non-scaling-stroke"  transform=" translate(-414.12, -136.77)" d="M 394 180.93 L 385.61 178.79000000000002 L 406.98 94.58000000000003 L 409.61 94.02000000000002 C 417.3019050553071 92.37236955211814 425.2326705841731 92.16553898467016 433 93.41 C 436.2678038634979 93.93857584345837 439.48807841120475 94.7277604678185 442.62999999999994 95.76999999999998 L 440 104 C 431.62685483095896 101.21933863758352 422.6999151989513 100.53265097358293 414 102 Z" stroke-linecap="round" />
</g>
<g transform="matrix(0.1 -0.99 0.99 0.1 657.28 514.26)"  >
<rect style="stroke: none; stroke-width: 1; stroke-dasharray: none; stroke-linecap: butt; stroke-dashoffset: 0; stroke-linejoin: miter; stroke-miterlimit: 4; fill: rgb(250,108,26); fill-rule: nonzero; opacity: 1;" vector-effect="non-scaling-stroke"  x="-3.79" y="-13.82" rx="0" ry="0" width="7.58" height="27.64" />
</g>
<g transform="matrix(1 0 0 1 641.19 561.69)"  >
<path style="stroke: none; stroke-width: 1; stroke-dasharray: none; stroke-linecap: butt; stroke-dashoffset: 0; stroke-linejoin: miter; stroke-miterlimit: 4; fill: rgb(250,108,26); fill-rule: nonzero; opacity: 1;" vector-effect="non-scaling-stroke"  transform=" translate(-402.21, -178.08)" d="M 417.29 185.38 L 385.44 179.26 C 386.29 176.44 387.13 173.62 387.98 170.79 L 418.98 176.79 Z" stroke-linecap="round" />
</g>
<g transform="matrix(1 0 0 1 547.54 522.01)"  >
<path style="stroke: none; stroke-width: 1; stroke-dasharray: none; stroke-linecap: butt; stroke-dashoffset: 0; stroke-linejoin: miter; stroke-miterlimit: 4; fill: rgb(250,108,26); fill-rule: nonzero; opacity: 1;" vector-effect="non-scaling-stroke"  transform=" translate(-308.56, -138.41)" d="M 322.86 71.25 L 279.86 200.76 L 286.05 202.82 L 286.05 202.82 C 286.05 202.75 285.7 202.64 284.96000000000004 202.48 L 314.36 113.55999999999999 L 319.44 115.07999999999998 L 289.3 203.91 L 289.25 203.91 L 294.25 205.56 L 337.25 76 Z M 326.75 99.63 C 326.7445015594288 102.00806601950667 324.81806601950666 103.93450155942877 322.44 103.94 L 321.73 103.94 C 319.35193398049336 103.93450155942877 317.42549844057123 102.00806601950667 317.42 99.63 L 317.42 98.92 C 317.42549844057123 96.54193398049333 319.35193398049336 94.61549844057123 321.73 94.61 L 322.44 94.61 C 324.81806601950666 94.61549844057123 326.7445015594288 96.54193398049333 326.75 98.92 Z M 326.4 90.32 L 326 90.32 C 324.8525331210682 90.32265618045138 323.75115344901224 89.8686874993565 322.9388321907788 89.05824227174256 C 322.1265109325454 88.2477970441286 321.66999692571295 87.14746995321477 321.67 86 L 321.67 85.6 C 321.6726490974389 84.45426381575301 322.1303332053284 83.35650669463092 322.94236639096346 82.5482242396454 C 323.75439957659853 81.7399417846599 324.8542638299643 81.28734476328547 326 81.29 L 326.42 81.29 C 328.7964410947291 81.29551379927504 330.7200063965275 83.22355250875202 330.72 85.60000000000001 L 330.72 86 C 330.72266330842166 87.14654963199555 330.268377061884 88.24690664782094 329.45764185485245 89.05764185485245 C 328.6469066478209 89.86837706188398 327.54654963199556 90.32266330842164 326.4 90.32 Z" stroke-linecap="round" />
</g>
</svg>