<svg id="Camada_1" data-name="Camada 1" xmlns="http://www.w3.org/2000/svg" viewBox="0 0 595.28 296.12"><defs><style>.cls-1{fill:#fa6c1a;}</style></defs><title>Logo_palavrearPrancheta 1</title><path class="cls-1" d="M43.58,199.91,35,198.45,52.73,94.81l1.68-1c15.74-9.63,33.73-9.49,41.83.33,5.15,6.24,4.45,14.27,4.32,15.41C98.85,124,81.35,136.63,56.74,140.44l-.31-7.61c20-4.27,34.44-13.59,35.52-24.25.08-.79.52-5.44-2.39-9-4.44-5.38-16.3-6.48-29,.57Z"/><path class="cls-1" d="M77.62,179.87l-7.33-4.62,45.92-72.86,3.55,6.38a195.37,195.37,0,0,1,15.88,37.05,195.43,195.43,0,0,1,6.85,30.52l-8.57,1.22a187.53,187.53,0,0,0-6.55-29.17,187.1,187.1,0,0,0-11.71-28.89Z"/><path class="cls-1" d="M97.23,148.49,95.45,140c7.22-1.51,14.56-2.85,21.84-4,4.51-.71,9.08-1.36,13.6-1.92l1.07,8.59c-4.42.56-8.91,1.19-13.33,1.88C111.5,145.69,104.3,147,97.23,148.49Z"/><path class="cls-1" d="M181,181.31l-7.33-4.62,45.91-72.86,3.56,6.37A196.38,196.38,0,0,1,239,147.26a195.18,195.18,0,0,1,6.85,30.52L237.29,179a186.11,186.11,0,0,0-6.54-29.17A187.1,187.1,0,0,0,219,120.94Z"/><path class="cls-1" d="M200.6,149.93l-1.77-8.48c7.21-1.51,14.56-2.85,21.83-4,4.51-.7,9.09-1.35,13.6-1.91l1.08,8.59c-4.43.55-8.91,1.19-13.33,1.88C214.88,147.13,207.68,148.45,200.6,149.93Z"/><path class="cls-1" d="M434.92,181.31l-7.33-4.62,45.92-72.86,3.55,6.38a194.68,194.68,0,0,1,22.73,67.57L491.22,179A186.16,186.16,0,0,0,473,120.94Z"/><path class="cls-1" d="M454.53,149.93l-1.78-8.48c7.22-1.51,14.56-2.85,21.84-4,4.5-.7,9.08-1.35,13.6-1.91l1.07,8.59c-4.43.55-8.91,1.19-13.33,1.88C468.8,147.13,461.6,148.45,454.53,149.93Z"/><path class="cls-1" d="M156.26,212.12l2.28-112.36,8.66.17-2,98a101.05,101.05,0,0,1,44.42-8.35l-.34,8.65a92.74,92.74,0,0,0-46.54,10.47Z"/><path class="cls-1" d="M256,202.48l-.95-147H279l-1,146.61ZM261.62,62l.87,133.89,9.07-.16L272.43,62Z"/><rect class="cls-1" x="261.59" y="72.77" width="11.22" height="6.71" transform="translate(-0.51 1.81) rotate(-0.39)"/><rect class="cls-1" x="261.59" y="94.89" width="11.22" height="6.71" transform="translate(-0.66 1.81) rotate(-0.39)"/><path class="cls-1" d="M334.1,194.72,326,193.27,342.87,98.8l1.36-1a38.67,38.67,0,0,1,19.83-7.3c4.57-.31,10.24-.71,15.42,3.09,7.24,5.32,8.85,15.53,6.69,22.88-2.27,7.73-8.16,11.5-15,15.87a60.43,60.43,0,0,1-13.46,6.4,176.29,176.29,0,0,1,16.4,44.32l-8,1.8c-2.05-8-4.06-14.63-5.64-19.55-5.44-16.88-8.76-22.55-12.41-27.08a55,55,0,0,0-5.78-6.11,37.45,37.45,0,0,0,8.4.08c10.23-1.07,25-7,27.61-18,1-4.54.35-11-3.67-13.94-2.75-2-6.28-1.78-10-1.53a30.21,30.21,0,0,0-14.26,4.88Z"/><path class="cls-1" d="M517.78,195l-8.09-1.44,16.86-94.48,1.36-1a38.69,38.69,0,0,1,19.82-7.31c4.57-.31,10.25-.7,15.43,3.1,7.24,5.31,8.84,15.53,6.69,22.87-2.27,7.73-8.16,11.5-15,15.87a59.86,59.86,0,0,1-13.47,6.4,176.22,176.22,0,0,1,16.41,44.32l-8,1.8c-2-8-4-14.63-5.64-19.55-5.43-16.87-8.75-22.54-12.4-27.08a53.8,53.8,0,0,0-5.78-6.1,38.19,38.19,0,0,0,8.4.07c10.23-1.06,25-6.94,27.61-18,1-4.53.34-11-3.67-13.94-2.75-2-6.28-1.78-10-1.52A30.19,30.19,0,0,0,534,103.84Z"/><path class="cls-1" d="M394,180.93l-8.39-2.14,21.37-84.21,2.63-.56A63.62,63.62,0,0,1,433,93.41a62.06,62.06,0,0,1,9.63,2.36L440,104a54,54,0,0,0-26-2Z"/><rect class="cls-1" x="414.49" y="116.83" width="7.58" height="27.64" transform="translate(244.99 533.14) rotate(-84.05)"/><path class="cls-1" d="M417.29,185.38l-31.85-6.12c.85-2.82,1.69-5.64,2.54-8.47l31,6Z"/><path class="cls-1" d="M322.86,71.25l-43,129.51,6.19,2.06v0c0-.07-.35-.18-1.09-.34l29.4-88.92,5.08,1.52L289.3,203.91l-.05,0,5,1.65L337.25,76Zm3.89,28.38a4.32,4.32,0,0,1-4.31,4.31h-.71a4.32,4.32,0,0,1-4.31-4.31v-.71a4.32,4.32,0,0,1,4.31-4.31h.71a4.32,4.32,0,0,1,4.31,4.31Zm-.35-9.31H326A4.32,4.32,0,0,1,321.67,86V85.6A4.32,4.32,0,0,1,326,81.29h.42a4.31,4.31,0,0,1,4.3,4.31V86A4.31,4.31,0,0,1,326.4,90.32Z"/><path class="cls-1" d="M34.25,238.12a11.31,11.31,0,0,0-.25,3.33,6.28,6.28,0,0,0,.79,2.72A4.91,4.91,0,0,0,36.7,246a6.12,6.12,0,0,0,3,.69,8.13,8.13,0,0,0,4.5-1.3,8.26,8.26,0,0,0,3.12-3.68h2.81a18.63,18.63,0,0,1-1.82,2.87,12,12,0,0,1-2.37,2.3,10.42,10.42,0,0,1-3,1.53,12.13,12.13,0,0,1-3.73.54,9.23,9.23,0,0,1-4.29-.88,6.3,6.3,0,0,1-2.6-2.4,7.9,7.9,0,0,1-1-3.61,17.29,17.29,0,0,1,2-8.94,15,15,0,0,1,2.74-3.66A12.28,12.28,0,0,1,39.71,227a10.7,10.7,0,0,1,4.38-.9c3,0,5.11,1,6.38,3.08s1.48,5,.61,8.94ZM48.86,236a9.64,9.64,0,0,0,.19-3,5.9,5.9,0,0,0-.77-2.43A4.42,4.42,0,0,0,46.47,229a6,6,0,0,0-2.84-.61,7.41,7.41,0,0,0-3.08.63A9.34,9.34,0,0,0,38,230.66a11.15,11.15,0,0,0-2,2.43A13.62,13.62,0,0,0,34.71,236Z"/><path class="cls-1" d="M56.69,241.59q0,2.81,1.32,4a6.07,6.07,0,0,0,4.13,1.15,8.35,8.35,0,0,0,2.45-.33,6.71,6.71,0,0,0,1.84-.9,5.45,5.45,0,0,0,1.26-1.28,4.18,4.18,0,0,0,.64-1.51,2.31,2.31,0,0,0-.52-2.36,5.92,5.92,0,0,0-2.32-1.22,30.64,30.64,0,0,0-3.19-.75,14.59,14.59,0,0,1-3.14-.94,5,5,0,0,1-2.2-1.8,4.31,4.31,0,0,1-.31-3.31,7.3,7.3,0,0,1,2.93-4.46,9.8,9.8,0,0,1,6-1.74,8,8,0,0,1,5.36,1.57c1.23,1.05,1.74,2.8,1.55,5.25H69.93c.11-1.67-.28-2.85-1.18-3.53a5.87,5.87,0,0,0-3.68-1,6.68,6.68,0,0,0-3.88,1,4.2,4.2,0,0,0-1.82,2.7,2.29,2.29,0,0,0,.21,1.8,3.59,3.59,0,0,0,1.34,1.17,9.43,9.43,0,0,0,2,.77l2.41.63a24.67,24.67,0,0,1,2.39.74,6.71,6.71,0,0,1,2,1.11A3.92,3.92,0,0,1,71,240a4.78,4.78,0,0,1,0,2.6,7,7,0,0,1-1.24,2.74,7.61,7.61,0,0,1-2.26,2,11.22,11.22,0,0,1-3.06,1.2,16.14,16.14,0,0,1-3.62.39,8.7,8.7,0,0,1-3.29-.56,5.42,5.42,0,0,1-3.35-3.92,7.33,7.33,0,0,1-.06-2.89Z"/><path class="cls-1" d="M93.25,233.51a5.6,5.6,0,0,0-1.46-3.79,5.18,5.18,0,0,0-3.86-1.36,7.36,7.36,0,0,0-3.47.8,9.31,9.31,0,0,0-2.73,2.11,11.82,11.82,0,0,0-1.92,3,17.45,17.45,0,0,0-1.13,3.33,13.39,13.39,0,0,0-.32,3.35,7.74,7.74,0,0,0,.67,2.93,4.91,4.91,0,0,0,1.83,2.08,5.87,5.87,0,0,0,3.18.77,7.67,7.67,0,0,0,4.83-1.55,9.16,9.16,0,0,0,3-4.27h2.68a15.43,15.43,0,0,1-1.76,3.29,11.57,11.57,0,0,1-2.43,2.55,10.62,10.62,0,0,1-3.1,1.66,11.58,11.58,0,0,1-3.76.58,9.24,9.24,0,0,1-4.3-.88,6.28,6.28,0,0,1-2.59-2.4,8.08,8.08,0,0,1-1-3.63,16.83,16.83,0,0,1,.38-4.48,15.8,15.8,0,0,1,1.55-4.33,15.13,15.13,0,0,1,2.68-3.67A12.42,12.42,0,0,1,83.89,227a10.7,10.7,0,0,1,4.5-.94,8.14,8.14,0,0,1,5.72,1.8c1.3,1.2,1.86,3.07,1.7,5.61Z"/><path class="cls-1" d="M106.53,249a9.83,9.83,0,0,1-3.75-.75,6.57,6.57,0,0,1-2.72-2.14,7.83,7.83,0,0,1-1.41-3.56,14,14,0,0,1,.26-5,17.11,17.11,0,0,1,1.57-4.46,13.8,13.8,0,0,1,2.65-3.62A12.22,12.22,0,0,1,106.8,227a11.38,11.38,0,0,1,4.58-.9,9,9,0,0,1,4.25.9,6.56,6.56,0,0,1,2.62,2.43,8.07,8.07,0,0,1,1.09,3.62,15.55,15.55,0,0,1-.34,4.48,16.34,16.34,0,0,1-1.71,4.69,14.26,14.26,0,0,1-2.81,3.6,12,12,0,0,1-3.66,2.33A11.52,11.52,0,0,1,106.53,249Zm9.79-11.43a16,16,0,0,0,.34-3.6A6.86,6.86,0,0,0,116,231a4.55,4.55,0,0,0-1.84-2,6.55,6.55,0,0,0-3.25-.71,8,8,0,0,0-3.54.77,9.4,9.4,0,0,0-2.74,2.06,11.09,11.09,0,0,0-1.92,2.93,16.67,16.67,0,0,0-1.14,3.41,13.91,13.91,0,0,0-.29,3.71,6.94,6.94,0,0,0,.8,2.91A4.59,4.59,0,0,0,104,246a6.3,6.3,0,0,0,3,.67,8,8,0,0,0,3.54-.77,8.92,8.92,0,0,0,2.72-2.08,11.62,11.62,0,0,0,1.9-2.93A15.7,15.7,0,0,0,116.32,237.53Z"/><path class="cls-1" d="M121.69,248.38l6.4-30.15h2.52l-6.41,30.15Z"/><path class="cls-1" d="M143.25,235.73c.48-.06,1.05-.14,1.74-.25a8.39,8.39,0,0,0,1.74-.46,1.74,1.74,0,0,0,1-1,7.94,7.94,0,0,0,.4-1.27,4.64,4.64,0,0,0,.08-1.76,2.61,2.61,0,0,0-.65-1.38,3.54,3.54,0,0,0-1.46-.93,7.41,7.41,0,0,0-2.41-.33,9.29,9.29,0,0,0-4.52,1,6.35,6.35,0,0,0-2.85,3.85h-2.56a10,10,0,0,1,1.58-3.29,8.87,8.87,0,0,1,2.4-2.22,10.21,10.21,0,0,1,3-1.25,14.27,14.27,0,0,1,3.41-.4,12.23,12.23,0,0,1,3,.35,5.61,5.61,0,0,1,2.26,1.14,3.88,3.88,0,0,1,1.23,2.07,7.12,7.12,0,0,1,0,3.18l-2.51,11.81c-.23,1-.19,1.6.1,1.86s1,.21,2.16-.19l-.42,2-.9.25a4,4,0,0,1-1.15.17,5.06,5.06,0,0,1-1.09-.12,1.46,1.46,0,0,1-1.38-1.16,5.81,5.81,0,0,1,0-2.07,14.69,14.69,0,0,1-4.21,2.68,11.92,11.92,0,0,1-4.63.92,9.15,9.15,0,0,1-2.66-.37,5.27,5.27,0,0,1-2.07-1.18,4.25,4.25,0,0,1-1.17-1.94,5.77,5.77,0,0,1,0-2.75q1.13-5.52,9-6.53Zm4,1.26a15.18,15.18,0,0,1-3.41.88q-1.66.21-3.33.33a11,11,0,0,0-4.8,1.3,4.76,4.76,0,0,0-2.32,3.31,3.26,3.26,0,0,0,0,1.74,2.75,2.75,0,0,0,.82,1.21,3.53,3.53,0,0,0,1.36.71,5.76,5.76,0,0,0,1.67.23,11.75,11.75,0,0,0,3-.38,9.89,9.89,0,0,0,2.76-1.15,7.94,7.94,0,0,0,2.2-2,7.18,7.18,0,0,0,1.3-2.82Z"/><path class="cls-1" d="M188.69,218.23h2.51l-6.41,30.15h-2.51l.8-3.81H183a8.54,8.54,0,0,1-1.8,1.9,11.44,11.44,0,0,1-2.18,1.36,11.85,11.85,0,0,1-2.28.84,8.7,8.7,0,0,1-2.2.29,9.2,9.2,0,0,1-4.31-.88,5.83,5.83,0,0,1-2.51-2.4,8.32,8.32,0,0,1-1-3.63,17.76,17.76,0,0,1,.4-4.48,20.2,20.2,0,0,1,1.51-4.35,13.69,13.69,0,0,1,2.53-3.67,12.14,12.14,0,0,1,3.56-2.51,10.57,10.57,0,0,1,4.5-.94,8.77,8.77,0,0,1,4.21,1,5.59,5.59,0,0,1,2.66,3Zm-4.11,19.22a12.09,12.09,0,0,0,.23-3.5,7.51,7.51,0,0,0-.81-2.89,5.2,5.2,0,0,0-1.87-2,5.42,5.42,0,0,0-2.91-.73,8.12,8.12,0,0,0-3.56.77,9.3,9.3,0,0,0-2.8,2.12,11.61,11.61,0,0,0-2,3.12,15.32,15.32,0,0,0-1.13,3.83,10.4,10.4,0,0,0-.19,3.62,6.12,6.12,0,0,0,1,2.66,4.81,4.81,0,0,0,2,1.66,6.84,6.84,0,0,0,2.83.56,7.63,7.63,0,0,0,3.29-.71,9.08,9.08,0,0,0,2.72-2,11.34,11.34,0,0,0,2-2.93A16.41,16.41,0,0,0,184.58,237.45Z"/><path class="cls-1" d="M194.84,238.12a11.66,11.66,0,0,0-.25,3.33,6.29,6.29,0,0,0,.8,2.72,4.88,4.88,0,0,0,1.9,1.84,6.16,6.16,0,0,0,3,.69,8.13,8.13,0,0,0,4.5-1.3,8.38,8.38,0,0,0,3.12-3.68h2.81a18.68,18.68,0,0,1-1.83,2.87,12,12,0,0,1-2.36,2.3,10.48,10.48,0,0,1-3,1.53,12.07,12.07,0,0,1-3.72.54,9.24,9.24,0,0,1-4.3-.88,6.28,6.28,0,0,1-2.59-2.4,8,8,0,0,1-1-3.61,16.75,16.75,0,0,1,.38-4.46,16.57,16.57,0,0,1,1.63-4.48,15.23,15.23,0,0,1,2.74-3.66,12.32,12.32,0,0,1,3.65-2.47,10.65,10.65,0,0,1,4.37-.9c3,0,5.12,1,6.39,3.08s1.47,5,.61,8.94Zm14.62-2.1a10,10,0,0,0,.19-3,5.76,5.76,0,0,0-.78-2.43,4.46,4.46,0,0,0-1.8-1.63,6.06,6.06,0,0,0-2.85-.61,7.39,7.39,0,0,0-3.07.63,9.55,9.55,0,0,0-2.54,1.67,11.45,11.45,0,0,0-2,2.43A14.12,14.12,0,0,0,195.3,236Z"/><path class="cls-1" d="M226.42,248.38l6.4-30.15h2.52l-6.41,30.15Z"/><path class="cls-1" d="M235.59,248.38l4.6-21.7h2.52l-4.61,21.7Zm3.22-24,5.91-5.82h3.22l-7,5.82Z"/><path class="cls-1" d="M247.15,248.38h-2.52l4.61-21.7h2.51l-.63,3a21.61,21.61,0,0,1,3.67-2.6,8.28,8.28,0,0,1,4.08-1,8.83,8.83,0,0,1,3.58.69,4.61,4.61,0,0,1,2.37,2.41,4.71,4.71,0,0,1,.44,2.41,20.92,20.92,0,0,1-.4,2.57l-3,14.2h-2.51l3-14.16c.42-1.95.3-3.42-.36-4.39s-2-1.47-4-1.47a6.8,6.8,0,0,0-2.22.36,8.11,8.11,0,0,0-1.94.94,8.82,8.82,0,0,0-1.62,1.34,7.93,7.93,0,0,0-1.17,1.59,10.71,10.71,0,0,0-.88,2c-.2.64-.38,1.34-.54,2.09Z"/><path class="cls-1" d="M289.27,226.68h2.52l-4.15,19.6a22.26,22.26,0,0,1-1.32,4.17A11.61,11.61,0,0,1,284,254a10.85,10.85,0,0,1-3.63,2.4,13.61,13.61,0,0,1-5.25.9,11.38,11.38,0,0,1-4-.6,7,7,0,0,1-2.49-1.53,4.73,4.73,0,0,1-1.22-2,4.83,4.83,0,0,1-.14-2.08H270a3.81,3.81,0,0,0,.46,2,3.35,3.35,0,0,0,1.23,1.22,5.67,5.67,0,0,0,1.78.61,13.29,13.29,0,0,0,2.14.16,9.4,9.4,0,0,0,4.29-.88,8.2,8.2,0,0,0,2.85-2.3,10.94,10.94,0,0,0,1.72-3.22,30.33,30.33,0,0,0,1-3.69,10.5,10.5,0,0,1-4,3,11.56,11.56,0,0,1-4.65,1,8.1,8.1,0,0,1-4.1-.94,6.39,6.39,0,0,1-2.49-2.51,8.93,8.93,0,0,1-1-3.67,15.24,15.24,0,0,1,.36-4.35,19.53,19.53,0,0,1,1.51-4.48,13.13,13.13,0,0,1,2.51-3.62,10.9,10.9,0,0,1,3.54-2.41,11.58,11.58,0,0,1,4.67-.88,7.66,7.66,0,0,1,2.07.29,8.3,8.3,0,0,1,1.93.84,6.13,6.13,0,0,1,1.59,1.38,5.59,5.59,0,0,1,1,1.89h.09ZM287,237.61a12.71,12.71,0,0,0,.29-3.66,7.23,7.23,0,0,0-.79-2.93,5.06,5.06,0,0,0-1.89-2,5.83,5.83,0,0,0-3-.71,8.39,8.39,0,0,0-3.06.57,8.85,8.85,0,0,0-2.7,1.65,10.48,10.48,0,0,0-2.13,2.66,13,13,0,0,0-1.37,3.62,14.81,14.81,0,0,0-.45,3.83,7.24,7.24,0,0,0,.69,3.12,4.94,4.94,0,0,0,1.9,2.12,6.13,6.13,0,0,0,3.23.77,7.27,7.27,0,0,0,3.22-.73,10,10,0,0,0,2.72-2,11.82,11.82,0,0,0,2.07-2.89A13,13,0,0,0,287,237.61Z"/><path class="cls-1" d="M312.81,226.68h2.51l-4.61,21.7H308.2l.63-3c-.42.39-.88.8-1.38,1.22a11,11,0,0,1-3.79,2,9,9,0,0,1-2.58.35,8.74,8.74,0,0,1-3.52-.6,4.46,4.46,0,0,1-2-1.7,5.48,5.48,0,0,1-.75-2.53,11.58,11.58,0,0,1,.29-3.17l3-14.28h2.51l-3,14.24a5.64,5.64,0,0,0,.39,4.3c.66,1,2,1.48,4,1.48a7,7,0,0,0,2.91-.61,7.82,7.82,0,0,0,2.43-1.69,10.46,10.46,0,0,0,1.84-2.6,12.82,12.82,0,0,0,1.15-3.31Z"/><path class="cls-1" d="M329.43,235.73c.48-.06,1.06-.14,1.74-.25a8.39,8.39,0,0,0,1.74-.46,1.74,1.74,0,0,0,1-1,7.94,7.94,0,0,0,.4-1.27,4.64,4.64,0,0,0,.08-1.76,2.61,2.61,0,0,0-.65-1.38,3.47,3.47,0,0,0-1.46-.93,7.41,7.41,0,0,0-2.41-.33,9.29,9.29,0,0,0-4.52,1,6.35,6.35,0,0,0-2.85,3.85h-2.55A9.76,9.76,0,0,1,321.5,230a8.87,8.87,0,0,1,2.4-2.22,10.31,10.31,0,0,1,3-1.25,14.27,14.27,0,0,1,3.41-.4,12.23,12.23,0,0,1,3,.35,5.61,5.61,0,0,1,2.26,1.14,3.88,3.88,0,0,1,1.23,2.07,7.12,7.12,0,0,1,0,3.18l-2.51,11.81c-.22,1-.19,1.6.1,1.86s1,.21,2.16-.19l-.42,2-.9.25a4,4,0,0,1-1.15.17,5.06,5.06,0,0,1-1.09-.12,1.46,1.46,0,0,1-1.38-1.16,5.81,5.81,0,0,1,0-2.07,14.55,14.55,0,0,1-4.21,2.68,11.9,11.9,0,0,1-4.62.92,9.1,9.1,0,0,1-2.66-.37,5.24,5.24,0,0,1-2.08-1.18,4.25,4.25,0,0,1-1.17-1.94,5.77,5.77,0,0,1,0-2.75q1.14-5.52,9-6.53Zm4,1.26a15.18,15.18,0,0,1-3.41.88q-1.67.21-3.33.33a11,11,0,0,0-4.8,1.3,4.79,4.79,0,0,0-2.32,3.31,3.26,3.26,0,0,0,0,1.74,2.75,2.75,0,0,0,.82,1.21,3.53,3.53,0,0,0,1.36.71,5.76,5.76,0,0,0,1.67.23,11.75,11.75,0,0,0,3-.38,9.89,9.89,0,0,0,2.76-1.15,7.8,7.8,0,0,0,2.2-2,7.18,7.18,0,0,0,1.3-2.82Z"/><path class="cls-1" d="M352.72,256.92H350.2l6.41-30.24h2.51l-.79,3.82h.08a9.45,9.45,0,0,1,1.8-1.89,11.37,11.37,0,0,1,2.18-1.38,12.56,12.56,0,0,1,2.28-.84,10,10,0,0,1,6.51.59,5.88,5.88,0,0,1,2.52,2.41,8.41,8.41,0,0,1,.94,3.62,17.27,17.27,0,0,1-.4,4.48,19.67,19.67,0,0,1-1.51,4.35,13.69,13.69,0,0,1-2.53,3.67,12,12,0,0,1-3.56,2.51,10.54,10.54,0,0,1-4.5.94,8.77,8.77,0,0,1-4.21-1,5.59,5.59,0,0,1-2.66-3Zm4.1-19.31a12.09,12.09,0,0,0-.23,3.5,7.19,7.19,0,0,0,.84,2.89,5.39,5.39,0,0,0,1.88,2,5.47,5.47,0,0,0,2.91.73,8.16,8.16,0,0,0,3.54-.77,9,9,0,0,0,2.81-2.12,12,12,0,0,0,2-3.12,15.21,15.21,0,0,0,1.14-3.83c.55-2.74.3-4.84-.78-6.3a5.54,5.54,0,0,0-4.79-2.2,7.75,7.75,0,0,0-3.29.71,9.18,9.18,0,0,0-2.72,2,11.15,11.15,0,0,0-2,2.93A15.5,15.5,0,0,0,356.82,237.61Z"/><path class="cls-1" d="M385.8,249a9.83,9.83,0,0,1-3.75-.75,6.57,6.57,0,0,1-2.72-2.14,7.94,7.94,0,0,1-1.41-3.56,14,14,0,0,1,.26-5,17.11,17.11,0,0,1,1.57-4.46,13.62,13.62,0,0,1,2.66-3.62,12.18,12.18,0,0,1,3.66-2.45,11.39,11.39,0,0,1,4.59-.9,9,9,0,0,1,4.25.9,6.53,6.53,0,0,1,2.61,2.43,8.07,8.07,0,0,1,1.09,3.62,15.89,15.89,0,0,1-.33,4.48,16.65,16.65,0,0,1-1.72,4.69,14.26,14.26,0,0,1-2.81,3.6,11.87,11.87,0,0,1-3.66,2.33A11.44,11.44,0,0,1,385.8,249Zm9.8-11.43a16.51,16.51,0,0,0,.33-3.6,6.86,6.86,0,0,0-.65-2.91,4.55,4.55,0,0,0-1.84-2,6.52,6.52,0,0,0-3.25-.71,7.92,7.92,0,0,0-3.53.77,9.32,9.32,0,0,0-2.75,2.06,11.09,11.09,0,0,0-1.92,2.93,16.05,16.05,0,0,0-1.13,3.41,13.54,13.54,0,0,0-.3,3.71,7.09,7.09,0,0,0,.8,2.91,4.65,4.65,0,0,0,1.9,1.88,6.3,6.3,0,0,0,3,.67,8,8,0,0,0,3.54-.77,8.81,8.81,0,0,0,2.72-2.08,11.94,11.94,0,0,0,1.91-2.93A16.27,16.27,0,0,0,395.6,237.53Z"/><path class="cls-1" d="M403.22,248.38h-2.51l4.6-21.7h2.51l-.87,4.07H407a9.84,9.84,0,0,1,3.48-3.63,9.54,9.54,0,0,1,4.6-1l-.59,2.72a8.16,8.16,0,0,0-3.62.67,7.81,7.81,0,0,0-2.59,1.93,10,10,0,0,0-1.76,2.87,18.94,18.94,0,0,0-1.07,3.45Z"/><path class="cls-1" d="M422.15,248.46c-.31.06-.74.15-1.28.29a7,7,0,0,1-1.74.21,3.27,3.27,0,0,1-2.66-.94c-.51-.63-.61-1.75-.27-3.37l3.35-15.87h-3.06l.46-2.1H420l1.3-6h2.51l-1.3,6h4.07l-.47,2.1h-4.06l-3.14,14.86c-.11.54-.19,1-.25,1.39a2,2,0,0,0,.06,1,.94.94,0,0,0,.55.54,3,3,0,0,0,1.19.17,7.26,7.26,0,0,0,1-.08l1.06-.21Z"/><path class="cls-1" d="M445.47,226.68H448l-4.6,21.7h-2.52l.63-3c-.42.39-.88.8-1.38,1.22a10.78,10.78,0,0,1-3.79,2,9,9,0,0,1-2.57.35,8.67,8.67,0,0,1-3.52-.6,4.36,4.36,0,0,1-2-1.7,5.37,5.37,0,0,1-.76-2.53,12,12,0,0,1,.3-3.17l3-14.28h2.52l-3,14.24a5.63,5.63,0,0,0,.4,4.3c.65,1,2,1.48,4,1.48a7,7,0,0,0,2.91-.61A8.06,8.06,0,0,0,440,244.4a10.72,10.72,0,0,0,1.84-2.6,13.2,13.2,0,0,0,1.15-3.31Z"/><path class="cls-1" d="M470.81,226.68h2.51l-4.15,19.6a20.88,20.88,0,0,1-1.32,4.17,11.43,11.43,0,0,1-2.32,3.5,10.8,10.8,0,0,1-3.62,2.4,13.67,13.67,0,0,1-5.26.9,11.42,11.42,0,0,1-4-.6,7,7,0,0,1-2.49-1.53,4.82,4.82,0,0,1-1.36-4.11h2.68a3.81,3.81,0,0,0,.46,2,3.3,3.3,0,0,0,1.24,1.22,5.58,5.58,0,0,0,1.78.61,13.16,13.16,0,0,0,2.13.16,9.41,9.41,0,0,0,4.3-.88,8.26,8.26,0,0,0,2.84-2.3,10.71,10.71,0,0,0,1.72-3.22,30.33,30.33,0,0,0,1-3.69,10.47,10.47,0,0,1-4,3,11.64,11.64,0,0,1-4.65,1,8.12,8.12,0,0,1-4.11-.94,6.39,6.39,0,0,1-2.49-2.51,8.78,8.78,0,0,1-1-3.67,15.22,15.22,0,0,1,.35-4.35,20,20,0,0,1,1.51-4.48,13.35,13.35,0,0,1,2.51-3.62,11.12,11.12,0,0,1,3.54-2.41,11.61,11.61,0,0,1,4.67-.88,7.66,7.66,0,0,1,2.07.29,8.12,8.12,0,0,1,1.93.84,6.13,6.13,0,0,1,1.59,1.38,5.79,5.79,0,0,1,1,1.89H470Zm-2.31,10.93a13.1,13.1,0,0,0,.3-3.66A7.23,7.23,0,0,0,468,231a5,5,0,0,0-1.88-2,5.84,5.84,0,0,0-3-.71,8.3,8.3,0,0,0-3.05.57,8.78,8.78,0,0,0-2.71,1.65,10.48,10.48,0,0,0-2.13,2.66,13,13,0,0,0-1.36,3.62,14.43,14.43,0,0,0-.46,3.83,7.54,7.54,0,0,0,.69,3.12,5,5,0,0,0,1.9,2.12,6.15,6.15,0,0,0,3.23.77,7.24,7.24,0,0,0,3.22-.73,9.7,9.7,0,0,0,2.72-2,11.86,11.86,0,0,0,2.08-2.89A13.36,13.36,0,0,0,468.5,237.61Z"/><path class="cls-1" d="M494.34,226.68h2.51l-4.6,21.7h-2.51l.62-3c-.42.39-.88.8-1.38,1.22a10.78,10.78,0,0,1-3.79,2,8.92,8.92,0,0,1-2.57.35,8.71,8.71,0,0,1-3.52-.6,4.41,4.41,0,0,1-2-1.7,5.25,5.25,0,0,1-.75-2.53,11.58,11.58,0,0,1,.29-3.17l3-14.28h2.52l-3,14.24a5.63,5.63,0,0,0,.4,4.3c.65,1,2,1.48,4,1.48a7,7,0,0,0,2.91-.61,8.06,8.06,0,0,0,2.43-1.69,10.72,10.72,0,0,0,1.84-2.6,13.2,13.2,0,0,0,1.15-3.31Z"/><path class="cls-1" d="M502.05,238.12a11.31,11.31,0,0,0-.25,3.33,6.28,6.28,0,0,0,.79,2.72A4.91,4.91,0,0,0,504.5,246a6.12,6.12,0,0,0,3,.69,8.13,8.13,0,0,0,4.5-1.3,8.26,8.26,0,0,0,3.12-3.68H518a18.63,18.63,0,0,1-1.82,2.87,12,12,0,0,1-2.37,2.3,10.42,10.42,0,0,1-3,1.53A12.13,12.13,0,0,1,507,249a9.23,9.23,0,0,1-4.29-.88,6.3,6.3,0,0,1-2.6-2.4,7.9,7.9,0,0,1-1-3.61,17.29,17.29,0,0,1,2-8.94,15,15,0,0,1,2.74-3.66,12.28,12.28,0,0,1,3.64-2.47,10.7,10.7,0,0,1,4.38-.9c3,0,5.11,1,6.38,3.08s1.48,5,.61,8.94Zm14.61-2.1a9.35,9.35,0,0,0,.19-3,5.75,5.75,0,0,0-.77-2.43,4.42,4.42,0,0,0-1.81-1.63,6,6,0,0,0-2.84-.61,7.41,7.41,0,0,0-3.08.63,9.34,9.34,0,0,0-2.53,1.67,11.15,11.15,0,0,0-2,2.43,13.62,13.62,0,0,0-1.34,2.93Z"/><path class="cls-1" d="M524.49,241.59q0,2.81,1.32,4a6.07,6.07,0,0,0,4.13,1.15,8.35,8.35,0,0,0,2.45-.33,6.71,6.71,0,0,0,1.84-.9,5.45,5.45,0,0,0,1.26-1.28,4.38,4.38,0,0,0,.65-1.51,2.33,2.33,0,0,0-.53-2.36,5.92,5.92,0,0,0-2.32-1.22,30.64,30.64,0,0,0-3.19-.75,14.59,14.59,0,0,1-3.14-.94,5,5,0,0,1-2.19-1.8,4.26,4.26,0,0,1-.32-3.31,7.3,7.3,0,0,1,2.93-4.46,9.8,9.8,0,0,1,6-1.74,8,8,0,0,1,5.36,1.57q1.85,1.58,1.55,5.25h-2.55c.11-1.67-.28-2.85-1.18-3.53a5.87,5.87,0,0,0-3.68-1,6.63,6.63,0,0,0-3.87,1,4.18,4.18,0,0,0-1.83,2.7,2.34,2.34,0,0,0,.21,1.8,3.59,3.59,0,0,0,1.34,1.17,9.43,9.43,0,0,0,2,.77l2.41.63a24.67,24.67,0,0,1,2.39.74,6.71,6.71,0,0,1,2,1.11,3.92,3.92,0,0,1,1.21,1.73,4.78,4.78,0,0,1,.05,2.6,7,7,0,0,1-1.24,2.74,7.49,7.49,0,0,1-2.26,2,11.22,11.22,0,0,1-3.06,1.2,16.14,16.14,0,0,1-3.62.39,8.7,8.7,0,0,1-3.29-.56,5.42,5.42,0,0,1-3.35-3.92,7.33,7.33,0,0,1-.06-2.89Z"/><path class="cls-1" d="M555.19,235.73c.47-.06,1-.14,1.74-.25a8.11,8.11,0,0,0,1.73-.46,1.72,1.72,0,0,0,1-1,9.1,9.1,0,0,0,.4-1.27,4.85,4.85,0,0,0,.08-1.76,2.61,2.61,0,0,0-.65-1.38,3.58,3.58,0,0,0-1.47-.93,7.34,7.34,0,0,0-2.4-.33,9.36,9.36,0,0,0-4.53,1,6.37,6.37,0,0,0-2.84,3.85h-2.56a10,10,0,0,1,1.57-3.29,9.05,9.05,0,0,1,2.41-2.22,10.1,10.1,0,0,1,3-1.25,14.27,14.27,0,0,1,3.41-.4,12.09,12.09,0,0,1,3,.35,5.65,5.65,0,0,1,2.27,1.14,3.94,3.94,0,0,1,1.23,2.07,7.27,7.27,0,0,1,0,3.18l-2.51,11.81c-.23,1-.19,1.6.1,1.86s1,.21,2.16-.19l-.42,2-.9.25a4.06,4.06,0,0,1-1.15.17,5,5,0,0,1-1.09-.12,1.46,1.46,0,0,1-1.38-1.16,5.59,5.59,0,0,1,0-2.07A14.83,14.83,0,0,1,553.2,248a12,12,0,0,1-4.63.92,9.15,9.15,0,0,1-2.66-.37,5.27,5.27,0,0,1-2.07-1.18,4.25,4.25,0,0,1-1.17-1.94,5.53,5.53,0,0,1,0-2.75q1.13-5.52,9-6.53Zm4,1.26a15.26,15.26,0,0,1-3.42.88q-1.65.21-3.33.33a10.94,10.94,0,0,0-4.79,1.3,4.76,4.76,0,0,0-2.32,3.31,3.16,3.16,0,0,0,0,1.74,2.73,2.73,0,0,0,.81,1.21,3.6,3.6,0,0,0,1.36.71,5.78,5.78,0,0,0,1.68.23,11.73,11.73,0,0,0,3-.38,10,10,0,0,0,2.77-1.15,7.94,7.94,0,0,0,2.2-2,7.17,7.17,0,0,0,1.29-2.82Z"/></svg>