<?xml version="1.0" encoding="UTF-8" standalone="no"?>
<svg
   id="Camada_1"
   data-name="Camada 1"
   viewBox="0 0 542.28 165.12"
   version="1.1"
   sodipodi:docname="logo.svg"
   width="542.28003"
   height="165.12"
   inkscape:version="1.4 (e7c3feb1, 2024-10-09)"
   xmlns:inkscape="http://www.inkscape.org/namespaces/inkscape"
   xmlns:sodipodi="http://sodipodi.sourceforge.net/DTD/sodipodi-0.dtd"
   xmlns="http://www.w3.org/2000/svg"
   xmlns:svg="http://www.w3.org/2000/svg"
   xmlns:rdf="http://www.w3.org/1999/02/22-rdf-syntax-ns#"
   xmlns:cc="http://creativecommons.org/ns#"
   xmlns:dc="http://purl.org/dc/elements/1.1/">
  <sodipodi:namedview
     id="namedview38"
     pagecolor="#ffffff"
     bordercolor="#000000"
     borderopacity="0.25"
     inkscape:showpageshadow="2"
     inkscape:pageopacity="0.0"
     inkscape:pagecheckerboard="0"
     inkscape:deskcolor="#d1d1d1"
     inkscape:zoom="1.1149918"
     inkscape:cx="327.8051"
     inkscape:cy="-39.910608"
     inkscape:window-width="1440"
     inkscape:window-height="872"
     inkscape:window-x="0"
     inkscape:window-y="28"
     inkscape:window-maximized="0"
     inkscape:current-layer="Camada_1" />
  <defs
     id="defs1">
    <style
       id="style1">.cls-1{fill:#fa6c1a;}</style>
  </defs>
  <title
     id="title1">Logo_palavrearPrancheta 1</title>
  <path
     class="cls-1"
     d="m 12.189634,149.68542 -8.5799997,-1.46 17.7299997,-103.640005 1.68,-1 c 15.74,-9.63 33.73,-9.49 41.83,0.33 5.15,6.24 4.45,14.27 4.32,15.41 -1.71,14.45 -19.21,27.08 -43.82,30.89 l -0.31,-7.61 c 20,-4.27 34.44,-13.59 35.52,-24.25 0.08,-0.79 0.52,-5.44 -2.39,-9 -4.44,-5.38 -16.3,-6.48 -29,0.57 z"
     id="path1" />
  <path
     class="cls-1"
     d="m 46.229634,129.64542 -7.33,-4.62 45.92,-72.860005 3.55,6.38 a 195.37,195.37 0 0 1 15.879996,37.05 195.43,195.43 0 0 1 6.85,30.520005 l -8.57,1.22 a 187.53,187.53 0 0 0 -6.549996,-29.170005 187.1,187.1 0 0 0 -11.71,-28.89 z"
     id="path2" />
  <path
     class="cls-1"
     d="m 65.839634,98.265415 -1.78,-8.49 c 7.22,-1.51 14.56,-2.85 21.84,-4 4.51,-0.71 9.08,-1.36 13.6,-1.92 l 1.069996,8.59 c -4.419996,0.56 -8.909996,1.19 -13.329996,1.88 -7.13,1.14 -14.33,2.45 -21.4,3.94 z"
     id="path3" />
  <path
     class="cls-1"
     d="m 149.60963,131.08542 -7.33,-4.62 45.91,-72.860005 3.56,6.37 a 196.38,196.38 0 0 1 15.86,37.06 195.18,195.18 0 0 1 6.85,30.520005 l -8.56,1.22 a 186.11,186.11 0 0 0 -6.54,-29.170005 187.1,187.1 0 0 0 -11.75,-28.89 z"
     id="path4" />
  <path
     class="cls-1"
     d="m 169.20963,99.705415 -1.77,-8.48 c 7.21,-1.51 14.56,-2.85 21.83,-4 4.51,-0.7 9.09,-1.35 13.6,-1.91 l 1.08,8.59 c -4.43,0.55 -8.91,1.19 -13.33,1.88 -7.13,1.12 -14.33,2.44 -21.41,3.92 z"
     id="path5" />
  <path
     class="cls-1"
     d="m 403.52963,131.08542 -7.33,-4.62 45.92,-72.860005 3.55,6.38 a 194.68,194.68 0 0 1 22.73,67.570005 l -8.57,1.22 a 186.16,186.16 0 0 0 -18.22,-58.060005 z"
     id="path6" />
  <path
     class="cls-1"
     d="m 423.13963,99.705415 -1.78,-8.48 c 7.22,-1.51 14.56,-2.85 21.84,-4 4.5,-0.7 9.08,-1.35 13.6,-1.91 l 1.07,8.59 c -4.43,0.55 -8.91,1.19 -13.33,1.88 -7.13,1.12 -14.33,2.44 -21.4,3.92 z"
     id="path7" />
  <path
     class="cls-1"
     d="m 124.86963,161.89542 2.28,-112.360005 8.66,0.17 -2,98.000005 a 101.05,101.05 0 0 1 44.42,-8.35 l -0.34,8.65 a 92.74,92.74 0 0 0 -46.54,10.47 z"
     id="path8" />
  <path
     class="cls-1"
     d="m 224.60963,152.25542 -0.95,-147.0000051 h 23.95 l -1,146.6100051 z m 5.62,-140.480005 0.87,133.890005 9.07,-0.16 0.87,-133.730005 z"
     id="path9" />
  <rect
     class="cls-1"
     x="230.01991"
     y="24.139399"
     width="11.22"
     height="6.71"
     transform="rotate(-0.39)"
     id="rect9" />
  <rect
     class="cls-1"
     x="229.86992"
     y="46.258377"
     width="11.22"
     height="6.71"
     transform="rotate(-0.39)"
     id="rect10" />
  <path
     class="cls-1"
     d="m 302.70963,144.49542 -8.1,-1.45 16.87,-94.470005 1.36,-1 a 38.67,38.67 0 0 1 19.83,-7.3 c 4.57,-0.31 10.24,-0.71 15.42,3.09 7.24,5.32 8.85,15.53 6.69,22.88 -2.27,7.73 -8.16,11.5 -15,15.87 a 60.43,60.43 0 0 1 -13.46,6.4 176.29,176.29 0 0 1 16.4,44.320005 l -8,1.8 c -2.05,-8 -4.06,-14.63 -5.64,-19.55 -5.44,-16.880005 -8.76,-22.550005 -12.41,-27.080005 a 55,55 0 0 0 -5.78,-6.11 37.45,37.45 0 0 0 8.4,0.08 c 10.23,-1.07 25,-7 27.61,-18 1,-4.54 0.35,-11 -3.67,-13.94 -2.75,-2 -6.28,-1.78 -10,-1.53 a 30.21,30.21 0 0 0 -14.26,4.88 z"
     id="path10" />
  <path
     class="cls-1"
     d="m 486.38963,144.77542 -8.09,-1.44 16.86,-94.480005 1.36,-1 a 38.69,38.69 0 0 1 19.82,-7.31 c 4.57,-0.31 10.25,-0.7 15.43,3.1 7.24,5.31 8.84,15.53 6.69,22.87 -2.27,7.73 -8.16,11.5 -15,15.87 a 59.86,59.86 0 0 1 -13.47,6.4 176.22,176.22 0 0 1 16.41,44.320005 l -8,1.8 c -2,-8 -4,-14.63 -5.64,-19.55 -5.43,-16.870005 -8.75,-22.540005 -12.4,-27.080005 a 53.8,53.8 0 0 0 -5.78,-6.1 38.19,38.19 0 0 0 8.4,0.07 c 10.23,-1.06 25,-6.94 27.61,-18 1,-4.53 0.34,-11 -3.67,-13.94 -2.75,-2 -6.28,-1.78 -10,-1.52 a 30.19,30.19 0 0 0 -14.31,4.83 z"
     id="path11" />
  <path
     class="cls-1"
     d="m 362.60963,130.70542 -8.39,-2.14 21.37,-84.210005 2.63,-0.56 a 63.62,63.62 0 0 1 23.39,-0.61 62.06,62.06 0 0 1 9.63,2.36 l -2.63,8.23 a 54,54 0 0 0 -26,-2 z"
     id="path12" />
  <rect
     class="cls-1"
     x="-43.68198"
     y="379.33817"
     width="7.5799999"
     height="27.639999"
     transform="rotate(-84.05)"
     id="rect12" />
  <path
     class="cls-1"
     d="m 385.89963,135.15542 -31.85,-6.12 c 0.85,-2.82 1.69,-5.64 2.54,-8.47 l 31,6 z"
     id="path13" />
  <path
     class="cls-1"
     d="m 291.46963,21.025415 -43,129.510005 6.19,2.06 v 0 c 0,-0.07 -0.35,-0.18 -1.09,-0.34 l 29.4,-88.920005 5.08,1.52 -30.14,88.830005 h -0.05 l 5,1.65 43,-129.560005 z m 3.89,28.38 a 4.32,4.32 0 0 1 -4.31,4.31 h -0.71 a 4.32,4.32 0 0 1 -4.31,-4.31 v -0.71 a 4.32,4.32 0 0 1 4.31,-4.31 h 0.71 a 4.32,4.32 0 0 1 4.31,4.31 z m -0.35,-9.31 h -0.4 a 4.32,4.32 0 0 1 -4.33,-4.32 v -0.4 a 4.32,4.32 0 0 1 4.33,-4.31 h 0.42 a 4.31,4.31 0 0 1 4.3,4.31 v 0.4 a 4.31,4.31 0 0 1 -4.32,4.32 z"
     id="path14" />
  <metadata
     id="metadata38">
    <rdf:RDF>
      <cc:Work
         rdf:about="">
        <dc:title>Logo_palavrearPrancheta 1</dc:title>
      </cc:Work>
    </rdf:RDF>
  </metadata>
</svg>
