<svg xmlns="http://www.w3.org/2000/svg" viewBox="0 0 750 500"><g id="freepik--background-simple--inject-6"><path d="M488.26,402.13c35.25-2.81,71.51-5.11,101.11-24.45a156.75,156.75,0,0,0,63-82.79c7.16-22.49,9-47.41.6-69.46-9.69-25.45-33.3-45.08-60.08-50-23.56-4.32-47.56,2.12-71.05,6.81s-49.07,7.38-70.38-3.55c-20.66-10.6-33.19-31.78-47.53-50.05-33-42-85.9-73.31-138.56-64-35.24,6.19-66,30.13-84.63,60.69s-25.81,67.16-24.84,102.93c1.31,48.37,20.5,100.21,62.9,123.51C218.77,351.74,268,419.69,488.26,402.13Z" style="fill:#ebebeb"></path><path d="M481.38,63.42C463.82,64.6,445.94,83.32,441.62,98s.75,31.21,11.41,42.12,26.23,16.34,41.48,16.21c20-.18,40.92-11.14,47.86-29.9,6.34-17.15-.58-37.57-14.51-49.41s-30.13-16.12-48.14-13" style="fill:#ebebeb"></path></g><g id="freepik--Character--inject-6"><polygon points="307.47 435.35 307.47 435.35 233.39 451.79 315.64 456.92 377.34 438.67 371.21 438.67 307.47 435.35" style="fill:#e0e0e0"></polygon><polygon points="306.54 431.25 239 447.48 239 450.81 320.02 453.16 370.12 439.85 370.28 434.57 306.54 431.25" style="fill:#fafafa"></polygon><polygon points="239 450.81 239 447.48 319.2 449.14 320.02 453.16 239 450.81" style="fill:#ebebeb"></polygon><polygon points="319.2 449.14 370.28 434.57 370.12 439.85 320.02 453.16 319.2 449.14" style="fill:#e0e0e0"></polygon><path d="M306.54,431.25s.39,0,1.16,0l3.38.14L324,432l46.32,2.32h.22v.22c-.05,1.62-.1,3.44-.16,5.28V440l-.17.05-50.09,13.34H320l-16.44-.48L239,451h-.22V447.3l.18,0,49-11.67,13.73-3.24,3.63-.83.93-.21.31-.06-.31.1-.93.24-3.61.9L288,435.85,239.05,447.7l.18-.22v3.33l-.22-.23,64.58,1.84,16.43.48H320l50.11-13.28-.17.21c.06-1.84.12-3.65.17-5.28l.21.23L324,432.29l-12.9-.73-3.39-.21C306.94,431.3,306.54,431.25,306.54,431.25Z" style="fill:#263238"></path><path d="M317.11,446.14a2.67,2.67,0,0,1-.56,0h-1.61l-5.94-.09-19.58-.33c-7.65-.13-14.57-.29-19.58-.47-2.51-.09-4.54-.18-5.94-.26l-1.61-.1a2.37,2.37,0,0,1-.56-.07,2.12,2.12,0,0,1,.57,0h1.61l5.94.09,19.58.32c7.65.13,14.57.3,19.58.48,2.51.09,4.53.17,5.93.25l1.61.11A1.7,1.7,0,0,1,317.11,446.14Z" style="fill:#263238"></path><path d="M328.1,444a2,2,0,0,1-.56,0h-1.62L320,444l-19.58-.32c-7.65-.13-14.58-.3-19.59-.48-2.5-.09-4.53-.17-5.93-.25l-1.61-.1a3.1,3.1,0,0,1-.56-.07,2.28,2.28,0,0,1,.56,0h1.62l5.93.09,19.59.32c7.64.13,14.57.29,19.58.47,2.5.09,4.53.18,5.93.26l1.61.1A2.26,2.26,0,0,1,328.1,444Z" style="fill:#263238"></path><path d="M336.1,441.69a2.2,2.2,0,0,1-.56,0h-1.62l-5.93-.09-19.58-.32c-7.65-.13-14.58-.29-19.59-.47-2.5-.09-4.53-.18-5.93-.26l-1.61-.1a2.26,2.26,0,0,1-.56-.07,2.07,2.07,0,0,1,.56,0h1.62l5.93.09,19.59.32c7.64.13,14.57.29,19.58.48,2.5.09,4.53.17,5.93.25l1.61.1A3.1,3.1,0,0,1,336.1,441.69Z" style="fill:#263238"></path><path d="M344.32,439.84a2.12,2.12,0,0,1-.57,0h-1.61l-5.94-.09-19.58-.32c-7.65-.13-14.57-.3-19.58-.48-2.51-.09-4.53-.17-5.93-.25l-1.61-.1a3.1,3.1,0,0,1-.56-.07,2.2,2.2,0,0,1,.56,0h1.61l5.94.08,19.58.33c7.65.13,14.57.29,19.58.47,2.51.09,4.54.18,5.94.26l1.61.1A2.26,2.26,0,0,1,344.32,439.84Z" style="fill:#263238"></path><path d="M431.94,258.43s39.07-9.55,57.46,4.62c14.67,11.31,25.28,29.88,25.28,29.88l-31.95,40.75L500.55,424H362.46L340,363.59,304.82,323s32.37-37,42-41.53S431.94,258.43,431.94,258.43Z" style="fill:#FF7300"></path><path d="M457.17,358.39l.16.13.45.39,1.71,1.46,6.3,5.42.06,0v.08c-.36,3.16-.8,7-1.3,11.29l-.31-.21,9.76-5.81.11-.06.11.05,10.32,4.76-.36.29-2.48-11.08c0-.11-.07.23.06-.24h0l0,0,0,0,.06-.07.12-.13.25-.27.5-.53,1-1.06,1.95-2.1,3.81-4.1.16.42-11.31-1.08h-.12l-.06-.11-5.51-9.94.38,0-4.56,10.41,0,.07-.08,0-8.17,1.51-2.21.4-.58.1-.21,0,.17,0,.54-.12,2.14-.46,8.26-1.73-.11.09,4.46-10.44.17-.39.21.37c1.7,3,3.56,6.36,5.56,9.91l-.19-.13,11.31,1.06.52,0-.36.38-3.8,4.11-1.95,2.1-1,1.06-.5.53-.24.27-.13.13-.06.07,0,0,0,0h0c.13-.46,0-.12.06-.23l2.48,11.09.11.5-.47-.21-10.3-4.8h.22l-9.79,5.76-.37.22.06-.42c.53-4.3,1-8.12,1.41-11.28l0,.14-6.26-5.65-1.63-1.48-.41-.38Q457.16,358.39,457.17,358.39Z" style="fill:#fafafa"></path><path d="M309.05,318.15s-42,48.31-58.66,62.11-13.56,40.73-4.34,44.3c3.6,1.39,56.41-.59,56.41-.59L340,363.59Z" style="fill:#FF7300"></path><g style="opacity:0.2"><path d="M458.6,394.28c-.48-9.45,13.45-16.12,20.31-14.41-1.31-14.28-3-38.7,1-52.48,4.39,20.39,6.55,42,14.2,61.39"></path></g><path d="M480.62,334.41l13.25,55.7s-22.12-13.67-35.16,4.5l10,29.64,89.51.31s6.84-26.81-1.27-48.32c-3.41-9-42.24-83.31-42.24-83.31l-27.93,9.7Z" style="fill:#FF7300"></path><path d="M468.68,424.25a5.26,5.26,0,0,1-.24-.57l-.6-1.66-2.17-6.23c-1.83-5.36-4.38-12.83-7.31-21.43l0-.11.07-.1A19.52,19.52,0,0,1,461.8,390a17.66,17.66,0,0,1,4.76-3A25.05,25.05,0,0,1,475,385a37.65,37.65,0,0,1,4.1-.06,20.11,20.11,0,0,1,3.92.46c5,1.13,9.27,3.42,11.83,6.35a27.57,27.57,0,0,1,5.78,7,9.35,9.35,0,0,1,1.05,3.18,16.26,16.26,0,0,0-1.23-3.08,28.15,28.15,0,0,0-5.86-6.87c-2.57-2.87-6.75-5.06-11.67-6.15a19.2,19.2,0,0,0-3.83-.43,36.66,36.66,0,0,0-4.05.07,24.62,24.62,0,0,0-8.22,1.9,16.84,16.84,0,0,0-4.62,2.94,18.79,18.79,0,0,0-3.33,4l0-.21c2.86,8.62,5.35,16.11,7.13,21.49.86,2.64,1.54,4.76,2,6.28l.53,1.68A4,4,0,0,1,468.68,424.25Z" style="fill:#263238"></path><path d="M510.39,392.14c-.07.07-.81-.78-2.25-1.83a15.06,15.06,0,0,0-6.33-2.66,14.28,14.28,0,0,0-3.79-.08,13,13,0,0,0-3,.76c-1.66.65-2.55,1.34-2.61,1.25s.19-.21.59-.52a9.77,9.77,0,0,1,1.88-1.07,12,12,0,0,1,3.08-.89,13.46,13.46,0,0,1,10.4,2.92,11,11,0,0,1,1.56,1.48C510.25,391.89,510.42,392.12,510.39,392.14Z" style="fill:#263238"></path><path d="M494.07,388.78a5.37,5.37,0,0,1-.23-.62c-.14-.46-.33-1.05-.57-1.78-.48-1.56-1.15-3.81-2-6.61-1.6-5.6-3.7-13.36-5.78-22s-3.75-16.51-4.86-22.23c-.56-2.85-1-5.17-1.27-6.77-.12-.76-.22-1.38-.3-1.85a4,4,0,0,1-.08-.65,2.62,2.62,0,0,1,.18.63c.1.47.24,1.08.4,1.83.35,1.65.84,3.94,1.43,6.74,1.21,5.69,2.93,13.54,5,22.18s4.11,16.4,5.63,22c.75,2.76,1.36,5,1.8,6.65.19.75.35,1.35.47,1.82A2.3,2.3,0,0,1,494.07,388.78Z" style="fill:#263238"></path><path d="M482.11,319.16a18.46,18.46,0,0,1-1.45,4.21,19,19,0,0,1-1.93,4,19.51,19.51,0,0,1,1.45-4.22A19,19,0,0,1,482.11,319.16Z" style="fill:#263238"></path><g style="opacity:0.2"><path d="M330.29,334.41c-1.92,17-3.85,37.12-5.78,54.13l15.53-25"></path></g><path d="M329.5,332.75c.14-.05,4.55,12.05,9.85,27s9.5,27.15,9.36,27.2-4.54-12-9.85-27S329.37,332.8,329.5,332.75Z" style="fill:#263238"></path><path d="M340.77,301v.8q0,.82,0,2.25c0,2-.08,4.78-.14,8.31v.08l-.07,0c-2.66,1.75-5.88,3.85-9.51,6.22l0-.37,10.71,3.79.12,0,0,.12,2.94,11-.45-.09,6.93-9,.22-.11h.36l.37,0,.72,0,1.45.08,2.86.16,5.58.3-.22.4-6.4-9.39-.07-.1,0-.12c1.48-3.79,2.86-7.34,4.12-10.58l.25.27-10.91,3.15-.08,0-.06-.05L343.1,303l-1.72-1.44-.45-.38-.16-.14.14.1.44.34,1.72,1.36,6.61,5.24-.14,0,10.89-3.25.4-.12-.15.4c-1.24,3.25-2.61,6.8-4.06,10.61l0-.23,6.43,9.37.29.43-.51,0-5.59-.3-2.86-.15-1.45-.08-.72,0-.37,0h-.36l.22-.1-6.94,9-.31.41-.14-.5c-1-3.85-2-7.55-2.9-11l.15.17-10.69-3.85-.4-.14.35-.23,9.57-6.13-.07.13c.14-3.58.26-6.43.34-8.43,0-.93.07-1.66.1-2.19l0-.56A1.25,1.25,0,0,1,340.77,301Z" style="fill:#fafafa"></path><path d="M320.49,342.3a.73.73,0,0,1-.13.17l-.4.44-1.5,1.67-5.58,6.15-.06.06h-.08l-11.25-1.59.22-.31,5.55,9.91.06.11-.05.11c-1.58,3.19-3.27,6.62-5,10.19l-.28-.37,11.15-2.19.23.07h0l0,0,0,0,.07.06.13.13.26.26.52.5,1,1,2,2,4,3.91-.43.15c.48-3.93.94-7.7,1.38-11.27v-.13l.11,0,10.08-5.25v.37l-10.29-4.83-.07,0v-.08c-.56-3.5-1-6.27-1.3-8.21-.14-.95-.26-1.68-.34-2.22,0-.24-.07-.43-.09-.58l0-.22s0,.05,0,.17.07.33.11.55c.09.52.23,1.24.4,2.16.36,2,.87,4.76,1.51,8.3l-.08-.12,10.32,4.73.39.18-.38.2-10.05,5.3.13-.18c-.43,3.57-.88,7.34-1.34,11.28l-.07.51-.37-.36-4-3.91-2.05-2-1-1-.52-.51-.27-.26-.13-.12-.06-.07,0,0,0,0h0l.23.07-11.15,2.19-.51.1.23-.47,5.06-10.17V359l-5.5-9.94-.2-.37.41.06,11.24,1.71-.14,0,5.81-6.11,1.52-1.59.39-.39C320.45,342.34,320.5,342.3,320.49,342.3Z" style="fill:#fafafa"></path><path d="M383.43,344.49l.17.14.45.38,1.71,1.46,6.3,5.42.06.05V352c-.37,3.16-.81,7-1.31,11.29l-.31-.21c3-1.75,6.25-3.72,9.76-5.81l.11-.06.12,0L410.79,362l-.36.29L408,351.25c0-.11-.06.23.06-.24h0v0l0,0,.07-.07.12-.13.25-.27L409,350l1-1.06,1.95-2.1,3.8-4.1.17.42L404.6,342h-.13l-.06-.11c-2-3.56-3.82-6.89-5.5-9.94l.37,0c-1.75,4-3.27,7.48-4.56,10.41l0,.07-.08,0L386.43,344l-2.21.4-.58.1-.21,0,.17,0,.54-.12,2.15-.46,8.26-1.73-.11.1c1.25-2.95,2.75-6.45,4.46-10.45l.16-.39.21.37,5.56,9.91-.19-.12L416,342.61l.51,0-.35.38-3.8,4.11q-1,1-1.95,2.1l-1,1.06-.49.53-.25.27-.12.13-.06.07,0,0v0h0l.06-.24c.85,3.8,1.67,7.51,2.47,11.09l.12.5-.47-.21-10.3-4.79.22,0-9.8,5.76-.36.22.05-.42c.54-4.3,1-8.12,1.41-11.27l.05.13-6.26-5.65L384,345l-.41-.38Z" style="fill:#fafafa"></path><path d="M423,307l.16.13.45.39L425.3,309l6.3,5.42.06.05v.08c-.36,3.16-.8,7-1.3,11.29l-.31-.21,9.76-5.81.11-.06.11.05,10.32,4.76-.36.29-2.48-11.08c0-.11-.07.23.06-.24h0l0,0,0,0,.06-.07.12-.14.25-.26.5-.54,1-1.06,2-2.09,3.81-4.1.16.42-11.31-1.08H444l-.06-.11c-2-3.56-3.82-6.9-5.51-9.94l.37,0-4.55,10.41,0,.07-.08,0L426,306.49l-2.21.4-.58.1-.21,0,.17,0,.54-.12,2.14-.46,8.26-1.73-.11.09,4.46-10.44.17-.39.21.37,5.55,9.91-.18-.13,11.31,1.06.52,0-.36.38-3.8,4.11c-.65.69-1.29,1.39-1.95,2.1l-1,1.06-.5.53-.24.27-.13.13-.06.07,0,0,0,0h0c.13-.46,0-.12.06-.23l2.48,11.09.11.5-.47-.21-10.3-4.8H440L430.25,326l-.37.21.06-.41c.53-4.3,1-8.12,1.4-11.28l.06.14L425.14,309l-1.63-1.48-.41-.38Q423,307,423,307Z" style="fill:#fafafa"></path><path d="M423,399.15l.16.13.45.38,1.71,1.46,6.3,5.42.06,0v.09c-.36,3.16-.8,7-1.3,11.28l-.31-.2L439.8,412l.11-.07.11.06,10.32,4.76L450,417,447.5,405.9c0-.1-.07.23.06-.23h0l0,0,0,0,.06-.07.12-.13.25-.27.5-.53,1-1.06,2-2.1,3.81-4.1.16.43-11.31-1.09H444l-.06-.11-5.51-9.93.37,0L434.27,397l0,.08h-.08L426,398.61l-2.21.4-.58.11-.21,0s0,0,.17,0l.54-.11,2.14-.46,8.26-1.73-.11.09c1.26-2.94,2.75-6.45,4.46-10.45l.17-.39.21.37,5.55,9.91-.18-.12,11.31,1.05.52.05-.36.38-3.8,4.1c-.65.7-1.29,1.4-1.95,2.1l-1,1.06-.5.54-.24.26-.13.14L448,406l0,0,0,0h0c.13-.47,0-.13.06-.23l2.48,11.08.11.51-.47-.22-10.3-4.79H440l-9.79,5.76-.37.21.06-.42c.53-4.3,1-8.11,1.4-11.27l.06.13-6.26-5.65-1.63-1.48-.41-.37A.88.88,0,0,1,423,399.15Z" style="fill:#fafafa"></path><path d="M354.76,394.83l.17.13.45.38,1.71,1.46,6.3,5.42.06.06v.08c-.37,3.16-.81,7-1.31,11.28l-.31-.2,9.76-5.81.11-.06.11.05,10.32,4.76-.36.29-2.48-11.09c0-.1-.06.24.06-.23h0l0,0,.06-.06.13-.14.25-.26.49-.54,1-1.06q1-1.05,1.95-2.1c1.29-1.39,2.57-2.75,3.81-4.1l.17.43-11.31-1.08-.13,0-.06-.1-5.5-9.94.37,0c-1.75,4-3.28,7.47-4.56,10.4l0,.08-.08,0-8.18,1.5-2.21.4-.58.11-.21,0,.17,0,.54-.12,2.15-.46,8.26-1.73-.12.09c1.26-2.94,2.76-6.44,4.47-10.45l.16-.38.21.37,5.56,9.9-.19-.12,11.31,1.05.52.05-.35.38-3.81,4.11-1.94,2.1-1,1.06-.49.53-.25.27-.12.13-.07.07,0,0v0h0c.13-.46,0-.13.07-.23.84,3.8,1.67,7.51,2.47,11.09l.11.5-.47-.22-10.3-4.79h.23L362,413.8l-.36.21.05-.42c.54-4.29,1-8.11,1.41-11.27l.05.14-6.26-5.65-1.63-1.48-.4-.38Z" style="fill:#fafafa"></path><path d="M500,273a2,2,0,0,1,0,.51l-.2,1.49,0-.06,8,8.06.26.26-.37.05-11.27,1.38.17-.12c-1.61,3.08-3.4,6.48-5.27,10.07l-.24.45-.21-.47c-1.51-3.26-3.12-6.73-4.77-10.31l.19.15-.53-.09-10.66-1.85-.51-.08.38-.35,8.36-7.7-.08.2c-.58-4.15-1.11-7.94-1.58-11.25l-.05-.37.33.18,9.86,5.64h-.09l2-1.14a6.78,6.78,0,0,1,.69-.36,4.21,4.21,0,0,1-.65.44l-2,1.21,0,0,0,0-10-5.46.27-.19c.49,3.3,1.05,7.08,1.67,11.24l0,.12-.09.08-8.33,7.73-.13-.44,10.66,1.83.54.1.14,0,0,.12c1.65,3.58,3.25,7.05,4.75,10.32h-.45l5.32-10,.05-.11h.12L507.6,283l-.11.3-7.85-8.21,0,0v0c.12-.62.21-1.11.27-1.48A3.6,3.6,0,0,1,500,273Z" style="fill:#fafafa"></path><path d="M498.07,318.81a1,1,0,0,1,0,.21c0,.16.06.35.1.59.08.53.2,1.27.35,2.22.31,1.94.74,4.71,1.29,8.2v.08l-.06.06-8.3,7.75-.11-.35,11.2,1.89.12,0,.06.12,4.77,10.31h-.46l5.29-10.06.2-.14h.18l.18,0,.36,0,.73-.09,1.43-.17,2.85-.33,5.55-.66-.15.43-7.91-8.15-.09-.09,0-.12c.8-4,1.55-7.73,2.24-11.14l.3.23-10.22,5-.07,0-.07,0-7.21-4.15-1.94-1.13-.51-.29-.18-.12.16.08.49.26,1.93,1,7.41,4h-.14l10.16-5.06.38-.19-.08.41c-.67,3.42-1.4,7.16-2.19,11.15l-.06-.21c2.52,2.57,5.17,5.3,7.94,8.13l.36.37-.52.06-5.55.66-2.85.34-1.43.17-.72.09-.37,0-.18,0h-.18l.2-.13c-1.81,3.44-3.58,6.8-5.3,10l-.24.46-.21-.47-4.75-10.32.18.13L491.32,338l-.42-.08.31-.28,8.38-7.68,0,.14c-.47-3.56-.84-6.38-1.1-8.36-.12-.93-.22-1.65-.29-2.18,0-.22,0-.4-.06-.55A1.23,1.23,0,0,1,498.07,318.81Z" style="fill:#fafafa"></path><path d="M527.05,374.5l-.11.18-.31.51-1.18,1.91-4.4,7,0,.07h-.08l-11.36.43.16-.34,7.23,8.76.07.1,0,.12c-1,3.42-2,7.1-3.14,10.92l-.33-.31,10.57-4.14c.11,0-.24,0,.25,0h0l0,0,.07.06.16.1.3.2.6.41,1.2.81,2.37,1.61,4.63,3.14-.4.23c-.23-4-.44-7.75-.65-11.35v-.12l.1-.08,9-6.95.07.36-11-2.92-.08,0,0-.08c-1.17-3.34-2.09-6-2.74-7.85-.31-.9-.55-1.61-.73-2.12l-.19-.56-.06-.2.07.16c0,.14.12.31.2.51l.77,2.06c.71,1.86,1.71,4.53,3,7.9L531,385l11,2.82.41.11-.34.26-8.94,7,.09-.2c.21,3.59.44,7.38.68,11.34l0,.51-.43-.29-4.63-3.13-2.38-1.61-1.19-.81-.61-.41-.3-.2-.15-.1-.07-.05,0,0h0l.24,0-10.58,4.14-.48.18.14-.49,3.17-10.91.05.21c-2.59-3.16-5-6.14-7.18-8.8l-.27-.33h.42l11.36-.32-.13.07c2-3,3.54-5.38,4.63-7.05l1.22-1.83.31-.46C527,374.54,527.05,374.49,527.05,374.5Z" style="fill:#fafafa"></path><path d="M252.94,384.66s0,.08,0,.21,0,.35-.08.59l-.33,2.22c-.3,1.95-.72,4.72-1.25,8.22V396l-.08,0-10.26,4.88v-.37l10.1,5.19.12.06v.13c.45,3.52.94,7.32,1.44,11.26l-.43-.15,8.07-8,.24-.07h.08l.09,0,.18,0,.36.07.71.14,1.43.27,2.81.54,5.49,1-.27.37-5.08-10.16-.06-.12.06-.11c2-3.56,3.82-6.89,5.5-9.94l.22.31-11.24,1.66h-.08l-.06-.06L255,386.92l-1.51-1.66-.39-.44-.14-.16s0,0,.13.12l.38.4,1.53,1.57,5.85,6.09-.14,0L271.91,391l.42-.07-.2.38-5.45,10v-.22l5.12,10.15.23.46-.51-.1-5.5-1-2.81-.54-1.42-.27-.72-.14-.35-.06-.18,0-.09,0h-.09l.23-.07-8.08,8-.37.36-.07-.51L250.67,406l.13.19-10.08-5.25-.38-.19.39-.18,10.3-4.79-.09.12c.63-3.54,1.12-6.34,1.47-8.31q.26-1.38.39-2.16l.1-.55A.68.68,0,0,1,252.94,384.66Z" style="fill:#fafafa"></path><path d="M448.7,233.85a18.34,18.34,0,0,0,9.11-20.69c-1-3.54-3.09-6.75-3.71-10.38-1-5.64,1.72-11.15,3.47-16.6s2.24-12.23-2-16.08c-2.75-2.49-6.76-3-9.86-5s-5-5.21-7-8.21-4.51-6-8-7.11-8,.71-8.55,4.3" style="fill:#263238"></path><path d="M395.82,150.47c4.74-4.68,4.33-13.07.1-18.22s-11.32-7.3-18-7a30.65,30.65,0,0,0-24,14.13c-2.76,4.42-4.61,9.81-9.06,12.52-3.91,2.38-8.88,2.06-13.2,3.6-5.79,2-10,7.39-11.92,13.22s-1.9,12.13-1.32,18.24c.53,5.61,1.4,11.71-1.53,16.52s-8.54,6.78-12.54,10.55c-7.54,7.08-7.57,20.6-.05,27.71,2.39,2.26,5.53,4.14,6.44,7.31.83,2.89-.51,5.92-.79,8.91-.73,7.72,7,15,14.69,13.83,3.87-.6,7.64-3,11.43-2s5.91,4.79,8.76,7.44a16.74,16.74,0,0,0,21.05.85c2.52-2,4.68-4.83,7.84-5.3s6.19,1.67,9.39,1.61c4.18-.09,7.35-3.87,9-7.7s2.49-8.11,5-11.48c3.23-4.42,8.66-6.51,13.35-9.34a42.36,42.36,0,0,0,10.87-63" style="fill:#263238"></path><path d="M409.46,155.09a9,9,0,0,1,9.77,7.24h0l20.35,119.88c2.81,14.07-16,26.37-31.08,29.26h0c-15.24,2.91-17.33-4.42-20.4-17.72-5.12-22.22-6.9-30.6-6.88-30.47s-19.85.91-29.16-23.26c-4.62-12-8.35-32.54-10.85-49.43-2.26-15.21,3.76-35.74,19.05-37.35Z" style="fill:#b78876"></path><path d="M350.2,205.58a3.28,3.28,0,0,0,3.78,2.58,3.13,3.13,0,0,0,2.69-3.6,3.28,3.28,0,0,0-3.78-2.58A3.14,3.14,0,0,0,350.2,205.58Z" style="fill:#263238"></path><path d="M347.89,202.35c.49.34,2.54-2,6-2.71s6.35.46,6.64,0c.14-.23-.43-.89-1.7-1.46a9,9,0,0,0-5.42-.48,8.67,8.67,0,0,0-4.66,2.67C347.86,201.38,347.66,202.21,347.89,202.35Z" style="fill:#263238"></path><path d="M384.59,198.17a3.28,3.28,0,0,0,3.78,2.58,3.14,3.14,0,0,0,2.69-3.6,3.28,3.28,0,0,0-3.78-2.58A3.13,3.13,0,0,0,384.59,198.17Z" style="fill:#263238"></path><path d="M382,194.63c.49.34,2.54-2,6-2.71s6.35.46,6.63,0c.15-.22-.42-.89-1.69-1.46a9,9,0,0,0-5.43-.48,8.62,8.62,0,0,0-4.65,2.68C381.92,193.66,381.72,194.49,382,194.63Z" style="fill:#263238"></path><path d="M374.89,221.93c0-.2-2.25-.11-5.82.18-.9.1-1.77.1-2.05-.47a4.61,4.61,0,0,1,0-2.74c.38-2.3.77-4.73,1.18-7.26,1.58-10.33,2.52-18.75,2.11-18.81s-2,8.27-3.62,18.59c-.37,2.55-.72,5-1.06,7.29-.12,1.07-.45,2.33.28,3.55a2.26,2.26,0,0,0,1.73,1,5.63,5.63,0,0,0,1.54-.11C372.75,222.58,374.92,222.13,374.89,221.93Z" style="fill:#263238"></path><path d="M381.22,263.28a65,65,0,0,0,31.59-16.08s-4.69,19.46-30.22,22.46Z" style="fill:#aa6550"></path><path d="M378.13,229.94a6.33,6.33,0,0,1,5.08-3.5,5.82,5.82,0,0,1,4.37,1.26,3.69,3.69,0,0,1,1.15,4.06c-.65,1.51-2.53,2.23-4.28,2.11a13.4,13.4,0,0,1-5-1.69,3.89,3.89,0,0,1-1.21-.81,1.2,1.2,0,0,1-.27-1.29" style="fill:#aa6550"></path><path d="M385.56,222.15c-.57.09.22,3.83-2.42,7.18s-6.71,3.78-6.63,4.31c0,.25,1,.54,2.74.22a9.49,9.49,0,0,0,5.58-3.38,8.32,8.32,0,0,0,1.79-6C386.43,222.91,385.81,222.07,385.56,222.15Z" style="fill:#263238"></path><path d="M379.12,188c.54.86,3.89-.32,8-.69s7.67,0,8-.93c.15-.45-.61-1.21-2.12-1.84a14,14,0,0,0-12.24,1.23C379.47,186.64,378.88,187.53,379.12,188Z" style="fill:#263238"></path><path d="M347,196.13c.78.66,3-.66,5.83-1.31s5.39-.6,5.78-1.54c.16-.45-.39-1.16-1.61-1.67a8.66,8.66,0,0,0-9.35,2.3C346.84,194.93,346.68,195.81,347,196.13Z" style="fill:#263238"></path><path d="M391.29,150.49c4.9-5.08,11.94-8.46,19-8s13.9,5.3,15.59,12c1.1,4.39.21,9.49,3,13,2.68,3.39,7.61,3.94,11.46,6a15.27,15.27,0,0,1,7.34,17.3c-1.65,5.6-6.6,10.51-5.86,16.27.7,5.42,6.15,8.94,8.37,13.94,2.45,5.52.54,12.18-3.21,17s-9.09,8.18-14.31,11.43c-4.07,2.54-8.45,5.18-13.25,5.12-5.72-.06-10.89-4.24-12.81-9.5s-.88-11.32,1.95-16.22c2.45-4.22,6.31-8.2,6.07-13-.36-7.53-10.31-11.64-11.36-19.1-.55-3.85,1.45-7.56,3-11.15s2.65-7.93.52-11.19c-2.77-4.24-9.11-4.14-13.51-6.74a11.49,11.49,0,0,1-5.52-10.7,11.87,11.87,0,0,1,7.4-9.69" style="fill:#263238"></path><path d="M392.77,144.28a17.51,17.51,0,0,1-16.54,21.24c-4,.12-8.57-.91-11.44,1.84-3,2.89-2,8.16-4.54,11.5-3.58,4.78-11.36,2.7-16.6,5.57-4,2.21-5.85,6.92-8,11s-5.71,8.33-10.31,8a52.29,52.29,0,0,1-.77-11.9,17.48,17.48,0,0,1,4.52-10.8c1.54-1.55,3.47-2.71,4.84-4.41,3-3.67,2.7-8.89,4.05-13.41a19.17,19.17,0,0,1,12.23-12.55c4.81-1.56,10.2-1.18,14.73-3.42,3.35-1.66,5.95-4.62,9.39-6.08,6.71-2.84,14.29.78,20.44,4.68" style="fill:#263238"></path><path d="M391.59,225.46c-.1.1-.4,0-.67-.3s-.4-.56-.3-.67.4,0,.67.3S391.69,225.36,391.59,225.46Z" style="fill:#263238"></path><path d="M307.45,253.07h.41l1.22.08a31.93,31.93,0,0,0,4.65-.19,29,29,0,0,0,7.12-1.83,28,28,0,0,0,8.27-5.06A27.44,27.44,0,0,0,336,236.6a28.49,28.49,0,0,0,2.37-13.18c-.31-4.78-2.09-9.54-3.73-14.49a46.57,46.57,0,0,1-2-7.75,23.45,23.45,0,0,1,.22-8.26,13.85,13.85,0,0,1,3.91-7.25,12.37,12.37,0,0,1,3.42-2.23,23,23,0,0,1,3.8-1.23c2.55-.62,5.1-1,7.45-1.79a14.72,14.72,0,0,0,3.29-1.59,10.93,10.93,0,0,0,2.55-2.48,19.85,19.85,0,0,0,2.84-6.28c.65-2.17,1.17-4.33,1.87-6.36a20.11,20.11,0,0,1,6.81-9.66,19.5,19.5,0,0,1,9-3.87,20.25,20.25,0,0,1,7.4.28,18.84,18.84,0,0,1,4.41,1.59,10.76,10.76,0,0,1,1.41.81s-.49-.27-1.46-.72a20.44,20.44,0,0,0-4.4-1.48,20.23,20.23,0,0,0-7.31-.19,19.12,19.12,0,0,0-8.8,3.88,19.69,19.69,0,0,0-6.64,9.5c-.68,2-1.18,4.16-1.83,6.35a20.41,20.41,0,0,1-2.9,6.44,11.25,11.25,0,0,1-2.65,2.59,15,15,0,0,1-3.41,1.66c-2.41.82-5,1.2-7.49,1.82a22,22,0,0,0-3.71,1.2,11.82,11.82,0,0,0-3.28,2.14,13.33,13.33,0,0,0-3.75,7,22.78,22.78,0,0,0-.22,8.06,48.7,48.7,0,0,0,2,7.67c1.63,4.94,3.43,9.75,3.73,14.62a28.82,28.82,0,0,1-2.46,13.39,27.74,27.74,0,0,1-7,9.58,28,28,0,0,1-20.3,6.9l-1.21-.13A2.26,2.26,0,0,1,307.45,253.07Z" style="fill:#455a64"></path><path d="M356.22,135.1a1.78,1.78,0,0,1,.35-.33,11.11,11.11,0,0,1,1.07-.86,20.41,20.41,0,0,1,4.43-2.46,22.59,22.59,0,0,1,28.74,10.43,20.45,20.45,0,0,1,1.81,4.73,11.63,11.63,0,0,1,.28,1.34,1.58,1.58,0,0,1,.05.48,30.27,30.27,0,0,0-2.47-6.38,23.17,23.17,0,0,0-4.53-5.82,21.7,21.7,0,0,0-16.54-6,23.31,23.31,0,0,0-7.21,1.56A29.83,29.83,0,0,0,356.22,135.1Z" style="fill:#455a64"></path><path d="M428.3,250.89l.3-.16.91-.43a28.77,28.77,0,0,0,3.3-1.92A27.34,27.34,0,0,0,442,237.93a29.28,29.28,0,0,0,1.69-4.31,26.67,26.67,0,0,0,.9-4.94,27.08,27.08,0,0,0-1.37-10.93,26.17,26.17,0,0,0-6.44-10.28c-1.51-1.5-3.19-2.9-4.8-4.43a22,22,0,0,1-4.27-5.27c-2.25-4.08-2.69-8.69-2.93-12.94-.12-2.15-.16-4.25-.3-6.3a40.6,40.6,0,0,0-.83-5.95,22.64,22.64,0,0,0-1.91-5.35,13.72,13.72,0,0,0-3.3-4.16c-2.65-2.25-5.92-3.07-8.77-3.78a42.63,42.63,0,0,1-7.74-2.23,14.83,14.83,0,0,1-5-3.46,8.35,8.35,0,0,1-1.89-3.34,5.61,5.61,0,0,1-.2-1,1.45,1.45,0,0,1,0-.34s.06.46.33,1.29a8.6,8.6,0,0,0,1.94,3.24,14.93,14.93,0,0,0,5,3.32,42.92,42.92,0,0,0,7.71,2.14c2.87.69,6.2,1.5,9,3.81A14.06,14.06,0,0,1,422.1,167a23.25,23.25,0,0,1,2,5.45,40.59,40.59,0,0,1,.85,6c.15,2.07.2,4.17.32,6.31.24,4.24.69,8.76,2.87,12.72s5.95,6.55,9,9.59a26.48,26.48,0,0,1,6.53,10.49A27.64,27.64,0,0,1,445,228.72a28.13,28.13,0,0,1-1,5,29.27,29.27,0,0,1-1.75,4.37,27.21,27.21,0,0,1-9.36,10.45,24.91,24.91,0,0,1-3.37,1.85l-.92.38A1.43,1.43,0,0,1,428.3,250.89Z" style="fill:#455a64"></path><path d="M455.43,189.13s-.06,0-.19.09-.32.12-.58.19a7.63,7.63,0,0,1-2.34.22,11.08,11.08,0,0,1-7.48-4,18.79,18.79,0,0,1-3-5.15,57.78,57.78,0,0,1-2.06-6.5,44.7,44.7,0,0,0-2.42-7.06,15.8,15.8,0,0,0-4.92-6.13,22.12,22.12,0,0,0-7.17-3.39,47.77,47.77,0,0,0-7.34-1.4,123,123,0,0,1-12.63-1.62,24.72,24.72,0,0,1-8-3,13.8,13.8,0,0,1-2.49-1.93c0-.05.86.73,2.6,1.75a25.46,25.46,0,0,0,8,2.86c3.53.75,7.83,1,12.61,1.5a48.14,48.14,0,0,1,7.42,1.39,22.5,22.5,0,0,1,7.34,3.46,16.33,16.33,0,0,1,5.07,6.33,43.37,43.37,0,0,1,2.42,7.15,60.35,60.35,0,0,0,2,6.47,18.85,18.85,0,0,0,2.89,5.07,11,11,0,0,0,7.22,4A9.15,9.15,0,0,0,455.43,189.13Z" style="fill:#455a64"></path><path d="M458.6,394.28l-22.68,8.38s-8.6-3.39-10.35-3.62c-2.26-.3-19.21,5.37-31.43,9.6-8,2.77-14.22,7.86-16.8,15.92h0l91.34-.31Z" style="fill:#b78876"></path><polygon points="261.54 363.89 268.8 358.83 307.18 425.71 309.74 436.99 298.6 431.4 261.54 363.89" style="fill:#455a64"></polygon><polygon points="306.15 435.19 308.86 433.09 309.74 436.99 306.15 435.19" style="fill:#263238"></polygon><path d="M307.18,425.71c0,.07-.4-.09-1-.1a1.13,1.13,0,0,0-.92.39,2.07,2.07,0,0,0-.37,1.28v.32l-.31-.08a2.28,2.28,0,0,0-1.93.24,2.94,2.94,0,0,0-1,1.63l-.05.21-.2,0a3,3,0,0,0-1.42.19,1.91,1.91,0,0,0-.86.69c-.36.53-.41,1-.47.94s-.12-.44.22-1.1a2.2,2.2,0,0,1,.93-.91,3.33,3.33,0,0,1,1.63-.29l-.26.2a3.22,3.22,0,0,1,1.2-2,2.69,2.69,0,0,1,2.36-.28l-.3.23a2.35,2.35,0,0,1,.55-1.56,1.43,1.43,0,0,1,1.23-.42A1.69,1.69,0,0,1,307.18,425.71Z" style="fill:#263238"></path><path d="M261.54,363.89a4.31,4.31,0,0,1,1.46-5.27c3.46-2.49,5.8.21,5.8.21Z" style="fill:#263238"></path><path d="M263.07,360.73l38.29,68.61s.11-3.06,3.26-2L265,358.83Z" style="fill:#263238"></path><path d="M297.18,391.38a14.75,14.75,0,0,0-5.39-1.73,5,5,0,0,0-4.8,2.41,4.82,4.82,0,0,0-.05,3.71,12.16,12.16,0,0,0,1.95,3.26,14.25,14.25,0,0,0,3.94,3.84,5.16,5.16,0,0,0,8.09-5.22,10,10,0,0,0-3.74-6.27" style="fill:#b78876"></path><path d="M271.33,382.22s-6-1.66-8.1,3.74c0,0-8.72,5-8.72,12.87A17.82,17.82,0,0,0,251,409v3a11,11,0,0,0,4.6,8.93A27.53,27.53,0,0,0,263,425a17.46,17.46,0,0,0,5.12.54,2.45,2.45,0,0,0,2-3.75l-.82-1.06s4.74,3.27,8.26,3c0,0,4.82-.16,6.2-3.11.51-1.1,9.55,2.49,10.58-2.29,0,0,5.19.42,6.23-2.07s-.21-6.23-2.28-8.52S271.33,382.22,271.33,382.22Z" style="fill:#b78876"></path><path d="M268.89,394.56a7.81,7.81,0,0,1,1,.92c.69.69,1.58,1.57,2.63,2.63,2.23,2.21,5.34,5.23,8.87,8.46s6.84,6.05,9.24,8.06l2.85,2.39a6.47,6.47,0,0,1,1,.92,6.75,6.75,0,0,1-1.14-.76c-.71-.52-1.72-1.29-3-2.26-2.47-1.95-5.81-4.73-9.36-8s-6.62-6.3-8.78-8.59c-1.08-1.14-1.94-2.08-2.52-2.74A6.77,6.77,0,0,1,268.89,394.56Z" style="fill:#aa6550"></path><path d="M283.76,420.41c-.08.11-4.5-3.13-9.86-7.23s-9.65-7.53-9.56-7.64,4.51,3.12,9.87,7.23S283.85,420.29,283.76,420.41Z" style="fill:#aa6550"></path><path d="M270.67,421.55a11.47,11.47,0,0,1-1.92-1.24c-1.16-.81-2.74-1.95-4.43-3.28a45.85,45.85,0,0,1-4.16-3.64,8.38,8.38,0,0,1-1.51-1.73,12.81,12.81,0,0,1,1.76,1.46c1,.93,2.54,2.18,4.23,3.5A61.41,61.41,0,0,1,270.67,421.55Z" style="fill:#aa6550"></path><path d="M377.57,279.76c5.13,9,16.23,13.63,26.6,12.93a45.39,45.39,0,0,0,27.88-12.76c4.46-4.29,5.89-13.9,9.83-13,3.67.82,6.51,13,6.9,16.77.59,5.66-1.55,11.36-4.94,15.93s-8,8.13-12.69,11.28c-8.95,5.95-19.06,10.73-29.8,11.23s-22.14-4-27.8-13.09-3.71-22.89,5.49-28.44" style="fill:#FF7300"></path><path d="M404.8,314a4.2,4.2,0,0,1,.64-.46l1.9-1.23,7-4.42,0,.35-10.63-4-.12,0,0-.12c-.82-3.42-1.73-7.15-2.67-11l.45.1h0v0l0,0-.06.07-.12.15-.23.29-.47.57-.93,1.15-1.82,2.24-3.48,4.28-.08.1H394l-11.32-.94.18-.29,4.45,7,1.19,1.92a5.37,5.37,0,0,1,.39.7,4.24,4.24,0,0,1-.48-.63c-.32-.48-.75-1.1-1.28-1.87L382.58,301l-.22-.33.39,0,11.33.83-.21.09,3.46-4.29,1.82-2.25.92-1.14.47-.58.24-.29.11-.15.06-.07,0,0,0,0h0c-.1,0,.86.2.46.1.93,3.9,1.82,7.63,2.64,11.05l-.15-.17,10.59,4.12.37.14-.34.2-7.13,4.28-1.95,1.14A4,4,0,0,1,404.8,314Z" style="fill:#fafafa"></path><path d="M385.36,318.93A12.35,12.35,0,0,0,385,317a10.33,10.33,0,0,0-3.06-4.38c-1.69-1.57-4.15-2.8-6.84-4.27a22.7,22.7,0,0,1-4-2.72,14.7,14.7,0,0,1-4.62-13.94,24,24,0,0,1,3.18-7.52A16.88,16.88,0,0,1,373.2,280a8.23,8.23,0,0,1,1.26-.83,1.84,1.84,0,0,1,.47-.21c0,.05-.62.36-1.6,1.2a18.12,18.12,0,0,0-3.4,4.21,24.44,24.44,0,0,0-3,7.42,14.3,14.3,0,0,0,1.39,9.49,14.51,14.51,0,0,0,3.09,4,23.24,23.24,0,0,0,3.91,2.68c2.66,1.48,5.16,2.78,6.86,4.42a10,10,0,0,1,3,4.59A5,5,0,0,1,385.36,318.93Z" style="fill:#263238"></path><path d="M438.16,259.69a.88.88,0,0,1,.25.05l.72.22a15,15,0,0,1,2.68,1.12,17.6,17.6,0,0,1,3.69,2.72,19.14,19.14,0,0,1,3.71,4.81A23.56,23.56,0,0,1,451.89,284a27.79,27.79,0,0,1-3.25,8.76,35.46,35.46,0,0,1-6.2,7.88,45,45,0,0,1-8,6.07,53.88,53.88,0,0,1-8.41,4.06,55.2,55.2,0,0,1-15.38,3.43,53.3,53.3,0,0,1-10.63-.24c-1.25-.15-2.21-.32-2.86-.45l-.73-.15a.83.83,0,0,1-.25-.06.74.74,0,0,1,.26,0l.74.1c.65.1,1.62.23,2.86.35a57.76,57.76,0,0,0,10.58.08,56.45,56.45,0,0,0,15.24-3.52,48.42,48.42,0,0,0,16.2-10.05,35.5,35.5,0,0,0,6.12-7.76,27.11,27.11,0,0,0,3.21-8.59,23.32,23.32,0,0,0-2.52-15.1A19.07,19.07,0,0,0,445.3,264a18.22,18.22,0,0,0-3.59-2.76,16.78,16.78,0,0,0-2.61-1.19l-.7-.27Z" style="fill:#263238"></path><path d="M406.5,319.82a9.69,9.69,0,0,0,.37-2.73,9.24,9.24,0,0,0-.89-2.61s.34.14.67.58a4.14,4.14,0,0,1,.39,4.06C406.81,319.62,406.56,319.85,406.5,319.82Z" style="fill:#263238"></path><path d="M442,312.45a2.89,2.89,0,0,1-1.64-.27,6.16,6.16,0,0,1-4-6.45,3,3,0,0,1,.49-1.58c.08,0-.11.63-.12,1.61a6.44,6.44,0,0,0,3.76,6.08C441.43,312.27,442.05,312.37,442,312.45Z" style="fill:#263238"></path><path d="M438.16,271.54a4.76,4.76,0,0,1-.29.6c-.22.38-.49,1-.94,1.67a38.49,38.49,0,0,1-4.2,5.66,40.8,40.8,0,0,1-42.54,11.88,37.94,37.94,0,0,1-6.53-2.67c-.75-.37-1.29-.73-1.67-.94a3.37,3.37,0,0,1-.56-.37,3.57,3.57,0,0,1,.61.28c.4.18.95.51,1.71.85a42.88,42.88,0,0,0,6.54,2.49,41.76,41.76,0,0,0,46.47-17.29c.47-.68.77-1.25,1-1.61A2.65,2.65,0,0,1,438.16,271.54Z" style="fill:#263238"></path><g style="opacity:0.2"><path d="M402.93,314.55a1.92,1.92,0,0,0-.23,2.69,5.14,5.14,0,0,0,2.57,1.52A42.82,42.82,0,0,0,455.65,300c3.85-6.51,5.92-14.64,3.13-21.67-.71-1.81-2.41-3.78-4.24-3.12s-1.89,3.05-1.91,4.94c-.08,10.89-7.5,20.76-16.89,26.29s-20.49,7.36-31.36,8.09"></path></g></g><g id="freepik--Table--inject-6"><path d="M721,424.56c0,.14-154.12.26-344.19.26S32.6,424.7,32.6,424.56s154.08-.26,344.22-.26S721,424.42,721,424.56Z" style="fill:#263238"></path></g><g id="freepik--Books--inject-6"><path d="M67.77,362.64s-16.49,12.56-.69,29.16a1.45,1.45,0,0,0,1,.44l144.08-.84s12.31-13.8,2.1-29.7Z" style="fill:#263238"></path><path d="M74.27,392.52a.69.69,0,0,1-.27,0,4.52,4.52,0,0,1-.75-.18,6,6,0,0,1-2.42-1.59,5.79,5.79,0,0,1-1.55-4.12,6.2,6.2,0,0,1,2.66-4.87l.07.45a5.1,5.1,0,0,1-3.59-4.54,5,5,0,0,1,4.23-5.08l-.08.45a5.79,5.79,0,0,1-2.86-4.32,5.41,5.41,0,0,1,1.1-3.93,5.59,5.59,0,0,1,2.09-1.67,4.07,4.07,0,0,1,.68-.24c.15,0,.24-.05.24,0s-.31.13-.85.41A5.8,5.8,0,0,0,71.06,365a5.11,5.11,0,0,0-.94,3.7,5.4,5.4,0,0,0,2.68,3.94l.65.36-.73.1a4.44,4.44,0,0,0-.58,8.66l.52.15-.45.3a5.8,5.8,0,0,0-2.51,4.47,5.51,5.51,0,0,0,1.37,3.89,6.1,6.1,0,0,0,2.24,1.64C73.92,392.42,74.28,392.48,74.27,392.52Z" style="fill:#e0e0e0"></path><path d="M74.31,387.57s-.12,0-.26-.12a1,1,0,0,1-.21-.79h0v0a1.82,1.82,0,0,1,.93-1,4.26,4.26,0,0,1,1.71-.39,12.1,12.1,0,0,1,2.06.06c.36,0,.73.09,1.11.17a2.79,2.79,0,0,1,1.18.45,1.28,1.28,0,0,1,.52.89,1.06,1.06,0,0,1-.45.93,3.21,3.21,0,0,1-1.59.49,12.08,12.08,0,0,1-2.67,0,4.63,4.63,0,0,1-2.33-.72c0-.09.89.28,2.36.35a12.6,12.6,0,0,0,2.58-.15,2.89,2.89,0,0,0,1.34-.41.6.6,0,0,0-.07-1,2.44,2.44,0,0,0-1-.35,10.39,10.39,0,0,0-1.07-.18,14,14,0,0,0-2-.12,2.54,2.54,0,0,0-2.42,1v0a1,1,0,0,0,.07.67C74.23,387.5,74.32,387.54,74.31,387.57Z" style="fill:#e0e0e0"></path><path d="M73.91,377.83s-.11,0-.25-.11a1,1,0,0,1-.21-.8h0v0a1.79,1.79,0,0,1,.93-1,4.26,4.26,0,0,1,1.71-.4,13.07,13.07,0,0,1,2,.06c.37,0,.74.1,1.12.17a2.93,2.93,0,0,1,1.18.45,1.3,1.3,0,0,1,.52.9,1.1,1.1,0,0,1-.45.93,3.3,3.3,0,0,1-1.59.48,11,11,0,0,1-2.67,0,4.64,4.64,0,0,1-2.34-.72,22.44,22.44,0,0,0,2.37.36,14.25,14.25,0,0,0,2.58-.15,2.9,2.9,0,0,0,1.34-.42c.36-.24.3-.71-.08-1a2.21,2.21,0,0,0-1-.36c-.37-.08-.72-.13-1.07-.18a14,14,0,0,0-2-.11,2.54,2.54,0,0,0-2.42,1v0a.94.94,0,0,0,.07.66C73.84,377.76,73.93,377.81,73.91,377.83Z" style="fill:#e0e0e0"></path><path d="M74.12,368.41s-.11,0-.26-.11a1,1,0,0,1-.21-.8h0v0a1.8,1.8,0,0,1,.92-1,4.3,4.3,0,0,1,1.71-.4,13.2,13.2,0,0,1,2.06.06c.36,0,.74.1,1.12.17a2.93,2.93,0,0,1,1.18.45,1.29,1.29,0,0,1,.51.9,1.07,1.07,0,0,1-.44.93,3.3,3.3,0,0,1-1.59.48,11,11,0,0,1-2.67,0,4.64,4.64,0,0,1-2.34-.72,21.87,21.87,0,0,0,2.37.36,14.09,14.09,0,0,0,2.57-.15,2.86,2.86,0,0,0,1.34-.42c.36-.24.31-.71-.07-1a2.21,2.21,0,0,0-1-.36c-.36-.08-.72-.13-1.07-.18a13.82,13.82,0,0,0-2-.11,2.53,2.53,0,0,0-2.42,1v0a.94.94,0,0,0,.07.66C74.05,368.34,74.13,368.39,74.12,368.41Z" style="fill:#e0e0e0"></path><path d="M203.69,362.1s.09,0,.27,0a3.86,3.86,0,0,1,.75.19,5.9,5.9,0,0,1,4,5.7,6.19,6.19,0,0,1-2.66,4.87l-.07-.44a4.93,4.93,0,0,1-.64,9.62l.08-.46a5.8,5.8,0,0,1,2.86,4.32,5.55,5.55,0,0,1-3.19,5.6,3.32,3.32,0,0,1-.68.24.62.62,0,0,1-.24,0s.31-.13.84-.42a5.67,5.67,0,0,0,1.92-1.7,5.16,5.16,0,0,0,.94-3.7,5.43,5.43,0,0,0-2.68-4l-.65-.36.73-.1A4.56,4.56,0,0,0,209,377a4.64,4.64,0,0,0-3.2-4.1l-.52-.14.45-.3a5.83,5.83,0,0,0,2.51-4.48,5.48,5.48,0,0,0-1.37-3.88,6.15,6.15,0,0,0-2.24-1.65C204,362.2,203.68,362.14,203.69,362.1Z" style="fill:#e0e0e0"></path><path d="M203.65,367.05s.12,0,.26.11a1,1,0,0,1,.21.8h0v0a1.76,1.76,0,0,1-.92,1,4.3,4.3,0,0,1-1.71.4,13.23,13.23,0,0,1-2.06-.06c-.36,0-.73-.1-1.11-.17a2.93,2.93,0,0,1-1.18-.45,1.27,1.27,0,0,1-.52-.9,1.05,1.05,0,0,1,.45-.93,3.3,3.3,0,0,1,1.59-.48,11,11,0,0,1,2.67,0,4.57,4.57,0,0,1,2.33.72,21.91,21.91,0,0,0-2.36-.36,14.2,14.2,0,0,0-2.58.15,2.9,2.9,0,0,0-1.34.42c-.36.24-.31.71.07,1a2.25,2.25,0,0,0,1,.36c.36.08.72.13,1.07.18a13.88,13.88,0,0,0,2,.11,2.54,2.54,0,0,0,2.42-1v0a.94.94,0,0,0-.07-.66C203.73,367.12,203.64,367.07,203.65,367.05Z" style="fill:#e0e0e0"></path><path d="M204,376.78s.12,0,.26.12a1,1,0,0,1,.21.79h0v0a1.82,1.82,0,0,1-.93,1,4.26,4.26,0,0,1-1.71.39,12.1,12.1,0,0,1-2.06-.06c-.36,0-.73-.09-1.11-.17a2.79,2.79,0,0,1-1.18-.45,1.28,1.28,0,0,1-.52-.89,1.07,1.07,0,0,1,.45-.93,3.32,3.32,0,0,1,1.59-.49,12.08,12.08,0,0,1,2.67,0,4.63,4.63,0,0,1,2.33.72c0,.09-.89-.28-2.36-.35a12.6,12.6,0,0,0-2.58.15,3,3,0,0,0-1.34.41.6.6,0,0,0,.07,1,2.61,2.61,0,0,0,1,.36c.36.07.72.13,1.07.17a14,14,0,0,0,2,.12,2.54,2.54,0,0,0,2.42-1v0a1,1,0,0,0-.07-.67C204.12,376.85,204,376.81,204,376.78Z" style="fill:#e0e0e0"></path><path d="M203.84,386.2s.11,0,.26.12a1,1,0,0,1,.21.79h0v0a1.83,1.83,0,0,1-.92,1,4.31,4.31,0,0,1-1.72.39,12,12,0,0,1-2-.06c-.36,0-.74-.09-1.12-.17a2.79,2.79,0,0,1-1.18-.45,1.27,1.27,0,0,1-.51-.89,1.05,1.05,0,0,1,.44-.93,3.32,3.32,0,0,1,1.59-.49,12.08,12.08,0,0,1,2.67,0,4.76,4.76,0,0,1,2.34.72c0,.09-.89-.28-2.37-.35a12.5,12.5,0,0,0-2.57.15,2.94,2.94,0,0,0-1.35.41.61.61,0,0,0,.08,1,2.48,2.48,0,0,0,1,.36c.36.07.72.13,1.07.17a13.9,13.9,0,0,0,2,.12c1.21,0,2.18-.42,2.42-1v0a.92.92,0,0,0-.06-.67C203.91,386.27,203.83,386.23,203.84,386.2Z" style="fill:#e0e0e0"></path><path d="M180.54,375.75c0,.14-17.94.26-40.07.26s-40.07-.12-40.07-.26,17.94-.26,40.07-.26S180.54,375.61,180.54,375.75Z" style="fill:#e0e0e0"></path><path d="M158.13,381c0,.15-8.44.26-18.84.26s-18.84-.11-18.84-.26,8.43-.26,18.84-.26S158.13,380.82,158.13,381Z" style="fill:#e0e0e0"></path><path d="M89,239.38S73.8,251,88.35,266.24a1.35,1.35,0,0,0,1,.41L222,265.87s11.33-12.71,1.93-27.36Z" style="fill:#263238"></path><path d="M192.71,251.46c0,.14-16.53.26-36.91.26s-36.92-.12-36.92-.26,16.53-.26,36.92-.26S192.71,251.31,192.71,251.46Z" style="fill:#e0e0e0"></path><path d="M172.06,256.26c0,.14-7.77.26-17.35.26s-17.36-.12-17.36-.26,7.77-.26,17.36-.26S172.06,256.11,172.06,256.26Z" style="fill:#e0e0e0"></path><path d="M206.28,265.45c-.09,0,.29-1.52.7-4a54.91,54.91,0,0,0-.18-19.36c-.46-2.45-.87-3.94-.78-4a4.43,4.43,0,0,1,.38,1c.22.66.48,1.65.76,2.87a47.29,47.29,0,0,1,.19,19.49c-.26,1.23-.5,2.22-.71,2.89A4.8,4.8,0,0,1,206.28,265.45Z" style="fill:#e0e0e0"></path><path d="M216.18,238.35a4.45,4.45,0,0,1,.59,1,12,12,0,0,1,.59,1.19c.2.48.47,1,.67,1.63a28.05,28.05,0,0,1,1.27,4.4,32,32,0,0,1,.57,5.58,32.55,32.55,0,0,1-.48,5.6,29.24,29.24,0,0,1-1.19,4.42c-.2.62-.46,1.16-.65,1.63s-.4.88-.57,1.2a4.32,4.32,0,0,1-.58,1c-.09-.05.65-1.48,1.45-3.93a31.52,31.52,0,0,0,1.06-4.39,33.68,33.68,0,0,0,.44-5.5,33.11,33.11,0,0,0-.53-5.5,32.31,32.31,0,0,0-1.13-4.37C216.86,239.81,216.09,238.39,216.18,238.35Z" style="fill:#e0e0e0"></path><path d="M109.93,265.63a4.51,4.51,0,0,1-.61-.89,9.62,9.62,0,0,1-.62-1.11,13.92,13.92,0,0,1-.71-1.53,22.57,22.57,0,0,1-1.29-4.18,24.46,24.46,0,0,1,.14-10.68,24.16,24.16,0,0,1,1.4-4.15c.24-.58.52-1.07.75-1.51a10.45,10.45,0,0,1,.65-1.09,4.09,4.09,0,0,1,.64-.87c.09.06-.77,1.34-1.7,3.62a25.84,25.84,0,0,0-1.27,4.11,28.86,28.86,0,0,0-.61,5.23,28.52,28.52,0,0,0,.47,5.24,26.37,26.37,0,0,0,1.16,4.15C109.2,264.27,110,265.57,109.93,265.63Z" style="fill:#e0e0e0"></path><path d="M95.6,268.86a5.52,5.52,0,0,1-.68-1,13.23,13.23,0,0,1-.69-1.25,18.65,18.65,0,0,1-.8-1.71,27.53,27.53,0,0,1-1.52-4.69,32,32,0,0,1-.75-6,33.39,33.39,0,0,1,.48-6A29.82,29.82,0,0,1,93,243.46c.22-.66.51-1.23.73-1.74a11,11,0,0,1,.63-1.28,6.09,6.09,0,0,1,.64-1c.09,0-.76,1.56-1.65,4.19a30.29,30.29,0,0,0-1.18,4.7,34.43,34.43,0,0,0-.44,5.92,34.07,34.07,0,0,0,.7,5.9,31.85,31.85,0,0,0,1.39,4.65C94.78,267.34,95.69,268.81,95.6,268.86Z" style="fill:#e0e0e0"></path><polygon points="43.71 422.54 43.37 392.14 59.91 392.14 60.48 422.54 43.71 422.54" style="fill:#f5f5f5"></polygon><path d="M58.94,397.55a57.9,57.9,0,0,1-7.69.26,57.77,57.77,0,0,1-7.69-.26,57.77,57.77,0,0,1,7.69-.26A57.9,57.9,0,0,1,58.94,397.55Z" style="fill:#e0e0e0"></path><path d="M58.94,402.24a57.9,57.9,0,0,1-7.69.26,57.77,57.77,0,0,1-7.69-.26,57.77,57.77,0,0,1,7.69-.26A57.9,57.9,0,0,1,58.94,402.24Z" style="fill:#e0e0e0"></path><path d="M58.94,406.93a55.93,55.93,0,0,1-7.69.26,55.81,55.81,0,0,1-7.69-.26,57.77,57.77,0,0,1,7.69-.26A57.9,57.9,0,0,1,58.94,406.93Z" style="fill:#e0e0e0"></path><path d="M58.94,411.62a55.93,55.93,0,0,1-7.69.26,55.81,55.81,0,0,1-7.69-.26,57.77,57.77,0,0,1,7.69-.26A57.9,57.9,0,0,1,58.94,411.62Z" style="fill:#e0e0e0"></path><path d="M58.94,416.32a57.9,57.9,0,0,1-7.69.26,57.77,57.77,0,0,1-7.69-.26,55.81,55.81,0,0,1,7.69-.26A55.93,55.93,0,0,1,58.94,416.32Z" style="fill:#e0e0e0"></path><path d="M41.93,391.13H225.32c2.27,10.07,2,21.15,0,32.86H42.72v-2.23H53.87a5.27,5.27,0,0,0,5.27-5.27V398.3A5.26,5.26,0,0,0,53.87,393H41.93Z" style="fill:#455a64"></path><path d="M86.73,401.81a1.77,1.77,0,0,1,.08.22q.19.68,2.16,11.37a.45.45,0,0,1,0,.16.69.69,0,0,1-.09.34.6.6,0,0,1-.55.33h-.1a.6.6,0,0,1-.51-.45L87,410H83.25l-1.81,3.79a.34.34,0,0,1-.06.12.71.71,0,0,1-.56.32.65.65,0,0,1-.36-.1.64.64,0,0,1-.3-.56.43.43,0,0,1,0-.19c.11-.27.3-.68.56-1.25q4-8.62,4.73-10.19a.69.69,0,0,1,1.24-.13Zm-.82,2.54-2,4.29h2.88Z" style="fill:#263238"></path><path d="M90.19,412a1.28,1.28,0,0,1,0-.3.67.67,0,0,1,.06-.28.5.5,0,0,1,.49-.31.79.79,0,0,1,.6.36l.17.21a3.07,3.07,0,0,0,2.21,1.42,2.53,2.53,0,0,0,2.51-2.51,2.48,2.48,0,0,0-.46-1.5,4.25,4.25,0,0,0-1.3-1c-.65-.38-1-.61-1.16-.7a5,5,0,0,1-.72-.61,2.72,2.72,0,0,1-.73-1.94c0-.1,0-.21,0-.32a3.2,3.2,0,0,1,1-2.1,3.14,3.14,0,0,1,2.21-.86,3.22,3.22,0,0,1,1.06.17,3.05,3.05,0,0,1,1.66,1.28,1,1,0,0,1,.1.36.63.63,0,0,1-.08.29.57.57,0,0,1-.52.31.51.51,0,0,1-.42-.16,2.41,2.41,0,0,0-1.81-1,1.94,1.94,0,0,0-1.36.55,2,2,0,0,0-.65,1.51,1.57,1.57,0,0,0,.34,1,4.5,4.5,0,0,0,1.2.93,12.3,12.3,0,0,1,1.46,1,3.6,3.6,0,0,1,1.54,2.88,3.64,3.64,0,0,1-.07.74,3.73,3.73,0,0,1-1.37,2.18,3.85,3.85,0,0,1-2.47.88,3.53,3.53,0,0,1-1.71-.45A4.43,4.43,0,0,1,90.19,412Z" style="fill:#263238"></path><path d="M109.18,402.15a.63.63,0,0,1-.1.32.7.7,0,0,1-.62.29H104.7q-1.32,10.41-1.39,10.8s0,.07,0,.1a.65.65,0,0,1-.68.57.6.6,0,0,1-.35-.1.79.79,0,0,1-.31-.7q0-.09,1-7.5c.23-1.67.37-2.73.42-3.17H99.86a1,1,0,0,1-.36-.05.55.55,0,0,1-.44-.53.82.82,0,0,1,.1-.37.68.68,0,0,1,.62-.32h8.7a.74.74,0,0,1,.24.05A.61.61,0,0,1,109.18,402.15Z" style="fill:#263238"></path><path d="M110.42,413.56c-.07.44-.3.67-.67.67a.57.57,0,0,1-.34-.1.76.76,0,0,1-.33-.7q.38-3.09,1.49-11.32a.64.64,0,0,1,.17-.31,1,1,0,0,1,.69-.25,8,8,0,0,1,1.61-.14,6.79,6.79,0,0,1,1.15.09,2.42,2.42,0,0,1,2.31,2.55,4.39,4.39,0,0,1-.27,1.55q-.83,2.23-4.09,3.25l4.54,4.15a.88.88,0,0,1,.28.59.68.68,0,0,1-.09.33.6.6,0,0,1-.53.31,1,1,0,0,1-.54-.18c-.12-.09-1.74-1.56-4.86-4.43C110.67,411.8,110.49,413.11,110.42,413.56Zm1.43-10.81-.64,4.93a6.26,6.26,0,0,0,2.21-.77,3.17,3.17,0,0,0,1.8-2.83c0-.95-.72-1.43-2.16-1.44Z" style="fill:#263238"></path><path d="M117.85,409a9.81,9.81,0,0,1,.39-2.71,8.73,8.73,0,0,1,1.84-3.5,3.69,3.69,0,0,1,2.71-1.43,2.8,2.8,0,0,1,2.26,1.23,6.24,6.24,0,0,1,1.12,3.45c.18-.07.45-.19.8-.36a2.55,2.55,0,0,1,1-.33.6.6,0,0,1,.29.08.57.57,0,0,1,.31.53.89.89,0,0,1-.29.59,4.13,4.13,0,0,1-2.15.89,9,9,0,0,1-.31,1.78,8.45,8.45,0,0,1-1.84,3.58,3.74,3.74,0,0,1-2.76,1.41l-.36,0a3,3,0,0,1-2.1-1.51A6.86,6.86,0,0,1,117.85,409Zm1.4-.24a7.14,7.14,0,0,0,.43,2.61c.38,1,.95,1.49,1.69,1.49a1.49,1.49,0,0,0,.59-.14,4.12,4.12,0,0,0,1.68-1.82,8.87,8.87,0,0,0,1.12-3.34,4,4,0,0,1-2.23-.69,4.82,4.82,0,0,1-1.9-2.64A8.12,8.12,0,0,0,119.25,408.78Zm3.79-5.9a.79.79,0,0,0-.38.09,1.08,1.08,0,0,0-.46,1,1.5,1.5,0,0,0,0,.29,2.25,2.25,0,0,0,1.13,1.53,2.93,2.93,0,0,0,1.44.48,9,9,0,0,0-.19-1.34C124.3,403.62,123.78,402.93,123,402.88Z" style="fill:#263238"></path><path d="M136.5,413.59c-.06.42-.28.64-.66.64a.83.83,0,0,1-.7-.48L131,404.24c0,.45-.11.95-.19,1.51-.54,4.56-.87,7.17-1,7.81-.08.44-.3.67-.68.67a.64.64,0,0,1-.35-.1.78.78,0,0,1-.32-.7q1.48-11.3,1.49-11.32a1.22,1.22,0,0,1,.09-.27.68.68,0,0,1,.61-.33c.36,0,.59.1.7.32l4.14,9.3,1.21-9a.73.73,0,0,1,.07-.29.57.57,0,0,1,.55-.36.66.66,0,0,1,.33.09.62.62,0,0,1,.31.56c0,.19-.05.39-.07.6Q136.69,412.49,136.5,413.59Z" style="fill:#263238"></path><path d="M139.38,409a9.81,9.81,0,0,1,.39-2.71,8.73,8.73,0,0,1,1.84-3.5,3.69,3.69,0,0,1,2.71-1.43,2.8,2.8,0,0,1,2.26,1.23,6.24,6.24,0,0,1,1.12,3.45c.18-.07.45-.19.8-.36a2.55,2.55,0,0,1,1-.33.6.6,0,0,1,.29.08.57.57,0,0,1,.31.53.89.89,0,0,1-.29.59,4.13,4.13,0,0,1-2.15.89,9.75,9.75,0,0,1-.31,1.78,8.45,8.45,0,0,1-1.84,3.58,3.74,3.74,0,0,1-2.76,1.41l-.36,0a3,3,0,0,1-2.1-1.51A6.86,6.86,0,0,1,139.38,409Zm1.4-.24a7.14,7.14,0,0,0,.43,2.61c.38,1,.95,1.49,1.69,1.49a1.49,1.49,0,0,0,.59-.14,4.12,4.12,0,0,0,1.68-1.82,8.87,8.87,0,0,0,1.12-3.34,4,4,0,0,1-2.23-.69,4.82,4.82,0,0,1-1.9-2.64A8.12,8.12,0,0,0,140.78,408.78Zm3.79-5.9a.79.79,0,0,0-.38.09,1.08,1.08,0,0,0-.46,1,1.5,1.5,0,0,0,0,.29,2.22,2.22,0,0,0,1.13,1.53,2.93,2.93,0,0,0,1.44.48,9,9,0,0,0-.19-1.34C145.83,403.62,145.31,402.93,144.57,402.88Z" style="fill:#263238"></path><path d="M159.17,413.56a0,0,0,0,0,0,0c-.06.43-.28.64-.66.64a.57.57,0,0,1-.34-.1.76.76,0,0,1-.33-.7q0-.14.79-6.75-2,4.13-3.08,6.51l-.27.57a.73.73,0,0,1-.65.47h-.16c-.23-.05-.4-.24-.52-.58l-1.43-7q-.49,3.76-1,6.9a0,0,0,0,0,0,0c-.06.43-.28.64-.66.64a.57.57,0,0,1-.34-.1.76.76,0,0,1-.33-.7q0-.07,1.17-8.87c.2-1.52.31-2.33.33-2.45a.79.79,0,0,1,.1-.27.64.64,0,0,1,.59-.33.62.62,0,0,1,.19,0c.24.07.37.19.4.37q.16.92,1.07,5.37c.43,2.14.7,3.52.83,4.15l4.45-9.44a1,1,0,0,1,.09-.17.72.72,0,0,1,.59-.3.56.56,0,0,1,.3.08.69.69,0,0,1,.36.56c0,.16-.05.34-.07.55Q159.37,412.35,159.17,413.56Z" style="fill:#263238"></path><path d="M170.88,401.52a.71.71,0,0,1,.31.08.68.68,0,0,1,.35.56q-1.36,10.72-1.5,11.59a7.11,7.11,0,0,1-1.18,3,4.27,4.27,0,0,1-5.44,1.33,4,4,0,0,1-1.95-1.71.71.71,0,0,1-.07-.32.63.63,0,0,1,.09-.33.62.62,0,0,1,.56-.33.66.66,0,0,1,.51.27,3.52,3.52,0,0,0,2.83,1.61,2.76,2.76,0,0,0,2.19-1.11,6.13,6.13,0,0,0,1.22-3.48,3.22,3.22,0,0,1-.82.87,3.29,3.29,0,0,1-2,.65l-.37,0a3,3,0,0,1-2.1-1.5,6.89,6.89,0,0,1-.92-3.69q0-1,.09-2.07.17-1.68.75-4.77a.82.82,0,0,1,.06-.19.6.6,0,0,1,.59-.45.62.62,0,0,1,.32.09.59.59,0,0,1,.33.53,24.31,24.31,0,0,1-.3,2.52,35.3,35.3,0,0,0-.44,3.85,7.69,7.69,0,0,0,.5,3c.37.9.92,1.35,1.63,1.35a.83.83,0,0,0,.22,0,3,3,0,0,0,1.66-1.32,8.29,8.29,0,0,0,1.36-3.05l.84-6.3a.9.9,0,0,1,.08-.28A.62.62,0,0,1,170.88,401.52Z" style="fill:#263238"></path><circle cx="196.62" cy="407.69" r="9.64" transform="translate(-230.69 258.44) rotate(-45)" style="fill:#263238"></circle><path d="M195.36,410.7a1.57,1.57,0,1,1-1.57-1.57A1.57,1.57,0,0,1,195.36,410.7Z" style="fill:#455a64"></path><circle cx="192.22" cy="406.16" r="0.91" style="fill:#455a64"></circle><path d="M187.26,410c0,.16-8.25,8.13-6.11,9.82s11.13-2.65,18.8-8.85,14.67-13.71,12.76-15.7-11.5,3.9-11.5,3.9l1.14.73s5.8-3.72,7.63-2.27-3.39,7.07-10.77,12.46-14.5,9.16-15.6,7.68,4.11-6.39,4.11-6.39Z" style="fill:#263238"></path><g style="opacity:0.30000000000000004"><path d="M191.3,400.9c.08.09-.57.65-1.31,1.76a8.87,8.87,0,0,0-.2,9.75c.7,1.15,1.33,1.73,1.25,1.82s-.83-.38-1.69-1.52a8.59,8.59,0,0,1-1.67-5.22,8.85,8.85,0,0,1,.62-3,8.57,8.57,0,0,1,1.26-2.14C190.46,401.25,191.26,400.83,191.3,400.9Z" style="fill:#455a64"></path></g><path d="M219,424.62c-.14,0-.26-7.55-.26-16.86s.12-16.85.26-16.85.26,7.54.26,16.85S219.14,424.62,219,424.62Z" style="fill:#263238"></path><path d="M68.92,424.62c-.14,0-.26-7.55-.26-16.86s.12-16.85.26-16.85.26,7.54.26,16.85S69.07,424.62,68.92,424.62Z" style="fill:#263238"></path><path d="M222.21,424.62c-.14,0-.26-7.55-.26-16.86s.12-16.85.26-16.85.26,7.54.26,16.85S222.35,424.62,222.21,424.62Z" style="fill:#263238"></path><path d="M65.91,424.62c-.14,0-.26-7.55-.26-16.86s.12-16.85.26-16.85.26,7.54.26,16.85S66.06,424.62,65.91,424.62Z" style="fill:#263238"></path><path d="M204,335.82v25.4H180.12v-25.4Z" style="fill:#ebebeb"></path><path d="M73.11,333.65c-3.72,9-3.18,18.9,0,29.4H205.23v-1.83h-8.42a12.7,12.7,0,0,1-12.69-12.7h0a12.69,12.69,0,0,1,12.69-12.7h8.89v-2.7Z" style="fill:#FF7300"></path><path d="M189.9,337.75c0,.15-26.46.26-59.09.26s-59.09-.11-59.09-.26,26.45-.26,59.09-.26S189.9,337.61,189.9,337.75Z" style="fill:#e0e0e0"></path><path d="M191,359.82c0,.14-26.6.26-59.4.26s-59.42-.12-59.42-.26,26.6-.26,59.42-.26S191,359.68,191,359.82Z" style="fill:#e0e0e0"></path><g style="opacity:0.30000000000000004"><path d="M121.58,342.17q3.06,0,3.12,2.31a3.55,3.55,0,0,1-1.3,2.95,2.49,2.49,0,0,1,2,2.58,4.06,4.06,0,0,1-.34,1.44q-1,2.12-4.58,2.11c-.29,0-.72,0-1.3-.05a.59.59,0,0,1-.32-.09.7.7,0,0,1-.28-.61l1.3-10a.69.69,0,0,1,0-.24.53.53,0,0,1,.52-.32A7.72,7.72,0,0,1,121.58,342.17Zm-1.24,6.11-.55,4.16.65,0a6.61,6.61,0,0,0,2-.27,2.19,2.19,0,0,0,1.78-2.17c0-.72-.48-1.22-1.42-1.49A12,12,0,0,0,120.34,348.28Zm.65-5-.51,3.83.44,0c1.77-.1,2.65-1,2.65-2.59a1.07,1.07,0,0,0-.48-.92,3.43,3.43,0,0,0-1.76-.33A2,2,0,0,0,121,343.26Z"></path><path d="M126.66,348.91a8.61,8.61,0,0,1,.34-2.38,7.62,7.62,0,0,1,1.63-3.08,3.2,3.2,0,0,1,2.38-1.27,2.49,2.49,0,0,1,2,1.08,5.45,5.45,0,0,1,1,3.05c.16-.06.4-.17.71-.32a2.33,2.33,0,0,1,.89-.29.48.48,0,0,1,.26.07.51.51,0,0,1,.27.46.79.79,0,0,1-.26.53,3.64,3.64,0,0,1-1.89.78,8.32,8.32,0,0,1-.27,1.57,7.48,7.48,0,0,1-1.63,3.16,3.26,3.26,0,0,1-2.43,1.24,1.72,1.72,0,0,1-.32,0,2.6,2.6,0,0,1-1.85-1.33A6,6,0,0,1,126.66,348.91Zm1.23-.2a6.35,6.35,0,0,0,.38,2.29c.34.88.84,1.32,1.49,1.32a1.14,1.14,0,0,0,.52-.13,3.62,3.62,0,0,0,1.49-1.59,8,8,0,0,0,1-3,3.48,3.48,0,0,1-2-.6,4.22,4.22,0,0,1-1.68-2.33A7.23,7.23,0,0,0,127.89,348.71Zm3.35-5.21a.64.64,0,0,0-.34.09.93.93,0,0,0-.4.9,1.18,1.18,0,0,0,0,.26,2,2,0,0,0,1,1.35,2.58,2.58,0,0,0,1.27.42,7,7,0,0,0-.18-1.18C132.35,344.16,131.89,343.55,131.24,343.5Z"></path><path d="M143.83,342.86a.49.49,0,0,1-.09.28.62.62,0,0,1-.54.26h-3.32q-1.15,9.18-1.22,9.52V353a.58.58,0,0,1-.6.5.51.51,0,0,1-.3-.09.68.68,0,0,1-.28-.61c0-.06.29-2.26.87-6.62.2-1.47.33-2.4.37-2.79h-3.09a.86.86,0,0,1-.32,0,.47.47,0,0,1-.39-.47.62.62,0,0,1,.09-.32.59.59,0,0,1,.54-.28h7.67a.6.6,0,0,1,.22,0A.54.54,0,0,1,143.83,342.86Z"></path><path d="M146.87,342.56a.77.77,0,0,1,.07.2c.12.39.75,3.73,1.91,10a.32.32,0,0,1,0,.14.67.67,0,0,1-.08.3.56.56,0,0,1-.49.29h-.09a.55.55,0,0,1-.45-.4l-.64-3.33h-3.32l-1.6,3.34a.54.54,0,0,1-.05.11.64.64,0,0,1-.5.28.62.62,0,0,1-.32-.09.57.57,0,0,1-.26-.49.35.35,0,0,1,0-.17c.1-.23.26-.6.49-1.1q3.48-7.61,4.17-9a.63.63,0,0,1,.56-.41A.62.62,0,0,1,146.87,342.56Zm-.72,2.24-1.8,3.78h2.54Z"></path><path d="M157.43,352.94q-.08.57-.57.57a.71.71,0,0,1-.62-.42l-3.67-8.39c0,.4-.1.84-.17,1.33-.48,4-.77,6.32-.87,6.89-.06.39-.26.59-.59.59a.56.56,0,0,1-.31-.09.69.69,0,0,1-.29-.61q1.32-10,1.32-10a.9.9,0,0,1,.08-.23.59.59,0,0,1,.54-.3.63.63,0,0,1,.61.28l3.65,8.21,1.07-7.93a.54.54,0,0,1,.06-.25.5.5,0,0,1,.49-.32.53.53,0,0,1,.29.08.55.55,0,0,1,.27.49c0,.17,0,.34-.06.53Q157.59,352,157.43,352.94Z"></path><path d="M167.73,342.31a.6.6,0,0,1,.27.06.58.58,0,0,1,.32.5q-1.2,9.45-1.32,10.22a6.35,6.35,0,0,1-1.05,2.66,3.79,3.79,0,0,1-3.23,1.59,3.73,3.73,0,0,1-1.56-.42,3.37,3.37,0,0,1-1.72-1.51.53.53,0,0,1-.07-.28.6.6,0,0,1,.08-.29.56.56,0,0,1,.5-.29.58.58,0,0,1,.44.24,3.14,3.14,0,0,0,2.5,1.42,2.47,2.47,0,0,0,1.94-1,5.41,5.41,0,0,0,1.07-3.07,2.91,2.91,0,0,1-2.47,1.34l-.32,0a2.61,2.61,0,0,1-1.85-1.33,6,6,0,0,1-.81-3.25c0-.59,0-1.2.07-1.83.1-1,.32-2.38.67-4.2a.3.3,0,0,1,.05-.16.53.53,0,0,1,.52-.4.5.5,0,0,1,.28.08.51.51,0,0,1,.29.46,21,21,0,0,1-.27,2.22,31.74,31.74,0,0,0-.38,3.4,6.81,6.81,0,0,0,.43,2.64c.34.8.82,1.19,1.45,1.19l.19,0a2.63,2.63,0,0,0,1.46-1.17,7.18,7.18,0,0,0,1.2-2.68l.74-5.56a.62.62,0,0,1,.08-.24A.51.51,0,0,1,167.73,342.31Z"></path></g><g style="opacity:0.30000000000000004"><path d="M91.93,354.29A5.14,5.14,0,0,0,95.09,350a6.24,6.24,0,0,0-2.22-4.26,18.72,18.72,0,0,0-4.18-2.59L85,341.26a1.48,1.48,0,0,0-1.26-.21,1.46,1.46,0,0,0-.62,1.14,16.59,16.59,0,0,0,1.14,9.33c.78,1.78,1.84,3.41,3.65,4a5.75,5.75,0,0,0,4-1.25"></path></g><path d="M93.75,356.61a54.91,54.91,0,0,1-4.46-6.17,53.84,53.84,0,0,1-4-6.47,57.23,57.23,0,0,1,4.46,6.18A56.84,56.84,0,0,1,93.75,356.61Z" style="fill:#FF7300"></path><path d="M89,349.52c0,.14-.91.06-2-.18s-1.87-.55-1.83-.69.9-.06,2,.18S89,349.38,89,349.52Z" style="fill:#FF7300"></path><path d="M91.18,352.59c0,.14-.9.06-2-.18s-1.87-.55-1.84-.69.91-.06,2,.18S91.21,352.45,91.18,352.59Z" style="fill:#FF7300"></path><path d="M90.29,351.34a9.74,9.74,0,0,1,0-4.47,9.74,9.74,0,0,1,0,4.47Z" style="fill:#FF7300"></path><g style="opacity:0.30000000000000004"><path d="M100,352.11a4.06,4.06,0,0,0,4,1.35,4.85,4.85,0,0,0,2.66-2.66,14.42,14.42,0,0,0,1-3.73c.17-1.06.35-2.12.52-3.17a1.13,1.13,0,0,0-.14-1,1.1,1.1,0,0,0-1-.2,12.92,12.92,0,0,0-6.71,3,5.19,5.19,0,0,0-2.15,3.67,4.47,4.47,0,0,0,1.86,2.7"></path></g><path d="M98.7,354a34.68,34.68,0,0,1,3.53-4.82,34.66,34.66,0,0,1,3.93-4.49,33.39,33.39,0,0,1-3.52,4.81A33.16,33.16,0,0,1,98.7,354Z" style="fill:#FF7300"></path><path d="M102.89,348.79c-.14,0-.31-.66-.38-1.49s0-1.53.14-1.54.32.66.38,1.49S103,348.78,102.89,348.79Z" style="fill:#FF7300"></path><path d="M101.11,351.15c-.14,0-.31-.66-.38-1.49s0-1.53.14-1.54.32.66.38,1.5S101.26,351.14,101.11,351.15Z" style="fill:#FF7300"></path><path d="M101.84,350.2c0-.14.67-.49,1.59-.78s1.7-.42,1.74-.28-.66.48-1.59.77S101.88,350.33,101.84,350.2Z" style="fill:#FF7300"></path><path d="M204,348.86a95.91,95.91,0,0,1-9.91.26,95.91,95.91,0,0,1-9.91-.26,92.65,92.65,0,0,1,9.91-.26A92.65,92.65,0,0,1,204,348.86Z" style="fill:#e0e0e0"></path><path d="M204,354.58a80,80,0,0,1-9,.26,80,80,0,0,1-9.05-.26,77.24,77.24,0,0,1,9.05-.26A77.24,77.24,0,0,1,204,354.58Z" style="fill:#e0e0e0"></path><path d="M204.08,359.81a41.33,41.33,0,0,1-6.61.26,41.25,41.25,0,0,1-6.6-.26,42.7,42.7,0,0,1,6.6-.26A42.78,42.78,0,0,1,204.08,359.81Z" style="fill:#e0e0e0"></path><path d="M204.12,343.71a85.7,85.7,0,0,1-9.53.26,85.55,85.55,0,0,1-9.53-.26,88.56,88.56,0,0,1,9.53-.26A88.71,88.71,0,0,1,204.12,343.71Z" style="fill:#e0e0e0"></path><path d="M204,338.57a51.32,51.32,0,0,1-7.37.26,51.41,51.41,0,0,1-7.38-.26,53.21,53.21,0,0,1,7.38-.26A53.12,53.12,0,0,1,204,338.57Z" style="fill:#e0e0e0"></path><path d="M217.17,306.3v25.39H168V306.3Z" style="fill:#ebebeb"></path><path d="M58.44,319.23l0,.67a14.56,14.56,0,0,0,14.62,13.63H219.46v-1.84H184.71A12.69,12.69,0,0,1,172,319h0a12.69,12.69,0,0,1,12.69-12.69h34.75v-2.7l-146.41.49A14.65,14.65,0,0,0,58.44,319.23Z" style="fill:#FF7300"></path><path d="M217.17,319.33c0,.15-10.11.26-22.57.26s-22.57-.11-22.57-.26,10.11-.26,22.57-.26S217.17,319.19,217.17,319.33Z" style="fill:#e0e0e0"></path><path d="M216.46,325.06c0,.14-9.56.26-21.36.26s-21.35-.12-21.35-.26,9.56-.26,21.35-.26S216.46,324.91,216.46,325.06Z" style="fill:#e0e0e0"></path><path d="M217.17,330.29c0,.14-8.6.26-19.2.26s-19.2-.12-19.2-.26,8.59-.26,19.2-.26S217.17,330.15,217.17,330.29Z" style="fill:#e0e0e0"></path><path d="M217.17,314.19c0,.14-9.9.26-22.11.26s-22.1-.12-22.1-.26,9.89-.26,22.1-.26S217.17,314.05,217.17,314.19Z" style="fill:#e0e0e0"></path><path d="M216.46,309.05c0,.14-8.81.26-19.68.26s-19.68-.12-19.68-.26,8.81-.26,19.68-.26S216.46,308.91,216.46,309.05Z" style="fill:#e0e0e0"></path><g style="opacity:0.30000000000000004"><path d="M58.44,319.23l0,.67a14.56,14.56,0,0,0,14.62,13.63H219.46v-1.84H184.71A12.69,12.69,0,0,1,172,319h0a12.69,12.69,0,0,1,12.69-12.69h34.75v-2.7l-146.41.49A14.65,14.65,0,0,0,58.44,319.23Z"></path></g><path d="M76.18,304.52a32.07,32.07,0,0,0-3.12,3.69A18.81,18.81,0,0,0,73.32,330a31.86,31.86,0,0,0,3.2,3.62,4.59,4.59,0,0,1-1-.78A16.65,16.65,0,0,1,73,330.2a18.54,18.54,0,0,1-.26-22.2,17.31,17.31,0,0,1,2.38-2.68A4.91,4.91,0,0,1,76.18,304.52Z" style="fill:#e0e0e0"></path><path d="M71.23,304a33.46,33.46,0,0,0-3.11,3.7,18.79,18.79,0,0,0,.25,21.77,31.86,31.86,0,0,0,3.2,3.62,5,5,0,0,1-1-.78,16.66,16.66,0,0,1-2.44-2.62,18.52,18.52,0,0,1-.27-22.2,17.31,17.31,0,0,1,2.38-2.68A5.83,5.83,0,0,1,71.23,304Z" style="fill:#e0e0e0"></path><path d="M170.68,304.52a31.51,31.51,0,0,0-3.11,3.69,18.81,18.81,0,0,0,.26,21.77,29.64,29.64,0,0,0,3.2,3.62,4.74,4.74,0,0,1-1.06-.78,16.22,16.22,0,0,1-2.44-2.62,18.5,18.5,0,0,1-.26-22.2,16.33,16.33,0,0,1,2.38-2.68A4.75,4.75,0,0,1,170.68,304.52Z" style="fill:#e0e0e0"></path><path d="M165.73,304a33.46,33.46,0,0,0-3.11,3.7,18.81,18.81,0,0,0,.26,21.77,30.71,30.71,0,0,0,3.2,3.62,5.2,5.2,0,0,1-1.06-.78,17.15,17.15,0,0,1-2.44-2.62,18.54,18.54,0,0,1-.26-22.2,16.33,16.33,0,0,1,2.38-2.68A5.61,5.61,0,0,1,165.73,304Z" style="fill:#e0e0e0"></path><path d="M92.84,322.8c0-3.44-.1-6.89-.14-10.33a7.45,7.45,0,0,0-.37-2.66,2.5,2.5,0,0,0-2-1.65c-1.29-.57-3.31.5-4.21,2a9.91,9.91,0,0,0-1,5.06,74.07,74.07,0,0,0,.4,8.16,9.58,9.58,0,0,0,1,3.74,3.12,3.12,0,0,0,5.91-.5A10.63,10.63,0,0,0,92.84,322.8Z" style="fill:#e0e0e0"></path><path d="M149.68,319.83c0,.14-10.58.26-23.63.26s-23.63-.12-23.63-.26,10.58-.26,23.63-.26S149.68,319.69,149.68,319.83Z" style="fill:#e0e0e0"></path><polygon points="83.03 303.5 82.76 279.43 95.86 279.43 96.32 303.5 83.03 303.5" style="fill:#f5f5f5"></polygon><path d="M95.09,283.71A36.37,36.37,0,0,1,89,284a36.37,36.37,0,0,1-6.09-.26,36.37,36.37,0,0,1,6.09-.26A36.37,36.37,0,0,1,95.09,283.71Z" style="fill:#e0e0e0"></path><path d="M95.09,287.43a36.37,36.37,0,0,1-6.09.26,36.37,36.37,0,0,1-6.09-.26,35.14,35.14,0,0,1,6.09-.26A35.14,35.14,0,0,1,95.09,287.43Z" style="fill:#e0e0e0"></path><path d="M95.09,291.14a35.14,35.14,0,0,1-6.09.26,35.14,35.14,0,0,1-6.09-.26,36.37,36.37,0,0,1,6.09-.26A36.37,36.37,0,0,1,95.09,291.14Z" style="fill:#e0e0e0"></path><path d="M95.09,294.86a36.37,36.37,0,0,1-6.09.26,36.37,36.37,0,0,1-6.09-.26A35.14,35.14,0,0,1,89,294.6,35.14,35.14,0,0,1,95.09,294.86Z" style="fill:#e0e0e0"></path><path d="M95.09,298.57a35.14,35.14,0,0,1-6.09.26,35.14,35.14,0,0,1-6.09-.26,36.37,36.37,0,0,1,6.09-.26A36.37,36.37,0,0,1,95.09,298.57Z" style="fill:#e0e0e0"></path><path d="M81.62,278.63H226.87c1.79,8,1.54,16.74,0,26H82.24v-1.77h8.84a4.17,4.17,0,0,0,4.17-4.17v-14.4a4.17,4.17,0,0,0-4.17-4.18H81.62Z" style="fill:#FF7300"></path><path d="M116.4,291.82h2.43a.62.62,0,0,1,.26.06.5.5,0,0,1,.26.46.61.61,0,0,1,0,.15c0,.21-.11.41-.17.62a6.83,6.83,0,0,1-1.51,2.75,2.87,2.87,0,0,1-2.07,1.06,1.42,1.42,0,0,1-.29,0,2.32,2.32,0,0,1-1.65-1.19,5.47,5.47,0,0,1-.72-2.92,7.81,7.81,0,0,1,.28-2.07,7,7,0,0,1,1.44-2.81,2.9,2.9,0,0,1,2.18-1.16,2,2,0,0,1,.92.21,2.94,2.94,0,0,1,1.42,1.76.54.54,0,0,1,.06.25.52.52,0,0,1-.08.26.49.49,0,0,1-.45.26l-.16,0a.48.48,0,0,1-.33-.33l0,0a2.25,2.25,0,0,0-.29-.58,1.38,1.38,0,0,0-1.16-.69,1.35,1.35,0,0,0-.8.3,4.18,4.18,0,0,0-1.32,1.9,7,7,0,0,0-.58,2.73,4.87,4.87,0,0,0,.42,2.15,1.42,1.42,0,0,0,1.26,1,1.71,1.71,0,0,0,1.18-.71,6.53,6.53,0,0,0,1.24-2.25c-1.11,0-1.69,0-1.74,0-.38-.06-.57-.25-.58-.58a.78.78,0,0,1,0-.18A.55.55,0,0,1,116.4,291.82Z" style="fill:#fafafa"></path><path d="M124.65,287.09a1.07,1.07,0,0,1,.06.17q.17.54,1.71,9a.35.35,0,0,1,0,.13.68.68,0,0,1-.07.27.48.48,0,0,1-.44.26h-.08a.48.48,0,0,1-.4-.36l-.58-3h-3l-1.44,3,0,.1a.58.58,0,0,1-.45.25.49.49,0,0,1-.29-.08.5.5,0,0,1-.24-.44.42.42,0,0,1,0-.15l.44-1q3.14-6.84,3.75-8.07a.55.55,0,0,1,1-.1Zm-.65,2-1.62,3.39h2.28Z" style="fill:#fafafa"></path><path d="M132.75,296.92h-4.38a.48.48,0,0,1-.28-.08.77.77,0,0,1-.25-.55h0c0-.18.41-3.17,1.21-9l0-.19a.48.48,0,0,1,.47-.32.48.48,0,0,1,.24.06.49.49,0,0,1,.27.46c0,.4-.13,1.22-.29,2.46-.5,3.83-.77,5.85-.79,6.06h3.72a.82.82,0,0,1,.28,0,.52.52,0,0,1,.31.66A.59.59,0,0,1,132.75,296.92Z" style="fill:#fafafa"></path><path d="M138.73,287.09a.54.54,0,0,1,.07.17q.15.54,1.71,9a.69.69,0,0,1,0,.13.54.54,0,0,1-.07.27.47.47,0,0,1-.43.26h-.09a.49.49,0,0,1-.4-.36l-.57-3h-3l-1.43,3-.05.1a.58.58,0,0,1-.45.25.48.48,0,0,1-.28-.08.5.5,0,0,1-.24-.44.4.4,0,0,1,0-.15q.13-.31.45-1c2.09-4.56,3.33-7.25,3.74-8.07a.56.56,0,0,1,.51-.36A.52.52,0,0,1,138.73,287.09Zm-.65,2-1.61,3.39h2.28Z" style="fill:#fafafa"></path><path d="M145.71,292.25c.34.95.6,1.68.79,2.19.45,1.25.68,1.91.68,2a.43.43,0,0,1-.09.26.49.49,0,0,1-.43.24.48.48,0,0,1-.44-.35l-.08-.22q-.36-.81-1.17-3.09l-2.48,3.39a.57.57,0,0,1-.46.27.54.54,0,0,1-.27-.07.47.47,0,0,1-.25-.43.34.34,0,0,1,0-.11,1.28,1.28,0,0,1,.26-.43q1.25-1.61,2.75-3.83c-.11-.29-.21-.57-.3-.83-.93-2.49-1.4-3.78-1.4-3.87a.48.48,0,0,1,.07-.26.43.43,0,0,1,.42-.26.52.52,0,0,1,.49.28l1.46,3.95,2.92-4a.6.6,0,0,1,.47-.25.46.46,0,0,1,.23.06.49.49,0,0,1,.26.47.79.79,0,0,1-.05.24Z" style="fill:#fafafa"></path><path d="M156.54,286.86a.48.48,0,0,1,.24.06.49.49,0,0,1,.28.45c-.71,5.66-1.11,8.71-1.18,9.17a5.68,5.68,0,0,1-.94,2.39,3.42,3.42,0,0,1-2.91,1.43,3.56,3.56,0,0,1-1.4-.37,3.12,3.12,0,0,1-1.54-1.36.54.54,0,0,1-.06-.25.48.48,0,0,1,.07-.26.5.5,0,0,1,.45-.26.49.49,0,0,1,.4.21,2.82,2.82,0,0,0,2.24,1.28,2.26,2.26,0,0,0,1.74-.88,4.86,4.86,0,0,0,1-2.76,2.58,2.58,0,0,1-2.21,1.2l-.29,0a2.33,2.33,0,0,1-1.67-1.19,5.47,5.47,0,0,1-.73-2.92c0-.53,0-1.08.08-1.64.08-.89.28-2.14.59-3.77a.54.54,0,0,1,0-.15.49.49,0,0,1,.47-.36.48.48,0,0,1,.26.07.47.47,0,0,1,.26.42,19.28,19.28,0,0,1-.24,2,28,28,0,0,0-.35,3.05,6.13,6.13,0,0,0,.39,2.38c.3.71.73,1.07,1.3,1.07l.18,0a2.4,2.4,0,0,0,1.3-1.05,6.46,6.46,0,0,0,1.09-2.41l.66-5a.62.62,0,0,1,.07-.23A.46.46,0,0,1,156.54,286.86Z" style="fill:#fafafa"></path><path d="M221.85,305.15c-.14,0-.26-6-.26-13.35s.12-13.35.26-13.35.26,6,.26,13.35S222,305.15,221.85,305.15Z" style="fill:#263238"></path><path d="M103,305.15c-.14,0-.26-6-.26-13.35s.12-13.35.26-13.35.26,6,.26,13.35S103.14,305.15,103,305.15Z" style="fill:#263238"></path><path d="M224.4,305.15c-.14,0-.26-6-.26-13.35s.12-13.35.26-13.35.26,6,.26,13.35S224.55,305.15,224.4,305.15Z" style="fill:#263238"></path><path d="M100.62,305.15c-.15,0-.26-6-.26-13.35s.11-13.35.26-13.35.26,6,.26,13.35S100.76,305.15,100.62,305.15Z" style="fill:#263238"></path><path d="M186.64,282.85l0-.05L202,295.19l.14.11-.17,0-2,.54-13,3.4h-.05l-11.75-5-3.33-1.42-.87-.38-.23-.1-.07,0,.08,0,.23.09.88.36,3.35,1.39,11.77,4.92h-.05l13-3.42,2-.54,0,.15L186.53,282.9l0,0v0" style="fill:#e0e0e0"></path><polygon points="200.58 293.26 201.41 294.05 202.54 293.8 202.05 294.84 202.62 295.84 201.48 295.69 200.72 296.55 200.5 295.42 199.45 294.95 200.46 294.4 200.58 293.26" style="fill:#e0e0e0"></polygon><polygon points="185.85 298.14 186.42 298.62 187.14 298.42 186.86 299.11 187.28 299.73 186.53 299.68 186.07 300.26 185.89 299.54 185.19 299.28 185.82 298.88 185.85 298.14" style="fill:#e0e0e0"></polygon><polygon points="169.59 291.47 170.5 291.52 171.06 290.81 171.29 291.69 172.15 292 171.38 292.49 171.34 293.4 170.64 292.82 169.76 293.07 170.09 292.23 169.59 291.47" style="fill:#e0e0e0"></polygon><polygon points="207.46 283.04 208.37 283.1 208.93 282.38 209.16 283.27 210.02 283.58 209.25 284.07 209.21 284.98 208.51 284.4 207.63 284.65 207.97 283.8 207.46 283.04" style="fill:#e0e0e0"></polygon><polygon points="185.89 282.44 186.47 282.48 186.83 282.02 186.98 282.59 187.53 282.79 187.03 283.1 187.01 283.68 186.56 283.31 186 283.47 186.22 282.93 185.89 282.44" style="fill:#e0e0e0"></polygon><path d="M208.74,283.68c0,.06-5-.11-11.09-.37s-11.09-.52-11.08-.58,5,.11,11.09.37S208.74,283.62,208.74,283.68Z" style="fill:#e0e0e0"></path><path d="M214.32,278.56H67c-1.93-4.37-2.4-8.53,0-12.26H214.32A14.25,14.25,0,0,1,214.32,278.56Z" style="fill:#455a64"></path><rect x="97.51" y="269.81" width="79.81" height="4.46" style="fill:#ebebeb"></rect><path d="M72.66,278.63a4.35,4.35,0,0,1-1.16-1.49,10.69,10.69,0,0,1-1.34-4.35,10.9,10.9,0,0,1,.56-4.51,4.34,4.34,0,0,1,.89-1.67,16.71,16.71,0,0,1-.53,1.78,12.34,12.34,0,0,0-.4,4.36A12.66,12.66,0,0,0,71.83,277,14.55,14.55,0,0,1,72.66,278.63Z" style="fill:#e0e0e0"></path><path d="M75.85,278.63a4.35,4.35,0,0,1-1.16-1.49,10.69,10.69,0,0,1-1.34-4.35,10.9,10.9,0,0,1,.56-4.51,4.42,4.42,0,0,1,.88-1.67,14.22,14.22,0,0,1-.53,1.78,12.61,12.61,0,0,0-.39,4.36A12.43,12.43,0,0,0,75,277,17,17,0,0,1,75.85,278.63Z" style="fill:#e0e0e0"></path><path d="M208.36,278.34a18.41,18.41,0,0,0,.07-12,12.57,12.57,0,0,1-.07,12Z" style="fill:#e0e0e0"></path><path d="M205.61,278.31c-.15,0,.47-2.62.45-5.87s-.62-5.83-.46-5.87a14.47,14.47,0,0,1,1,5.87A14.32,14.32,0,0,1,205.61,278.31Z" style="fill:#e0e0e0"></path></g></svg>