<svg xmlns="http://www.w3.org/2000/svg" viewBox="0 0 500 500"><g id="freepik--background-simple--inject-6"><path d="M94.66,96.3l2.11-3.48c17.81-29.35,50-47,84-44.89a87.76,87.76,0,0,1,13,1.78c30.87,6.61,57.72,29.95,68.86,59.85,6.54,17.58,8.37,37.82,20.8,51.77,16.17,18.17,43.62,18.74,67.76,18s51.6-.11,67.7,18.13c10.07,11.42,13.28,27.66,12.46,42.95-2.15,40.49-30.36,76.69-66.24,94.68s-78.13,19.61-117.39,11.7c-55-11.09-107.33-41.55-138.77-88.58S69.5,147.07,94.66,96.3Z" style="fill:#f5f5f5"></path></g><g id="freepik--Table--inject-6"><path d="M486.4,422.47c0,.14-106.29.26-237.39.26s-237.42-.12-237.42-.26,106.28-.26,237.42-.26S486.4,422.32,486.4,422.47Z" style="fill:#263238"></path></g><g id="freepik--Pens--inject-6"><path d="M367.86,393s21.8-7.71,42,0h0L406,400l-36.11,1.39-2-8.32" style="fill:#FF7E1C"></path><path d="M371.49,353.88l.39,0a2.37,2.37,0,0,1,2.54,2.2l5.17,71.72-5.13.37-5.17-71.72A2.38,2.38,0,0,1,371.49,353.88Z" style="fill:#e0e0e0"></path><path d="M371.49,353.88a2.61,2.61,0,0,0-1.35.61,2.33,2.33,0,0,0-.77,1.58c0,.71.12,1.56.18,2.51.29,3.82.72,9.31,1.24,16.09,1,13.65,2.39,32.49,3.93,53.45l-.28-.24,2.75-.2,2.38-.17-.24.28c-1.49-21.06-2.83-40-3.79-53.72-.46-6.83-.83-12.35-1.09-16.2q0-.71-.09-1.35a3.6,3.6,0,0,0-.17-1.14,2.34,2.34,0,0,0-1.21-1.29,2.46,2.46,0,0,0-1.1-.22h-.39l.39-.06A2.5,2.5,0,0,1,373,354a2.46,2.46,0,0,1,1.31,1.33,3.76,3.76,0,0,1,.21,1.19c0,.42.07.87.11,1.35.3,3.84.72,9.36,1.25,16.18,1,13.72,2.4,32.66,4,53.71l0,.26-.26,0-2.38.17-2.75.2-.26,0,0-.26c-1.48-21-2.81-39.82-3.77-53.46-.46-6.79-.82-12.28-1.08-16.11-.05-.95-.14-1.78-.13-2.53a2.44,2.44,0,0,1,.86-1.65,2.38,2.38,0,0,1,1-.5A1.22,1.22,0,0,1,371.49,353.88Z" style="fill:#263238"></path><path d="M371.85,405.61l7.3-.53L380.88,429a3.67,3.67,0,0,1-3.39,3.92h0a3.68,3.68,0,0,1-3.92-3.39Z" style="fill:#455a64"></path><rect x="370.75" y="394.59" width="1.42" height="31.13" transform="translate(771.49 792.49) rotate(175.87)" style="fill:#455a64"></rect><path d="M379.15,405.08c0,.16-3,.59-7.36,1.06l.33-.38c.13,1.67.27,3.48.42,5.39.26,3.54.44,6.74.54,9.06a17.36,17.36,0,0,1,0,3.77,17.86,17.86,0,0,1-.55-3.73c-.24-2.31-.51-5.51-.77-9-.12-1.91-.24-3.73-.35-5.4l0-.35.35,0C376.11,405.08,379.14,404.93,379.15,405.08Z" style="fill:#263238"></path><rect x="379.7" y="355.76" width="5.14" height="57.99" style="fill:#e0e0e0"></rect><path d="M384.84,413.75s0-.11,0-.31,0-.51,0-.88c0-.8,0-1.92,0-3.36,0-2.94,0-7.14-.08-12.35,0-10.44-.06-24.89-.11-41.09l.26.26h-5.13c.51-.52.14-.13.25-.24v9.55q0,4.68,0,9.11c0,5.91,0,11.44,0,16.46-.05,10-.09,18-.11,22.85l-.11-.1,3.79.06,1,0,.35,0a1,1,0,0,1-.32,0l-1,0-3.85.06h-.1v-.11c0-4.87-.06-12.85-.11-22.85,0-5,0-10.55,0-16.46q0-4.43,0-9.11c0-1.56,0-3.14,0-4.74v-4.81c.12-.12-.26.24.27-.28h5.39v.26c0,16.28-.08,30.79-.11,41.28,0,5.18-.06,9.36-.08,12.29q0,2.12,0,3.3l0,.85C384.86,413.67,384.85,413.76,384.84,413.75Z" style="fill:#263238"></path><path d="M385.83,378.42h-7.32v-24a3.66,3.66,0,0,1,3.66-3.66h0a3.66,3.66,0,0,1,3.66,3.66Z" style="fill:#455a64"></path><rect x="385.83" y="358.35" width="1.42" height="31.13" style="fill:#455a64"></rect><path d="M378.51,378.42c0-.16,3-.37,7.41-.53l-.35.36c0-1.67,0-3.49,0-5.41,0-3.54,0-6.75.11-9.07a17.57,17.57,0,0,1,.28-3.76,17.57,17.57,0,0,1,.28,3.76c.07,2.32.12,5.53.12,9.07,0,1.92,0,3.74,0,5.41v.36h-.35C381.55,378.65,378.51,378.58,378.51,378.42Z" style="fill:#263238"></path><rect x="390.06" y="369.37" width="5.14" height="57.99" style="fill:#e0e0e0"></rect><path d="M395.2,427.36a1.92,1.92,0,0,1,0-.31c0-.22,0-.51,0-.88,0-.8,0-1.93,0-3.36,0-2.94-.05-7.14-.08-12.35,0-10.44-.07-24.89-.11-41.09l.26.26h-5.14c.52-.52.14-.13.26-.24v9.55q0,4.68,0,9.11c0,5.9,0,11.44,0,16.46,0,10-.09,18-.12,22.85l-.1-.1,3.78.06,1,0,.36,0a1.07,1.07,0,0,1-.32,0l-1,0-3.84.06H390v-.11c0-4.87-.07-12.85-.12-22.85,0-5,0-10.56,0-16.46,0-2.95,0-6,0-9.11v-9.55c.12-.12-.26.24.26-.28h5.4v.26c0,16.28-.08,30.79-.11,41.28,0,5.18-.06,9.36-.08,12.29,0,1.41,0,2.51,0,3.3v.85C395.21,427.28,395.2,427.37,395.2,427.36Z" style="fill:#263238"></path><path d="M396.19,392h-7.33V368a3.66,3.66,0,0,1,3.67-3.66h0a3.66,3.66,0,0,1,3.66,3.66Z" style="fill:#455a64"></path><rect x="396.19" y="371.96" width="1.42" height="31.13" style="fill:#455a64"></rect><path d="M388.86,392c0-.16,3-.37,7.42-.53l-.35.36c0-1.68,0-3.49,0-5.41,0-3.54.05-6.75.12-9.07a17.57,17.57,0,0,1,.28-3.76,17.57,17.57,0,0,1,.28,3.76c.07,2.32.11,5.53.11,9.07,0,1.92,0,3.73,0,5.41v.36h-.34C391.9,392.26,388.87,392.19,388.86,392Z" style="fill:#263238"></path><rect x="399.82" y="353.64" width="5.14" height="57.99" style="fill:#e0e0e0"></rect><path d="M405,411.63s0-.11,0-.31,0-.52,0-.88c0-.8,0-1.93,0-3.36,0-2.94-.05-7.15-.08-12.35,0-10.44-.06-24.89-.11-41.09l.26.26h-5.13l.25-.25v9.55c0,3.12,0,6.17,0,9.12,0,5.9,0,11.43,0,16.46-.05,10-.09,18-.11,22.85l-.11-.1,3.79.06,1,0,.35,0a1.7,1.7,0,0,1-.32,0l-1,0-3.85.06h-.1v-.1c0-4.88-.06-12.85-.11-22.85,0-5,0-10.56,0-16.46V363.2c0-1.56,0-3.14,0-4.73v-4.82l.27-.27h5.39v.26c0,16.27-.08,30.79-.11,41.28,0,5.18-.06,9.36-.08,12.28,0,1.41,0,2.52,0,3.31l0,.84A1.32,1.32,0,0,1,405,411.63Z" style="fill:#263238"></path><path d="M406,376.29h-7.32v-24a3.66,3.66,0,0,1,3.66-3.67h0a3.66,3.66,0,0,1,3.66,3.67Z" style="fill:#455a64"></path><rect x="405.95" y="356.23" width="1.42" height="31.13" style="fill:#455a64"></rect><path d="M398.63,376.29c0-.16,3-.36,7.41-.52l-.35.36c0-1.68,0-3.5,0-5.41,0-3.55.05-6.75.12-9.08a17.68,17.68,0,0,1,.28-3.76,17.68,17.68,0,0,1,.28,3.76c.07,2.33.12,5.53.12,9.08,0,1.91,0,3.73,0,5.41v.35h-.35C401.66,376.52,398.63,376.45,398.63,376.29Z" style="fill:#263238"></path><path d="M405.14,441.16c-10.89,5.14-21.88,5.06-32.94,0L367.86,393c13.26,3.88,27.33,3.51,42,0Z" style="fill:#FF7E1C"></path><path d="M409.87,392.71a9.1,9.1,0,0,1-1.57.57c-1,.34-2.52.76-4.38,1.2s-4.12.86-6.64,1.2a73.82,73.82,0,0,1-8.24.56,75.58,75.58,0,0,1-8.24-.41,64.58,64.58,0,0,1-6.66-1.08c-1.87-.4-3.38-.79-4.4-1.11a11.51,11.51,0,0,1-1.58-.54,9.68,9.68,0,0,1,1.63.34c1,.26,2.55.59,4.42.95s4.13.7,6.64,1a75.5,75.5,0,0,0,16.37-.15c2.51-.31,4.75-.68,6.62-1.08s3.37-.75,4.4-1A10.28,10.28,0,0,1,409.87,392.71Z" style="fill:#263238"></path></g><g id="freepik--Papers--inject-6"><polygon points="230.38 439 146.72 441.23 230.38 475.23 320.35 469.91 230.38 439" style="fill:#e0e0e0"></polygon><polygon points="206.53 435.63 122.88 437.85 206.53 471.85 296.51 466.53 206.53 435.63" style="fill:#f5f5f5"></polygon><polygon points="128.34 426.78 211.99 460.78 211.99 466.96 128.34 431.77 128.34 426.78" style="fill:#e0e0e0"></polygon><polygon points="211.99 466.96 301.96 461.21 301.96 455.47 211.99 460.78 211.99 466.96" style="fill:#ebebeb"></polygon><polygon points="211.99 424.56 128.34 426.78 211.99 460.78 301.96 455.46 211.99 424.56" style="fill:#fff"></polygon><path d="M212,424.56s.14,0,.42.12l1.25.41,4.84,1.63L236.85,433,302,455.25a.23.23,0,0,1,.14.29.21.21,0,0,1-.2.15l-84.33,5L212,461a.23.23,0,0,1-.11,0l-83.63-34a.23.23,0,0,1-.13-.29.26.26,0,0,1,.2-.14L189.07,425l16.94-.39,4.46-.09H212l-1.53.07-4.47.15-17,.51L128.34,427l.08-.42,83.67,34-.12,0,5.65-.33L302,455.24l-.06.44L236.8,433.22l-18.32-6.36-4.83-1.69-1.24-.45Z" style="fill:#263238"></path><path d="M211.93,467.19a19.33,19.33,0,0,1,0-6.32,19.33,19.33,0,0,1,0,6.32Z" style="fill:#263238"></path><path d="M269.43,449c0,.15-13.64,1.08-30.47,2.09s-30.5,1.71-30.51,1.57,13.63-1.08,30.48-2.09S269.42,448.9,269.43,449Z" style="fill:#263238"></path><path d="M260.56,445.62c0,.15-13.64,1.08-30.48,2.09s-30.49,1.71-30.5,1.56,13.63-1.07,30.47-2.08S260.55,445.48,260.56,445.62Z" style="fill:#263238"></path><path d="M251.69,442.2c0,.14-13.64,1.08-30.48,2.08s-30.5,1.71-30.51,1.57,13.64-1.08,30.48-2.09S251.68,442.05,251.69,442.2Z" style="fill:#263238"></path><path d="M241.37,438.78c0,.14-13.64,1.07-30.48,2.08s-30.5,1.71-30.51,1.57,13.64-1.08,30.48-2.09S241.36,438.63,241.37,438.78Z" style="fill:#263238"></path><path d="M232.52,435.35c0,.15-13.64,1.08-30.48,2.09s-30.5,1.71-30.5,1.56,13.63-1.07,30.47-2.08S232.51,435.21,232.52,435.35Z" style="fill:#263238"></path><path d="M221.7,431.87c0,.14-13.63,1.08-30.47,2.08s-30.5,1.71-30.51,1.57,13.63-1.08,30.48-2.09S221.69,431.72,221.7,431.87Z" style="fill:#263238"></path></g><g id="freepik--Character--inject-6"><polygon points="210.89 430.67 206.71 428.48 208.76 426.63 210.89 430.67" style="fill:#263238"></polygon><polygon points="201.03 425.86 205.93 421.5 208.8 426.8 206.71 428.48 201.03 425.86" style="fill:#fff"></polygon><polygon points="118.63 277.64 146.56 268.33 162.12 255.19 165.48 260.51 178.53 257.52 215.46 267.12 221.42 277.65 252.94 286.28 253.09 330.49 247.36 411.38 248.2 424.24 97.37 424.24 94.88 370.51 94.77 337.08 118.63 277.64" style="fill:#FF7E1C"></polygon><path d="M198.4,401.18,231,399.6s6.32,3.6,8,13.93,0,10.32,0,10.32l-16.4,5.54-34.79-.8-12.62-15.85,9.51-5.61Z" style="fill:#ae7461"></path><path d="M85.77,389.26s31.23-49.24,26-42.12c-.64.88,3.18-2.82,8.1-14.89,4.72-11.6,17-60.28,17-60.28l-28.14,7.47c-7.4,2-13.43,2.6-19.8,6.84-5.56,3.69-11.35,10.93-15.12,16.43-14,20.49-39.76,60.39-43,65.49-4.64,7.28-14,26.07-13.92,37.29.09,9.77,2,18.48,16.91,26.26,13.76,7.18,101.72,2.18,101.72,2.18L135,397.36Z" style="fill:#FF7E1C"></path><path d="M340.11,379.88c-1.29-3.22-50.47-57.6-75.17-82.77a104.16,104.16,0,0,0-12-10.83l-8.14,53s2.8,12.22,4.5,21.26c.37,1.95,25.91,19.33,25.91,19.33l5.47,3.5-49.93,13.2,2.09,31.72L322.23,426C333.84,421.51,352.32,410.31,340.11,379.88Z" style="fill:#FF7E1C"></path><path d="M322.23,426l-.45,0-1.33.05-5.12.18-18.95.58-63.53,1.75h-.23l0-.24c-.2-3-.4-6.12-.61-9.31-.51-7.74-1-15.28-1.47-22.41v-.21l.2-.05c5.35-1.1,10.47-2.48,15.37-3.81l14-3.88c8.87-2.46,16.77-4.55,23.43-6a123.35,123.35,0,0,1,15.76-2.56c1.86-.2,3.31-.2,4.28-.22h1.49l-.38,0-1.1.06c-1,0-2.42.07-4.27.3a127.66,127.66,0,0,0-15.71,2.7c-6.64,1.48-14.53,3.59-23.39,6.08l-14,3.92c-4.9,1.34-10,2.73-15.39,3.85l.19-.26c.48,7.14,1,14.67,1.48,22.41.21,3.19.42,6.35.61,9.31l-.25-.23,63.53-1.59,19-.42,5.12-.09h1.78Z" style="fill:#263238"></path><path d="M204.86,414.36a2.81,2.81,0,0,0-.87-1.07l-5.29-4.72-3.07,9.14a6.18,6.18,0,0,0,8.67-1.18A2.33,2.33,0,0,0,204.86,414.36Z" style="fill:#6f4439"></path><path d="M133.8,363.39,201,425.86l6.35,3,3.51,1.8-1.64-3-3.32-6.14L137.87,359a3,3,0,0,0-4.08,0h0A3,3,0,0,0,133.8,363.39Z" style="fill:#455a64"></path><path d="M135.05,398.51l5.27.94s27.31-10.08,31.21-10.59c3-.39,17.38,3,23.75,4.54a5.57,5.57,0,0,1,4.33,5.58.49.49,0,0,1,0,.12,5.59,5.59,0,0,1-3.51,4.76h0s5.36,1.67,2.93,7.34c-1.79,4.19-7.45,3.55-7.45,3.55l-9.45.18s2.41.72,6,1.57c3.9.91,4.94,1.62,4.94,1.62s5.7,5.48.19,7.77a11.68,11.68,0,0,1-5.76,1s1.65,5.89-2.76,6.91-33.55-1.2-33.55-1.2-1.54-.86-7.48-1.37l-8.22-.57Z" style="fill:#ae7461"></path><path d="M135.05,398.51s0,.2,0,.58,0,1,0,1.67c0,1.48.08,3.62.13,6.39.11,5.54.26,13.56.45,23.51l-.17-.17,7.55.51c1.32.09,2.68.23,4.06.43a17.51,17.51,0,0,1,4.18,1l-.08,0c6.08.44,12.7.87,19.73,1.18,3.51.15,7.12.29,10.82.23a20.8,20.8,0,0,0,2.74-.22,3.48,3.48,0,0,0,2.22-1.3,4.6,4.6,0,0,0,.82-2.55,9.33,9.33,0,0,0-.28-2.78l-.08-.35.36,0a10.55,10.55,0,0,0,3.64-.34,8.46,8.46,0,0,0,3.38-1.52,2.82,2.82,0,0,0,.53-3.34,10.2,10.2,0,0,0-2.19-3.16l0,0a21.4,21.4,0,0,0-4.54-1.5l-6.37-1.66-1.75-.45,1.81,0,9.45-.18h0a9.78,9.78,0,0,0,3.81-.43,5.56,5.56,0,0,0,3-2.18c.17-.25.29-.54.44-.81l.32-.89c.09-.3.14-.6.21-.9s.06-.62.07-.92a4.32,4.32,0,0,0-1.49-3.17,6.25,6.25,0,0,0-1.53-1l-.2-.09-.11,0-.05,0c0,.4-.05-.54,0-.45h0l.41-.19a6,6,0,0,0,.76-.47,5.33,5.33,0,0,0,2-2.84,5.15,5.15,0,0,0-.23-3.4,5.39,5.39,0,0,0-2.24-2.5,11.66,11.66,0,0,0-3.25-1l-3.33-.8c-2.2-.51-4.36-1-6.46-1.45s-4.17-.88-6.19-1.24c-1-.18-2-.34-3-.47a15,15,0,0,0-2.89-.19,45.53,45.53,0,0,0-5.37,1.48c-1.72.54-3.38,1.1-5,1.63l-8.73,3-12.2,4.35h0l-3.95-.75-1-.19-.33-.07.31,0,1,.16,4,.67h0c2.78-1.05,6.91-2.58,12.16-4.47,2.63-1,5.54-2,8.72-3.07,1.58-.54,3.24-1.11,5-1.66a44.44,44.44,0,0,1,5.44-1.51,14.87,14.87,0,0,1,3,.17c1,.13,2,.29,3,.47,2,.35,4.09.76,6.2,1.22s4.27.93,6.47,1.44l3.34.78,1.69.41a6.62,6.62,0,0,1,1.69.67,6,6,0,0,1,2.44,2.72,5.59,5.59,0,0,1,.25,3.7,5.8,5.8,0,0,1-2.16,3.1,6.36,6.36,0,0,1-.83.51c-.14.08-.29.14-.44.21h0c0,.1,0-.84,0-.44l.06,0,.12,0,.22.09a6.47,6.47,0,0,1,1.65,1,5.16,5.16,0,0,1,1.21,1.57,4.92,4.92,0,0,1,.45,1.95c0,.33,0,.67-.07,1s-.13.65-.23,1l-.33.94c-.16.3-.3.61-.48.89a6,6,0,0,1-3.22,2.37,10.1,10.1,0,0,1-4,.46h0l-9.45.19.07-.49,6.35,1.65a20.78,20.78,0,0,1,4.7,1.57h0l0,0a10.58,10.58,0,0,1,2.31,3.34,4.05,4.05,0,0,1,.32,2,2.92,2.92,0,0,1-1,1.84,9,9,0,0,1-3.6,1.64,11,11,0,0,1-3.84.35l.28-.31a10.07,10.07,0,0,1,.29,2.94,5.06,5.06,0,0,1-.92,2.8,4,4,0,0,1-2.52,1.49,19.46,19.46,0,0,1-2.82.22c-3.72.07-7.34-.09-10.86-.24-7-.33-13.64-.78-19.74-1.23h0l-.06,0a17.78,17.78,0,0,0-4-1c-1.37-.2-2.71-.35-4-.44l-7.54-.54h-.16v-.16c-.11-10-.19-18.06-.25-23.64,0-2.74,0-4.88,0-6.34,0-.71,0-1.25,0-1.64S135.05,398.51,135.05,398.51Z" style="fill:#6f4439"></path><path d="M195.63,403.86a56,56,0,0,1-7.49-.44,56.79,56.79,0,0,1-7.45-.93,56,56,0,0,1,7.49.44A58.91,58.91,0,0,1,195.63,403.86Z" style="fill:#6f4439"></path><path d="M166.15,430.67c0,.05-.43-.1-.89-.58a3.71,3.71,0,0,1-1-2.39,3.64,3.64,0,0,1,.82-2.44c.43-.52.82-.7.85-.65s-.24.33-.56.85a4.07,4.07,0,0,0-.61,2.23,4,4,0,0,0,.77,2.17C165.88,430.36,166.19,430.6,166.15,430.67Z" style="fill:#6f4439"></path><path d="M165.71,420.78c0,.06-.51,0-1.16-.42A3.56,3.56,0,0,1,164,415c.54-.57,1-.71,1-.66s-.36.31-.78.88a3.74,3.74,0,0,0-.73,2.56,3.67,3.67,0,0,0,1.27,2.33C165.3,420.55,165.74,420.7,165.71,420.78Z" style="fill:#6f4439"></path><path d="M165.54,409.27c0,.05-.5-.23-1-.95a4.58,4.58,0,0,1-.67-3.23,4.53,4.53,0,0,1,1.73-2.82c.69-.52,1.22-.61,1.24-.56s-.44.29-1,.83a4.59,4.59,0,0,0-1,5.6C165.23,408.85,165.6,409.21,165.54,409.27Z" style="fill:#6f4439"></path><path d="M169,394.5s-.26-.12-.44-.5a2.45,2.45,0,0,1,.82-2.93c.36-.23.63-.25.65-.2s-.81.58-1.09,1.66A4.7,4.7,0,0,0,169,394.5Z" style="fill:#6f4439"></path><path d="M182.86,414.75a17.53,17.53,0,0,1-4.07.17,16.8,16.8,0,0,1-4.07-.32,16.57,16.57,0,0,1,4.07-.18A16.49,16.49,0,0,1,182.86,414.75Z" style="fill:#6f4439"></path><path d="M187.28,426.9a54.85,54.85,0,0,1-7.37-1.31,58.16,58.16,0,0,1-7.27-1.8A54.85,54.85,0,0,1,180,425.1,57.59,57.59,0,0,1,187.28,426.9Z" style="fill:#6f4439"></path><path d="M114.63,338.2a2.76,2.76,0,0,1,.16-.62c.11-.41.35-1,.54-1.76a44.28,44.28,0,0,0,1.35-6.61,56.3,56.3,0,0,0,.43-10,46.86,46.86,0,0,0-2.06-12,33.33,33.33,0,0,0-5.84-10.65,30.32,30.32,0,0,0-7.47-6.55,32,32,0,0,0-6.07-2.91c-.74-.3-1.35-.44-1.74-.58a3.79,3.79,0,0,1-.61-.23,2.89,2.89,0,0,1,.63.13c.41.11,1,.23,1.78.5a29.38,29.38,0,0,1,6.19,2.78,30.06,30.06,0,0,1,7.64,6.56,33.3,33.3,0,0,1,6,10.79,45.94,45.94,0,0,1,2,12.16,53.51,53.51,0,0,1-.54,10.06,40.62,40.62,0,0,1-1.51,6.62c-.23.77-.49,1.33-.63,1.73A4.35,4.35,0,0,1,114.63,338.2Z" style="fill:#263238"></path><path d="M253,329a5.26,5.26,0,0,1,0,.64c0,.47,0,1.08-.07,1.84-.1,1.65-.22,3.93-.38,6.73-.37,5.74-.87,13.56-1.43,22.21s-1.17,16.46-1.58,22.2l-.53,6.72c-.07.75-.13,1.36-.17,1.83a5.62,5.62,0,0,1-.09.63,2.84,2.84,0,0,1,0-.64c0-.47,0-1.08.08-1.83.09-1.65.22-3.94.37-6.74.37-5.73.87-13.56,1.43-22.2s1.17-16.47,1.58-22.2l.53-6.72c.07-.76.13-1.36.17-1.83A3,3,0,0,1,253,329Z" style="fill:#263238"></path><path d="M194.63,319.05a1.63,1.63,0,0,1-.33-.27l-.91-.84-3.4-3.23-5.23-5.08c-2-2-4.28-4.2-6.63-6.77l.37-.09c-1.11,4.8-2.36,10.22-3.69,16l-.14.61-.31-.54c-1.4-2.4-2.83-4.91-4.27-7.48-6.49-11.61-12.08-22.27-16.27-29.91l-5-9L147.49,270l-.35-.64c-.07-.15-.11-.22-.1-.23a1.18,1.18,0,0,1,.15.2l.38.62,1.44,2.41c1.24,2.1,3,5.16,5.12,9,4.27,7.6,9.91,18.23,16.39,29.84,1.44,2.57,2.87,5.07,4.26,7.47l-.45.07c1.36-5.78,2.63-11.19,3.75-16l.1-.4.27.31c2.31,2.56,4.58,4.8,6.55,6.81l5.16,5.15,3.32,3.31.86.88A2.33,2.33,0,0,1,194.63,319.05Z" style="fill:#263238"></path><path d="M196.52,317.8s.26-.38.76-1.06l2.16-2.94c1.84-2.55,4.41-6.19,7.39-10.54L207,303l.19.22a25.51,25.51,0,0,0,4.47,4c1.71,1.22,3.6,2.35,5.46,3.65l-.38.15.08-.35c2-8.28,3.78-15.77,4.59-21.28.42-2.75.68-5,.83-6.54.07-.74.13-1.33.17-1.79a2.82,2.82,0,0,1,.1-.62,3.37,3.37,0,0,1,0,.63c0,.41,0,1-.08,1.79-.09,1.56-.29,3.81-.67,6.58-.72,5.55-2.46,13.08-4.46,21.34a3.59,3.59,0,0,1-.08.35l-.08.36-.3-.21c-1.85-1.29-3.74-2.43-5.47-3.67a25.87,25.87,0,0,1-4.52-4.07l.35,0c-3,4.33-5.64,7.93-7.54,10.44-.95,1.25-1.72,2.22-2.26,2.87-.27.33-.49.57-.64.74S196.53,317.81,196.52,317.8Z" style="fill:#263238"></path><path d="M193.59,391.37a3.56,3.56,0,0,1,0-.74c0-.53,0-1.23,0-2.11,0-1.88.1-4.51.16-7.74.13-6.59.29-15.61.48-25.57s.19-19,.26-25.57c0-3.23.05-5.86.06-7.75,0-.87,0-1.57,0-2.1a3.24,3.24,0,0,1,0-.74,6,6,0,0,1,.05.74c0,.52,0,1.23.06,2.1,0,1.89,0,4.52.09,7.75,0,6.55,0,15.59-.11,25.58s-.39,19-.63,25.57c-.13,3.23-.24,5.86-.31,7.74l-.12,2.11A5.26,5.26,0,0,1,193.59,391.37Z" style="fill:#263238"></path><path d="M135.52,433.93a5.86,5.86,0,0,1-.05-.72c0-.51,0-1.2-.07-2.07-.05-1.85-.11-4.46-.18-7.7-.11-6.58-.26-15.71-.43-26.08l.21.24-7.46-1.24-30.77-5.22-9.32-1.64L84.92,389l-.66-.14-.22-.06a.59.59,0,0,1,.23,0l.67.09,2.54.38,9.34,1.48,30.79,5.08,7.46,1.25.21,0v.21c.11,10.37.2,19.49.26,26.08,0,3.24,0,5.85,0,7.7,0,.87,0,1.56,0,2.07A3.68,3.68,0,0,1,135.52,433.93Z" style="fill:#263238"></path><path d="M85.77,389.26c0,.1-1.67.21-4.3.84A33.52,33.52,0,0,0,77,391.52a38.47,38.47,0,0,0-5.18,2.59,38.06,38.06,0,0,0-4.66,3.44,33.43,33.43,0,0,0-3.32,3.38c-1.75,2.06-2.62,3.51-2.7,3.45a5.38,5.38,0,0,1,.56-1,11.81,11.81,0,0,1,.76-1.16c.32-.44.66-1,1.11-1.48a30.79,30.79,0,0,1,3.28-3.49,34.16,34.16,0,0,1,4.71-3.52,33.2,33.2,0,0,1,5.27-2.59,31.37,31.37,0,0,1,4.61-1.35c.66-.16,1.28-.23,1.81-.31a12.1,12.1,0,0,1,1.39-.15A5.88,5.88,0,0,1,85.77,389.26Z" style="fill:#263238"></path><path d="M111.74,347.14a1.61,1.61,0,0,1-.22.46l-.72,1.25c-.68,1.14-1.59,2.68-2.71,4.55-2.31,3.84-5.54,9.12-9.12,14.93s-6.86,11.07-9.25,14.86l-2.85,4.47-.79,1.2a2.22,2.22,0,0,1-.31.4s.06-.16.22-.45l.72-1.26c.68-1.13,1.6-2.67,2.71-4.55,2.31-3.83,5.54-9.11,9.12-14.93s6.86-11.06,9.25-14.85l2.85-4.47.79-1.2A2.67,2.67,0,0,1,111.74,347.14Z" style="fill:#263238"></path><g style="opacity:0.30000000000000004"><path d="M95.58,385.59c10.66-9.07,17.13-24.78,16-38.72L95.07,374.51Z"></path></g><g style="opacity:0.30000000000000004"><polygon points="153.46 280.44 173.49 325.75 180.69 312.24 191.68 316.19 178.29 302.72 174.57 318.71 153.46 280.44"></polygon></g><g style="opacity:0.30000000000000004"><path d="M280,383.45c8.55-4.52,16.59-8,26.22-7.13a13.93,13.93,0,0,1,3.87.77,3.83,3.83,0,0,1,1.55,2.79,105.05,105.05,0,0,0-30.79,3.43"></path></g><g style="opacity:0.30000000000000004"><path d="M253.38,323.39c0,.74-2.51,38.07-2.56,38.81C257.14,349.88,259.19,336,253.38,323.39Z"></path></g><path d="M197.84,140.31a10.64,10.64,0,0,1,11.74-3.71,14.56,14.56,0,0,1,17.68,3A13,13,0,0,1,245,153a10.82,10.82,0,0,1,6.64,19.43,10.4,10.4,0,0,1-7.34,19.35L198,152.62A10.64,10.64,0,0,1,197.84,140.31Z" style="fill:#263238"></path><path d="M208.12,146.76l-2.26-.34c-24.58-2.24-40.21,17.39-41.77,42L156.4,261l39.53,52.7L208.67,295l4-21.87s24-.12,27.77-23.5c1.84-11.29,3.73-34.84,5.2-56.18A44.11,44.11,0,0,0,208.12,146.76Z" style="fill:#ae7461"></path><path d="M212.58,273.13s-14.85-1.38-29.1-13.62c0,0,4.63,18,28.09,19.41Z" style="fill:#6f4439"></path><path d="M234,217a3.38,3.38,0,0,1-3.73,2.89,3.24,3.24,0,0,1-3-3.54A3.39,3.39,0,0,1,231,213.5,3.24,3.24,0,0,1,234,217Z" style="fill:#263238"></path><path d="M238.92,205.35c-.48.37-2.73-1.88-6.33-2.41s-6.51.87-6.84.37c-.16-.22.38-.95,1.66-1.61a9.21,9.21,0,0,1,5.55-.84,9,9,0,0,1,5,2.46C238.9,204.34,239.15,205.18,238.92,205.35Z" style="fill:#263238"></path><path d="M203.52,213a3.38,3.38,0,0,1-3.73,2.89,3.23,3.23,0,0,1-3-3.53,3.39,3.39,0,0,1,3.73-2.9A3.23,3.23,0,0,1,203.52,213Z" style="fill:#263238"></path><path d="M204.56,199.68c-.48.37-2.73-1.88-6.33-2.41s-6.51.87-6.83.37c-.16-.22.37-.95,1.65-1.61a9.21,9.21,0,0,1,5.55-.84,9,9,0,0,1,5,2.46C204.54,198.67,204.8,199.51,204.56,199.68Z" style="fill:#263238"></path><path d="M212.41,228.13c0-.21,2.31-.26,6-.18.93.05,1.83,0,2.08-.61a4.76,4.76,0,0,0-.21-2.82c-.53-2.35-1.08-4.82-1.67-7.4-2.27-10.53-3.78-19.13-3.35-19.22s2.62,8.37,4.89,18.9c.54,2.6,1.06,5.07,1.55,7.43.19,1.1.61,2.38-.07,3.68a2.33,2.33,0,0,1-1.71,1.12,6.38,6.38,0,0,1-1.59,0C214.66,228.66,212.4,228.34,212.41,228.13Z" style="fill:#263238"></path><path d="M206.15,189.4c-.56.87-3.54-.43-7.31-.93s-7-.19-7.28-1.18c-.1-.47.65-1.23,2.09-1.83a11.43,11.43,0,0,1,5.81-.63,10.88,10.88,0,0,1,5.31,2.25C205.94,188.05,206.41,189,206.15,189.4Z" style="fill:#263238"></path><path d="M239.58,195.36c-.69.78-3.13-.25-6.14-.49s-5.59.18-6.12-.72c-.23-.43.23-1.23,1.39-1.94a8.92,8.92,0,0,1,9.89,1C239.6,194.1,239.89,195,239.58,195.36Z" style="fill:#263238"></path><path d="M245,182.34s-4-15.6-10.53-20.08c-7.94-5.43-13,3.41-20.86-.09s-15.39-8.71-24.67-3.65c-10.17,5.53-6.62,11-8.74,21.32-8.61,41.79-18.1,52.55-17.31,32.37.09-2.21-5.68-4.84-5.2-14.16.63-12.09,2.35-26.62,6.27-34.67,3.31-6.79,8.11-11.1,16.21-15.43,12.79-6.84,28.61-4.66,39.17-2S248.68,164.12,245,182.34Z" style="fill:#263238"></path><path d="M164.43,211.8a6.43,6.43,0,0,0-5.94-7.16c-4.43-.24-9.66,1.51-10.73,10.58-1.89,16.09,14.65,14.67,14.73,14.21S163.7,218.54,164.43,211.8Z" style="fill:#ae7461"></path><path d="M159.7,223c-.06-.06-.3.16-.8.32a2.82,2.82,0,0,1-2.1-.2c-1.63-.82-2.74-3.69-2.48-6.6a9.35,9.35,0,0,1,1.26-3.92,3.25,3.25,0,0,1,2.36-1.9,1.42,1.42,0,0,1,1.56,1c.17.48,0,.79.11.82s.38-.23.33-.91a1.86,1.86,0,0,0-.52-1.08,2.15,2.15,0,0,0-1.5-.59A4,4,0,0,0,154.7,212a9.6,9.6,0,0,0-1.5,4.37c-.28,3.25,1,6.48,3.27,7.43a3,3,0,0,0,2.61-.13C159.63,223.35,159.75,223,159.7,223Z" style="fill:#6f4439"></path><path d="M169.4,180.83c1.87,1.73,3.85,3.52,6.32,4.15s5.54-.39,6.34-2.81c.36-1.08.28-2.42,1.14-3.17,1-.9,2.59-.33,3.92,0a10.32,10.32,0,0,0,11.7-5.73c.92,1.95,3.71,2.29,5.68,1.4s3.41-2.61,5.06-4,3.83-2.54,5.9-1.92c1.16.35,2.17,1.22,3.37,1.29,2.13.13,3.53-2.18,4.16-4.22s1.25-4.44,3.2-5.3,3.85.12,5.75.7,4.45.5,5.23-1.32a3.83,3.83,0,0,0-.28-3,10.49,10.49,0,0,0-11.65-5.77,14.21,14.21,0,0,0-25.41-6.6,14.42,14.42,0,0,0-23.58,1.78,10.45,10.45,0,0,0-13.92,13.29c-3.12,1.21-6,3.7-6.57,7s2.17,7.1,5.5,6.7a5.79,5.79,0,0,0,9.05,7.2" style="fill:#263238"></path><path d="M202.65,232.52a1.46,1.46,0,0,0-1-.36,1.27,1.27,0,0,0-.74.65,8.15,8.15,0,0,0-.42,7.85s0,.05,0,.08c1.82,3.56,6.93,3.67,9.21.38l1.71-2.47Z" style="fill:#6f4439"></path><path d="M208.62,242.29c.12.07-1.34,1.46-4.3,1.32a4.7,4.7,0,0,1-2.28-.79,5.31,5.31,0,0,1-1.94-2,9.75,9.75,0,0,1-.59-6.1,10.46,10.46,0,0,1,.4-1.58,2.34,2.34,0,0,1,1.22-1.45,1.92,1.92,0,0,1,1.83.41l1.12.83,3.84,2.92c2.17,1.68,3.46,2.79,3.38,2.91s-1.54-.77-3.82-2.3l-4-2.73c-.72-.47-1.63-1.31-2-1.06s-.78,1.29-1,2.25a9.21,9.21,0,0,0,.42,5.45,4.51,4.51,0,0,0,1.56,1.71,4,4,0,0,0,1.88.77A9.54,9.54,0,0,0,208.62,242.29Z" style="fill:#263238"></path><path d="M160.09,173.08c-.05-.05-.5,1.3.54,3.23a5.18,5.18,0,0,0,2.92,2.4,5.61,5.61,0,0,0,4.76-.65l-.66-.2a15.9,15.9,0,0,0,2.6,4.47,9.18,9.18,0,0,0,2.64,2.26,7.2,7.2,0,0,0,8.2-1.18,9.27,9.27,0,0,0,1.79-3.13,3.23,3.23,0,0,0,.32-1.28c-.07,0-.27.39-.65,1.13a10.57,10.57,0,0,1-1.94,2.82c-1.86,2.07-7,2.5-9.65-1.22a16.31,16.31,0,0,1-2.49-4.2l-.21-.51-.45.31a4.91,4.91,0,0,1-4,.65,4.76,4.76,0,0,1-2.67-2A7.91,7.91,0,0,1,160.09,173.08Z" style="fill:#455a64"></path><path d="M195.84,141.06c0,.05.4.17,1.07.58a5.6,5.6,0,0,1,2.17,2.49l.14.33.27-.26a20.12,20.12,0,0,1,8.68-5.11,15.78,15.78,0,0,1,6.51-.43,13.13,13.13,0,0,1,6.49,3,13.38,13.38,0,0,1,3.46,4.44,10.9,10.9,0,0,1,1,5.09l0,.51.51-.06a9.09,9.09,0,0,1,6.53,1.81,8.84,8.84,0,0,1,3.06,4.45,12,12,0,0,1,.28,4.89,3.12,3.12,0,0,0,.39-1.28,8.82,8.82,0,0,0-.17-3.75,9.22,9.22,0,0,0-3.11-4.88,9.71,9.71,0,0,0-7.08-2.09l.48.45a11.7,11.7,0,0,0-1.07-5.53,14.08,14.08,0,0,0-3.69-4.76,13.78,13.78,0,0,0-7-3.13,16,16,0,0,0-6.86.54,19.66,19.66,0,0,0-8.83,5.54l.41.07a5.41,5.41,0,0,0-2.5-2.51A2.26,2.26,0,0,0,195.84,141.06Z" style="fill:#455a64"></path></g></svg>